<svg viewBox="0 0 1000 1000" xmlns="http://www.w3.org/2000/svg"><g transform="translate(99 83)" fill="none"><path d="M779.6 452.5L452.5 779.6a76.4 76.4 0 01-108.1-108l327.1-327.2a76.4 76.4 0 11108 108.1z" fill="#FBBC04"/><circle fill="#34A853" transform="rotate(-45 398.4 725.7)" cx="398.4" cy="725.7" r="76.4"/><path d="M510.6 183.4L347 346.9 455 455l163.6-163.5a76.4 76.4 0 00-108-108.1z" fill="#FBBC04"/><path d="M291.5 618.6L455 455.1 347 347 183.3 510.5a76.4 76.4 0 00108 108.1z" fill="#3B80EF"/><circle fill="#34A853" transform="rotate(-45 401.3 400.7)" cx="401.3" cy="400.7" r="76.4"/><path d="M457.6 130.5L130.5 457.6a76.4 76.4 0 01-108.1-108L349.5 22.3a76.4 76.4 0 01108.1 108z" fill="#3B80EF"/><circle fill="#34A853" cx="403.5" cy="76.5" r="76.5"/></g></svg>