<svg viewBox="0 0 1000 1000" xmlns="http://www.w3.org/2000/svg"><defs><linearGradient x1="80.8%" y1="15.8%" x2="43.7%" y2="97.4%" id="a"><stop stop-color="#0052CC" offset="0%"/><stop stop-color="#2684FF" offset="92.3%"/></linearGradient></defs><g fill="none"><path d="M196.3 303c-9.8-10.4-25-9.9-31.7 3.5L3.6 628.3a19.2 19.2 0 0017.2 27.9H245c7.4.1 14.1-4 17.3-10.7 48.3-99.9 19-251.8-65.9-342.5z" fill="url(#a)" transform="translate(171 171)"/><path d="M485.4 181.3c-90 142.6-84 300.5-24.8 419.1l108 216.1a19.2 19.2 0 0017.3 10.7h224a19.2 19.2 0 0017.3-27.9l-309-618.1c-6.9-13.5-24-13.7-32.8.1z" fill="#2681FF"/></g></svg>