<svg xmlns="http://www.w3.org/2000/svg" viewBox="0 0 512 512" style="enable-background:new 0 0 512 512" xml:space="preserve"><path d="m404.7 239-10.6-4.2c-49.9 112.3-248.5 44-260.5 77.5-2 22.6 108.5 4.3 187.4 8.1 24.1 1.2 36.2 19.3 25.9 49l20.1.1c23.2-72.4 97.4-35.5 100.5-59.4-5-15.8-85.1-.1-62.8-71.1z" style="fill:#fff"/><path d="M352.7 356.9c3.2-10.6 2.1-21.2-3.2-27.6a32.8 32.8 0 0 0-22.3-11.7l-184.8-2.1c-1.1 0-2.1-1.1-3.2-1.1-1.1-1.1-1.1-2.1 0-3.2 1.1-2.1 2.1-3.2 4.2-3.2l185.9-2.1c22.3-1.1 45.7-19.1 54.2-40.4l10.6-27.6c0-1.1 1.1-2.1 0-3.2a120.7 120.7 0 0 0-117.9-94.5c-53.1 0-98.8 34-114.7 81.8a58 58 0 0 0-38.2-10.6 55.4 55.4 0 0 0-48.9 48.9c-1.1 6.4 0 12.7 1.1 19.1a77.5 77.5 0 0 0-74.4 89.2c0 2.1 2.1 3.2 3.2 3.2h341c2.1 0 4.3-1.1 4.3-3.2l3.1-11.7z" style="fill:#f4811f"/><path d="M411.1 237.9h-5.3c-1.1 0-2.1 1.1-3.2 2.1l-7.4 25.5c-3.2 10.6-2.1 21.2 3.2 27.6a32.8 32.8 0 0 0 22.3 11.7L460 307c1.1 0 2.1 1.1 3.2 1.1 1.1 1.1 1.1 2.1 0 3.2-1.1 2.1-2.1 3.2-4.3 3.2l-40.4 2.1c-22.3 1.1-45.7 19.1-54.2 40.4l-2.1 9.6c-1.1 1.1 0 3.2 2.1 3.2h140.2c2.1 0 3.2-1.1 3.2-3.2a117 117 0 0 0 4.2-27.6 101.5 101.5 0 0 0-100.8-101.1" style="fill:#faad3f"/></svg>