<svg version="1.1" id="Layer_1" xmlns="http://www.w3.org/2000/svg" x="0" y="0" viewBox="0 0 512 512" style="enable-background:new 0 0 512 512" xml:space="preserve"><style>.st0{fill:#ea4335}</style><path class="st0" d="M346.4 165.6c50 50 50 131 0 181A64.1 64.1 0 0 0 437 437a256 256 0 0 0 0-362l-90.6 90.6z"/><linearGradient id="SVGID_1_" gradientUnits="userSpaceOnUse" x1=".6" y1="512" x2="2.6" y2="512" gradientTransform="matrix(227.8001 0 0 218.5 -127.5 -111658.3)"><stop offset="0" style="stop-color:#246fdb"/><stop offset=".1" style="stop-color:#2973df"/><stop offset=".3" style="stop-color:#377deb"/><stop offset=".5" style="stop-color:#3f83f2"/><stop offset="1" style="stop-color:#4285f4"/></linearGradient><path d="M436.8 75A256 256 0 0 0 75 437l90.6-90.4a128 128 0 1 1 181-181c25 25 65.6 25 90.6 0a64.5 64.5 0 0 0-.4-90.6z" style="fill:url(#SVGID_1_)"/><path d="m436.8 437-90.6-90.4c-50 50-131 50-181 0L74.6 437a256.1 256.1 0 0 0 362.2 0z" style="fill:#fbbc04"/><circle class="st0" cx="391.6" cy="391.9" r="64"/><circle cx="120.2" cy="391.9" style="fill:#34a853" r="64"/></svg>