<svg viewBox="0 0 1000 1000" xmlns="http://www.w3.org/2000/svg"><g fill="none"><path d="M828.4 821.3a13 13 0 01-9.5 3.8 13 13 0 01-13.3-13.3c0-3.9 1.3-7.4 4.1-10 2.6-2.5 5.7-3.4 9.2-3.4a13 13 0 0113.4 13.3c.3 3.8-1 7-3.9 9.6m-17.1-17.5a10.3 10.3 0 00-3.2 7.6c0 3.2 1 5.7 3.2 8 2.2 2.2 4.8 3.1 8 3.1s5.7-1 7.9-3.1c2.2-2.3 3.2-4.8 3.2-8 0-2.8-1-5.7-3.2-7.6a10.8 10.8 0 00-8-3.5c-3.1.3-5.7 1.3-7.9 3.5m12 14.6a6.1 6.1 0 01-3.7 1.3c-2 0-3.9-.7-5.4-2.2a7.7 7.7 0 01-2.3-5.8c0-2.2.7-4.1 2-5.7 1.2-1.6 3.1-2.2 5.3-2.2 1.3 0 2.6.3 3.8 1 1.6.9 3 2.5 3.2 5h-3.5c-.3-1-.6-1.9-1.2-2.2-.7-.3-1.3-.6-2-.6-.9 0-1.8.3-2.5 1.2-.6 1-1 2.3-1 3.9s.4 2.8 1 3.4c.7.7 1.6 1.3 2.6 1.3s1.5-.3 2.2-.6l1-2h3.1c-.3 2-1.3 3.3-2.5 4.2m33.6-141l-.3-3.9c0-1-.3-1.6-.3-2.2a30.8 30.8 0 00-15.2-22 43.3 43.3 0 00-9-3.1c-.9 0-1.5-.3-2.2-.3a47 47 0 00-3.8-32.4l.7-.7c3.8-3.8 7-7.3 9.8-10.8l.6-.6c2.3-3.2 3.5-6.4 4.5-9.2.6-2.6 1.3-4.8 1.3-7v-6c-.4-4.8-1-10.9-4.2-17.5a45 45 0 00-6.6-9.9 39 39 0 00-10.5-8.2c-.3-.4-.7-.4-1-.7a155 155 0 00-26.6-29.5 192.8 192.8 0 00-12.1-9.6c-3.5-2.5-6.4-4.4-8-5.7a54.8 54.8 0 00-7.9-5c-3.2-2-5.4-3.6-6.7-4.5-1-1-1.6-1.3-1.9-1.6l-.3-1c-.3-.9-.3-2.2-.3-4.4 0-3.2 0-8 .3-14.3l2.9-42.6c.3-6 .3-11.7.3-16.8a124 124 0 00-3.2-23.2c-.3-1.6-1-3.2-1.3-4.8-.3-1.2-.6-1.9-1-2.5-.2-1-.5-2-1.2-3.2-.3-.6-.3-1.3-1-1.9-.6-1.6-1.2-3.2-2.2-4.8l-.3-.3-.3-1-.3-.6a46.5 46.5 0 00-5.4-7.6 116 116 0 00-15.9-38.4 58.3 58.3 0 00-5.4-7l.6-.7c1-1 23.2-24.4 41-55 32.7-56.8 22-91.5 7-110.5l-.3-.7-.3-.6a91.6 91.6 0 00-57.8-28.6c-49.9-6.3-106.4 18.4-121.3 25.4l-27.4-29.8a54.3 54.3 0 00-17.1-12.4 72.7 72.7 0 00-21-5.7c-14.9-2-32 0-50.5 4.7-27.6 7-58.4 21-90.8 40.4a622.9 622.9 0 00-98.8 74.3c-40 36.2-73 74.7-97.1 111.6-12.1 18-22 35.9-29.3 53-7.3 16.9-12 33-14 47.7a86.4 86.4 0 001 30.2c1 4 2.3 8 4.2 11.7 2.2 4.8 5 9.2 8.5 13l28.3 29.6 3.2 3.2-.3.3-1 1.9c-.6 1-1 2-1.6 2.5l-1 2-1.2 2.8-1 2c-.3.9-1 1.8-1.2 2.8-.3.6-.7 1.2-.7 1.9l-1 2.8c-.2.7-.2 1.3-.6 2l-1 3.1-.2 1c0 .3-.3.6-.3 1-.4.9-.7 2.2-1 3.1 0 .6-.3 1.3-.3 2l-.3 1.2-.3 1.9c0 .6-.4 1.3-.4 1.9-.3 1.3-.3 2.5-.6 4.1 0 .3 0 .7-.3 1.3v.3c0 1-.3 2-.3 2.6 0 1.2-.4 2.8-.4 4v16c0 .6 0 1.2.4 1.9 0 .6 0 1.6.3 2.5v1l.3 2.2c0 .6.3 1.3.3 2.2 0 .3 0 .7.3 1l.4 1.2v.7c0 .6.3 1.3.6 2.5 0 .3 0 .3.3.7.3.6.3 1.2.3 1.6l.3.6c0 .3 0 .3.4.6l.3.7v1c0 .2 0 .2.3.5l.3.7c0 .6.3 1 .3 1.6.3.6.3 1.2.7 2.5v-.3.3c0 .3 0 .3.3.6.3 1 .6 1.6.6 2 .3.6.7 1.2 1 2.5l.3.3c.3.7.3 1.3.6 1.6l.3.6c0 .4.4.7.4 1 0 .3.3 1 .6 1.3l.3.6c.3.3.3 1 .6 1.3.4.3.4.6.4 1l1 2.1.2.4.7 1c.3.2.3.9.6 1.2.3.3.6 1 1 1.9l.3.3c.3.3.3.6.6 1l.6 1.2c.4.4.7 1 1 1.6v.3c.3.4.3.7.6 1 .3.6.7 1 1 1.3l1.3 1.9c.3.3.6.6.6 1 .3.6.6.9 1 1.2.3.3.6 1 .9 1.6.3.3.6 1 1 1.3.3.6.6 1 1.2 1.2l1 1 .3.3 1.6 2 .6.5 1 1 1.9 1.9.6.6 1 1 .3.3c.6.6 1.6 1.3 2.2 2.2l.3.4c.3.3.6.3 1 .9l2.8 2.5.7.4.3.3.6.3c1 .6 1.6 1.3 2.6 2l.3.2c.3.3.6.3.6.3l.6.7 2 1.6.6.3.6.6.3.3 2.3 1.3c.3.3.6.6 1.2.6l.7.4.3.3h.3a28 28 0 013.2 1.9l.6.3 3.8 2h.3l.7.2 1.9 1c.3 0 .6.3 1 .3.2.3.6.3 1.2.6h.3c.7.4 1.3.7 2 .7h.2l2.3 1h.3l.6.2c.3 0 .7.4 1 .4h.3l3.2 1h.3l4.7 1.2h.4l4 1h1.4c1.2.3 2.5.6 3.8.6h1.2c1 0 1.6.3 2.6.3 0 .3.3.6.3 1 2.2 6 4.4 12 7 17.7 37.5 104 141.3 184.6 259.8 199.6 118.4 14.6 245.1-64.2 296.6-170.7a213.8 213.8 0 006-12 61 61 0 0011.8-16.5c4-3.5 5-10.5 4.7-16.6M199.3 636h.3-.3" fill="#664F44"/><path d="M756.5 157.6a62.5 62.5 0 00-19.7-14.7c-1.3-.6-2.5-1-4.1-1.2-.7-.3-1.3-1-2-1.3a84 84 0 00-20-5c-34.3-4.6-73.7 8.2-95.9 17.1l-3.8 1.6c-2 1-3.8 1.6-5.7 2.5-3.2 1.3-6.4 3-9.9 4.5l-1.6.6-6-7-2.9-3.2-2.5-2.8-1-1.3-23.2-26.7-1.9-2.3-2.5-2.8h-.3l-6.7 1.6-7.6 1.5c-4.2-1.9-9.2-3.1-15-4-11.4-1.7-26 0-42.5 4a276 276 0 00-55 21.4 568.1 568.1 0 00-126.1 88.8 630.8 630.8 0 00-75 81.2 373.7 373.7 0 00-46.4 76.8c-6.7 15.6-10.8 29.9-12.4 42.3-1.3 9-1 16.9.6 23.3l2 5.7c1.5 3.8 3.4 7 6 9.9l25.7 27 2.9 2.9.3-.3a9.7 9.7 0 012.5-2.6l.3-.3 1-1c.6-.9 1.6-1.5 2.2-2.5.6-.6 1-1 1.6-1.3.6-.3 1-1 1.6-1.2l.6-.7c.7-.3 1-1 1.6-1.2.7-.7 1.6-1.3 2.2-2 .4-.3 1-.6 1.3-1h.3c1-.5 1.6-1.2 2.6-1.8.6-.3 1-.7 1.6-1.3 1-.6 1.5-1.3 2.5-2 .6-.2 1-.5 1.6-.9 1-.6 1.9-1.2 2.9-1.6l1.5-1c1-.5 2-.9 2.9-1.5l1.6-1 .6-.3c1-.3 1.6-1 2.6-1.2.3-.4 1-.4 1.2-.7l2.3-1 1.9-.9.6-.3 4.8-2c.6-.2 1-.2 1.6-.6l1.5-.6.7-.3c.3 0 .6-.3 1-.3.6-.4 1.2-.4 2.2-.7h.6l2.5-.6c.7-.3 1.6-.3 2.3-.6 1-.4 1.9-.4 2.8-.7.3 0 .7-.3 1.3-.3.3 0 1 0 1.3-.3 1-.3 1.9-.3 2.8-.3 1 0 1.6-.4 2.6-.4.6 0 1.2-.3 1.9-.3h2.5c3.2 0 7 0 10.8.3h.6c3.9.4 8.3 1 12.8 2 1 .3 2.2.3 3.1.6.4-.3.4-1 .7-1.3 2.5-4.1 4.7-8.6 7.3-12.7a483.2 483.2 0 0145.1-63.4c5.4-6.4 10.8-12 16.2-17.8a421.5 421.5 0 0165.5-55.7c4.4-3.2 9.2-6.1 13.3-9 6-3.8 11.8-7 17.2-10.2 4.4-2.5 8.5-4.7 12.7-6.6 6.6-3.5 12.7-6.4 18-8.6l4.9-2c2.2-.9 4.4-1.9 6.3-2.5-1.6-.3-3.5-.3-5-.3h-6.4c-1.6 0-3.5 0-5.1.3l-10.2 1-3.5.6c8.6-4.5 17.2-7.6 25.1-10.2a163.4 163.4 0 0116-3.8c6.9-1.3 13.6-2.2 19.6-2.6 4.1-.3 8-.3 11.4-.3 3.5 0 7 .3 9.9.3 10.5.7 16.8 2.3 16.8 2.3-1.6-2.3-3.5-3.9-5.4-5.4-3.8-3-8-4.8-11.7-6.4l-4.2-1.6c-.9-.3-1.9-.6-2.5-.6 2-.4 3.5-.7 5-.7l5.5-.6c15-1.3 28.3 0 38.1 1.6 11.8 2.2 19 5 19 5-1.5-3.1-4-6-6.9-8.5-2-1.6-4.1-3.2-6-4.5a188.4 188.4 0 0135.3 12.4l5.6 2.9c.7.3 1 .6 1.3.6 5.7 3.2 9 5.4 9 5.4a24 24 0 00-5.5-9.5l-1.9-2.2h.3c.3 0 .7.3 1.3.3a115.6 115.6 0 0112.4 5.4c.3 0 .3.3.6.3l2 1c1.5 1 3.1 1.6 4.7 2.8l4.8 2.9 2.5 1.6c1.6 1.3 3.5 2.5 5 4.1 2 1.6 3.6 3.2 5.2 4.8l1 1c1.2 1.2 2.5 2.5 3.4 3.8a66.6 66.6 0 0111.8 20.7l5-5.4c18.5-21.7 73.8-91.7 40.4-134.4" fill="#132134"/><path d="M838 680.3s.7-4.8-1.9-9.2c0-.4-.3-.7-.3-.7l-.3-.3-1-1a13.8 13.8 0 00-3.8-2.8c-1.6-.6-3.1-1.3-5.4-1.6-1.6-.3-3.1-.3-5-.3h-2.6v.6c0 .3.3.7.3 1.3 0 .3 0 .6.3.6.4 1 .7 2.6 1 3.8 0 0 0 .4-.3 1v.3c-1 2.2-3.5 7.3-9.2 13.7l-3.2 3.5c-15.9 16.5-50.2 39.7-122.6 52.7a247.8 247.8 0 01-66.3 1.3c-28.6-3.5-49.9-12.7-60-25.1-1-1-1.6-2.3-2.6-3.2l-1.6-2.5c-.3-.4-.3-.7-.6-1a50 50 0 01-6-23.8c0-9.9 3.1-19 8.2-26a30.6 30.6 0 0126.4-13.4c.6 0 1.5 0 2.8.3 2.2.3 5.7.6 9.9 1.3a338.8 338.8 0 0062.6 2.5 268 268 0 00167-69.2v-.3c.3-4.5-.4-12.1-5.8-18.1-1-1-1.9-2-3.2-2.9-.6-.6-1.5-1-2.2-1.6-1-.3-1.6-1-2.2-1.3l-2.9-1.9v-.3c-.3-.6-.6-1.2-1.2-1.9-14.6-22.2-35-35.2-43.2-41.3a46.7 46.7 0 00-6.4-4.1c-17.4-10.8-20-14.3-18.4-43.2l2.9-42.9c0-2.5.3-4.7.3-7v-9.2c0-1.6-.3-3.1-.3-4.4 0-.7 0-1.3-.3-2-.4-1.5-.4-3.1-.7-4.7l-.3-2.2c0-1-.3-1.6-.6-2.6-.3-.6-.3-1.5-.7-2.2-.3-1-.6-1.9-.6-2.8 0-.4-.3-.7-.3-1 0-.3-.3-.6-.3-1v-.3l-.3-1c-.4-.5-.7-1.2-.7-1.8v-.3l-.3-.7-.3-.6c-.7-1.3-1-2.5-1.6-3.5l-.3-1c-.7-.9-1.3-2.2-2-3.1l-.2-.3-.4-.4-1.5-1.9-.7-1c-.6-.9-1.3-1.5-1.9-2.1v-2.6l-1-4.4-.3-1.3v-.3c0-.7-.3-1-.3-1.6a18 18 0 00-1.2-3.8l-.4-1.3-1-2.8c-.2-.7-.2-1.3-.6-1.6-.3-1-.6-2-1.2-2.9l-1-1.9c-.3-1-1-2-1.2-2.9l-1-1.9-1.6-2.8-1-2c-.6-.9-1.2-1.8-1.8-3.1l-1-1.6c-.3-.3-.6-1-1-1.3-.9-1-1.5-1.9-2.5-2.8l-.6-.3c-1.3-1.3-2.2-2.6-3.5-3.5l-.3-.4c-.7-.3-1.3-.9-1.6-1.2h-.3c-.7-.3-1-.7-1.6-1l-.3-.3c-.7-.3-1.6-1-2.9-1.6-.3-.3-1-.3-1.6-.6-2.8-1-6.3-2.2-10.8-3.5-.3 0-.6 0-1-.3-3.4-1-7.6-2-12-2.6l-4.5-.6c-.6 0-1.2 0-2.2-.3h-1c-3.4-.3-6.6-.7-10-.7h-.4c-4.5 0-8.9.4-13 1.3 1-1.6 3.8-3.5 6.3-5 3.5-2 6.7-3.2 6.7-3.2-2 0-3.8.3-5.7.6-.7 0-1.3.3-2 .3-.2 0-.9 0-1.2.3h-.3c-.3 0-.6 0-1 .3a164 164 0 00-24.7 8l-2 1h-.3c-.6 0-1 0-1.5.3a28.1 28.1 0 0114-13c.6-.4 1.5-.7 2.1-1 .4 0 .4 0 .7-.3.6-.4 1.3-.4 1.6-.7 1-.3 1.6-.3 1.6-.3h-5.1a75.7 75.7 0 00-29 9.5c-5.6 3.2-10.7 6.7-15.2 10.2-1.2.3-2.2.6-3.5.6a436.2 436.2 0 00-56.2 15.6l-12.7 4.8-9.2 3.8c-21.9 9.8-43.8 22.8-61.9 40.3l-1.9 2-4.8 4.7-1.9 1.9a129.7 129.7 0 00-18.4 25l-.3.4c-4.1 7.3-8 15-10.8 23.5-1.6 4.1-2.8 8.6-4.1 13l-1 3.5-.3.7c-1.3 4.7-2.2 9.8-2.8 14.9 0 1-.4 1.9-.4 3.2-.3 2.5-.6 5-.6 7.9-.3 2.5-.3 4.8-.3 7.3v9.8c0 3 0 5.8.3 8.6v.3c0 2.9.3 5.8.6 9 0 1.2.4 2.5.4 3.7v1c0 .6 0 1.3.3 2.2.3 3.2 1 6.7 1.2 10.2 0 1 .4 1.9.4 2.8.6 2.9 1 6 1.5 9 0 0-.6-3.9-.3-9.6l.3-4.1c.4-3.2 1-7 2.3-10.5l1-2.9c0-.3.2-.6.6-1.2a38 38 0 012.5-5.1c.3 1.3.3 2.5.6 3.5v16.8c.3 10.8 1.3 23.8 3.5 35 0 0 .3-20 3.8-22.6 0 0 6 37.5 11.5 51.5.6 1.9 1.6 3.1 2.2 4v-3.7l-.6-20.7v-2.2c4 8.6 8.8 17.2 14.2 26.4 1.6 2.5 2.9 5 4.5 7.6-10.2 8.9-19.7 21.9-26.7 37.1l-3.2 7.7-1.5 4.4-.4 1.3-1 3.2-.2 1.6-1 3.1c0 .7-.3 1-.3 1.6l-1 4.8c-.3 1.6-.6 3.2-.6 4.7 0 .7 0 1-.3 1.6 0 1.3-.3 2.3-.3 3.5 0 .7 0 1.3-.3 2 0 1.2-.4 2.2-.4 3.4v11.1c0 1.3 0 2.6.4 4.2v1c0 1.5.3 3.1.6 5 0 .6 0 1 .3 1.6 0 1.3.3 2.2.6 3.5 0 .6.4 1.3.4 1.9.3 1 .3 2.2.6 3.2 0 .6.3 1.2.3 1.9.3 1 .6 1.9.6 3.2.4.6.4 1.2.7 2.2l1 3.2c.3.6.3 1.2.6 1.9.3 1 .6 2.2 1 3.1.2.7.2 1.3.6 2 .3 1.2 1 2.5 1.2 3.4.3.7.3 1 .7 1.6l4.7 10.5 1 1.6 1.9 3.8c.3.6.6 1.3 1.3 2 .6.9 1.2 2.1 1.9 3 .3.7 1 1.4 1.2 2 .7 1 1.3 2.2 2.3 3.2.6.6 1 1.2 1.5 2.2l2.3 3.2c.6.6 1 1.2 1.6 2.2.9 1 1.5 2.2 2.5 3.2l1.6 1.9 3.2 3.5 1.5 1.6c1.6 1.5 3.2 3.4 4.8 5 0 0-1-1.2-2.2-3.8-.3-.3-.7-1-.7-1.6l-1-1.9-.9-2.2c-2.5-5.7-4.7-14-4.4-22.9l2.9 3.8 4 8.3c.7 1 1.4 2.2 1.7 3.2 2.5 4.4 5 9.5 8.2 14.3 3.8 6 7.6 11.7 11.8 17.1 0 0-4.8-10.1-6.4-16.8-.3-2-.6-3.5-.3-4.5.3.4.6 1 1.3 1.3.3.3.6 1 1.2 1.3l2.9 3.8.6.6c.7.7 1 1.6 1.6 2.3.7 1 1.3 1.9 2.3 2.8 6.6 8.6 15.8 20 22.2 26 2.2 2 4.1 3.6 5.4 4.2l-9.2-16.5c21 17.1 108 39 193.3 14.6 10.5-2.9 20.7-6.7 30.8-11.1 6-2.6 12.1-5.7 18.1-9l1-.6c4.1-2.2 8.3-4.7 12.4-7.3 3.2-1.9 6.3-4.1 9.2-6a238.2 238.2 0 0015.2-11.4 177.7 177.7 0 0029.8-31.8l.4-.3c1.3-1.6 2.2-2.9 3.2-4.5l.3-.3 1-1.6 4.4-6.3c.3-.7.6-1 1-1.6.6-1.3 1.2-2.2 2.2-3.5l1.6-2.5c.6-1 1.2-2 1.5-2.9l2.9-5 1-2 1.9-3.8 1-1.9.2-.6 2.3-4.8v-.3c2.8-2.6 4.7-5.1 6.6-7.3.3-.3.7-.7.7-1 1.9-6 3.1-10.8 3.1-15.2m-510.9-61.6c0-.4 0-.7-.3-1.3-1-5.4-2-11.1-2.2-16.8v-1.3c-1 .3-2 1.6-3.2 3.2-.3.6-1 1.2-1.3 2.2-2.8 5.4-5.4 13-5.4 13 .3-2.5.7-5 .7-7.6v-1l1-8v-.9c.2-3.1.9-6 1.5-8.9 0-.3 0-.6.3-1.2v-.3c0-.4 0-.7.3-1 0-.6.4-1 .4-1.6.3-2.2 1-4.4 1.2-6.7l1-5.4v-.6c0-.3 0-.6.3-.6v-.7l.3-1.2c0-.3 0-.7.3-1 0-.6.3-1.3.3-1.6l.4-1.2c0-.7.3-1.3.3-1.6 0-.3 0-.7.3-1 0-.3 0-.6.3-.6 0-.7.3-1 .3-1.3v-1l-.6.7c-.6.3-1 1-1.6 1.3l-.6.6c-.7.6-1.3 1.3-1.6 1.9l-.3.3-2 2.9-.2.3c0 .3-.4.3-.4.6l-1 2v.6c-.2 1-.9 1.9-1.2 2.8-1 2.6-1.9 5.1-2.5 7.3-.3.7-.3 1.6-.7 2l-.6 2.8v.3-.3c0-1 0-1.6.3-2.5l.3-5.1c0-1.3.4-2.9.7-4.1 0-.4 0-1 .3-1.3 0-.7.3-1.3.3-2l.3-1.8v-1l.3-2.2v-2.2c0-.3 0-.7.4-1 .3-1 .6-2.2.6-3.2v-.3c.3-.6.3-1.6.6-2.2v-.3c.3-1.6 1-3.2 1.3-4.8v-.6c0-.3 0-.7.3-1l2.2-7.3v-.3l2.3-6v-.3l1-2.6 1.5-3.8c0-.3.3-1 1-2.2.3-.3.3-1 .6-1.3l1-2.2.3-.6 5.4-9.9c.3-.3.3-1 .6-1.3v-.3l.3-.6 2-3.2c.9-1.6 1.5-3.2 2.5-4.4 1.5-2.9 2.8-5.4 3.8-6.7.3-1 .6-1.3 1-1.6-.4 0-2-1.3-4.5-2.9-3.2-1.9-7.6-4.4-13-7-2-.9-3.5-1.5-5.4-2.5-2.3-1-4.8-1.9-7.3-2.8-.7-.4-1.3-.4-2-.7l-6.3-1.9c-1.6-.3-3.2-.6-4.4-1l-3.9-.6c-.6 0-1.2 0-1.9-.3-.6 0-1.2 0-1.9-.3l-5-.3h-2.6c-3.8 0-7.3.3-10.8 1h-.6c-6.4.9-12.4 2.5-18.4 4.7-2 .6-3.8 1.6-6 2.5-.7.3-1 .7-1.7.7l-1.9 1a89.8 89.8 0 00-16.2 10.7h-.3a82.2 82.2 0 00-11.7 11.8l-2.9 3.8c-1.3 1.6-2.2 3.2-3.2 4.7-1.9 2.9-3.8 6-5.4 9.3-.6 1.2-1.2 2.2-1.5 3.4 0 .4-.4.4-.4.7a87.7 87.7 0 00-6.6 24.1c-.3 1.6-.3 3.2-.7 5.1v.6c0 1.3-.3 2.6-.3 4.2v5.7c0 1.3 0 2.5.3 3.8v1.6c0 1 .4 1.9.4 2.8v.4c0 .6 0 1 .3 1.6 0 .9.3 1.9.3 2.5l.3 1.9.6 2.5c0 .7.4 1.3.7 2v.3l.3.6v.6l.3.7c.3.6.3 1.2.6 1.9.4.6.4 1.6.7 2.2.3.6.6 1.3.6 2.2l.3.7c.4.6.4 1 .7 1.5l1 2.3.9 1.9c.3.3.3.6.6 1 .3.2.3.6.6.9l1 1.9c.3.6.6 1.6 1.3 2.2a7 7 0 001 1.6c.2.6.9 1.6 1.2 2.2.3.7.6 1 1 1.6.3.6.9 1.6 1.5 2.2.3.7.7 1 1 1.3.6.6 1 1.6 1.6 2.2.3.3.6 1 1 1.3l1.8 2.2c.3.3.7.7 1 1.3.6.6 1.2 1.6 1.9 2.2l1 1c.6.6 1.2 1.6 2.2 2.2l1 1 2.1 2.2c.4.3.7.6 1 .6l2.5 2.2c.3.3.7.3 1 .7 1 .6 1.6 1.2 2.5 1.9.3.3.7.3.7.6l2.8 1.9.6.3 3 2 .5.2c1 .7 2.3 1.3 3.2 2l.7.3 3.1 1.6.7.3 3.5 1.6.3.3c1.2.6 2.5 1 3.5 1.6h.3c1.3.3 2.5 1 3.8 1.2h.3c.6.4 1.3.4 2 .7.6.3 1.2.3 2.1.6h.4l4 1c1.4.3 3 .6 4.2.6 4.5.6 8.9 1 13.4 1.3h3.1c1.6 0 2.9 0 4.5-.4 1.9-.3 4.1-.3 6.3-.6a62.6 62.6 0 0013.7-3.2 57 57 0 0019.7-8.9s-2.9-12.7-5.1-25.4c-.7-.6-1-1.9-1.3-3.1" fill="#90694C"/><path d="M531 146.1l-.9-12.7 6.4-14 2.5-.7c-4.1-1.9-9.2-3.1-15-4-11.4-1.7-26 0-42.5 4s-35.2 11.5-55 21.4a567.8 567.8 0 00-126 88.8 630.6 630.6 0 00-75 81.2 373.9 373.9 0 00-46.3 76.8c-6.7 15.6-10.8 29.9-12.4 42.3-1.3 9-1 16.9.6 23.3l2 5.7c1.5 3.8 3.4 7 6 9.9l25.7 27 2.8 2.9.4-.3a9.7 9.7 0 012.5-2.6l.3-.3 1-1c.6-.9 1.6-1.5 2.2-2.5.6-.6 1-1 1.6-1.3.6-.3 1-1 1.6-1.2l.6-.7c.6-.3 1-1 1.6-1.2.6-.7 1.6-1.3 2.2-2 .3-.3 1-.6 1.3-1h.3c1-.5 1.6-1.2 2.5-1.8.7-.3 1-.7 1.6-1.3 1-.6 1.6-1.3 2.6-2 .6-.2 1-.5 1.6-.9l2.8-1.6c.7-.3 1-.6 1.6-1 1-.5 2-.9 2.9-1.5l1.6-1 .6-.3c6-16.9 15.2-35.6 27.3-54.7a531.4 531.4 0 0155.6-73.3 674.9 674.9 0 01110.5-98.4 561.3 561.3 0 0142.9-27.4c1.2-.6 2.5-1.6 4.1-2.2a191 191 0 0111.1-6c8-4.2 15.9-8 23.5-11.2l-3.8-4.4-.6-.7-4.8-5.4-26.3-31.8.3-23-.3-.3 18.7-5.7L531 146" fill="#2F83C1"/><path d="M838 679.4s.7-4.7-1.9-9.2c0-.3-.3-.6-.3-.6l-.3-.3-1-1c-.6-.6-1.2-1.2-2.2-1.9l-1.6-1c-1.6-.6-3.1-1.2-5.4-1.5-1.6-.3-3.1-.3-5-.3h-2.6v.6c0 .3.3.6.3 1.3 0 .3 0 .6.3.6.4 1 .7 2.5 1 3.8l-.3 1v.3c-1 2.2-3.5 7.3-9.2 13.6-1 1.3-2 2.2-3.2 3.5C790.7 704.8 756.4 728 684 741a248 248 0 01-66.3 1.3c-28.6-3.5-49.9-12.7-60-25.1-1-1-1.6-2.2-2.6-3.2l-1.5-2.5c-.4-.3-.4-.7-.7-1a50 50 0 01-6-23.8c0-9.8 3.2-19 8.2-26a30.6 30.6 0 0126.4-13.3c.6 0 1.6 0 2.9.3 2.2.3 5.7.6 9.8 1.3a339 339 0 0062.5 2.5 268.1 268.1 0 00167-69.2v-.3c.4-4.4-.3-12-5.7-18-1-1-1.9-2-3.1-3-.7-.6-1.6-.9-2.3-1.5-1-.3-1.6-1-2.2-1.3l-2.8-1.9v-.3c-.4-.6-.7-1.3-1.3-1.9-14.6-22.2-35-35.2-43.2-41.3-3.8-2.8-6.3-4-6.3-4-17.5-10.9-20-14.4-18.5-43.2l2.9-42.9c0-2.5.3-4.7.3-7v-9.1c0-1.6-.3-3.2-.3-4.5 0-.6 0-1.3-.3-1.9-.3-1.6-.3-3.2-.7-4.8l-.3-2.2c0-1-.3-1.6-.6-2.5-.3-.6-.3-1.6-.6-2.2-.4-1-.7-2-.7-2.9 0-.3-.3-.6-.3-1l-.3-.9v-.3l-.3-1c-.4-.6-.7-1.2-.7-1.9v-.3l-.3-.6-.3-.7c-.6-1.2-1-2.5-1.6-3.4l-.3-1-2-3.2-.2-.3-.3-.3c-.7-.6-1-1.3-1.6-1.9l-.7-1c-.6-1-1.2-1.5-1.9-2.2l-2.5-2.5c-1-.7-2-1.3-2.9-1.6-.3-.3-.6-.3-1-.3l-1.8-1-1-.3c-.6-.3-1.3-.3-1.6-.6-.3 0-.6-.3-1.2-.3s-1-.4-1.6-.4h-7c-.3 0-.6 0-1 .4-.3 0-.6 0-1 .3-.6 0-1.2.3-2.1.6h-.7l-5.4 2-.6.2-2.2 1-1 .3-1.9 1-1 .6-1.8 1-1 .6c-.6.3-1.3 1-1.9 1.2l-.6.4c-.7.6-1.6 1-2.3 1.5l-.3.4c-1 .6-1.6 1.2-2.5 1.6-1.6.9-3.2 2.2-4.8 3.1-1.3 1-2.5 2-4.1 2.9l-.6.3a29 29 0 01-4.2 2.5l-.6.4c-1.3 1-2.9 1.5-4.1 2.5l-.7.3c-1.2 1-2.8 1.6-4.4 2.2l-.6.3-4.5 2-.6.3-4.8 1.6h-.3l-5 1a83.5 83.5 0 01-23.6-.4l-4.7-1c-.7 0-1.3-.3-1.6-.3l-12.7-2.8c-2-.4-3.5-1-5.4-1.3l-9-2-1.5-.2-1.3-.3c-.6 0-1.2-.4-1.9-.4s-1.3-.3-1.9-.3h-.6c-.7 0-1.3-.3-1.6-.3a16 16 0 00-4.1-.6c-.4 0-1 0-1.3-.3-1 0-2-.4-2.9-.4-.6 0-1 0-1.6-.3-.9 0-1.5-.3-2.5-.3h-14.6c-1.6 0-2.9.3-4.4.3h-1.3c-1 0-2 .3-2.9.3h-.3c-.6 0-1 .4-1.6.4-1 .3-1.9.3-2.8.6-.7 0-1.3.3-1.6.3-1 .3-2 .6-2.9.6-.6 0-1 .4-1.6.7-1 .3-2.2.6-3.1 1-.7.2-1 .2-1.3.6-1.6.6-3.2 1.2-4.5 1.9-12 7-22.5 16.5-30.4 27.3-2.9 3.8-5.4 7.6-7.7 11.4-2.5 4.1-4.4 8.5-6.3 13l-1.6 3.8c-.6 2.2-1.6 4.4-2.2 6.7 0 .3 0 .6-.3.6l-2 8a74 74 0 00-1.2 8.2c-.3 1.6-.3 2.8-.3 4.4a76.4 76.4 0 000 12v1a79.6 79.6 0 001.6 11.7c.3 1 .6 2 .6 3.2.3 1 .3 2 .6 2.9 2 7.3 4.8 14 8.3 19.7a112 112 0 0050.5 43.4c6 2.6 12.4 5.1 19 7.3l-.6.7-4.1 1a212.6 212.6 0 00-18.8 6.6 126.2 126.2 0 00-31.7 18.4l-3.8 3.2a54.1 54.1 0 00-6 6l-.7.6-1 1c-.6 1-1.5 1.6-2.2 2.5l-1 1c-.9 1.2-1.8 2.5-2.5 3.8-1 1.2-1.6 2.5-2.5 3.8a67 67 0 00-8.6 38.4v-.7c0-.3 0-.6.3-1v-.2c0-.3.4-.7.4-1.3v-.3c0-.3.3-1 .3-1.6 0-.6.3-1 .6-1.6v-.3c.3-.6.3-1.3.6-2v-.2c.4-.7.4-1.3.7-2v-.2l1-2.3.2-.3c.4-.6.7-1.6 1.3-2.2l2-3.5.9-1.3.3-.3 1.9-2.8 1.9-2.3.6-.6c.7-.6 1-1.3 1.6-1.6l.7-.6c.6-.7 1.5-1.3 2.2-2.2 0 0-13.7 31-7.6 55.5v-4.8c0-.6 0-1.2.3-1.9 0-.6 0-1.2.3-1.9v-.3l.3-2.2v-.7l.6-2.5v-.3c.4-1 .7-2 .7-2.5 0-.4.3-.7.3-1l.3-.6 1-2.3c.3-1 1-1.9 1.6-2.8 0-.3.3-.6.3-.6l1.9-2.9s-.7 7.6-.7 16.8c0 1.6 0 2.9.4 4.5 0 1 0 1.9.3 2.8a125.2 125.2 0 01.3 19.4c1 11 3.8 23.1 8.6 35.5 0 0-4.5-14.3 1.9-28.5l1.9 3.8c.6 4 1.3 10.1 2.5 16.8 1.3 11 6.4 44.4 29.2 67.6 0 0-8.5-11.1-7.3-25.4 1 1.9 2 3.5 2.6 5 3.8 7.4 11.4 20.7 20 30.2 0 0-6.7-13-5.1-15.9 0 0 22.2 27.6 29.2 30.2l-9.2-15.3-.3-.3c32 23.5 76.5 32 131.1 16.8 9.5-2.5 19-6 29.2-10.1 6-2.5 12-5.7 18.1-8.9l1-.6c4-2.2 8.2-4.8 12.3-7.3l9.3-6a238 238 0 0015.2-11.5c.3-.3.6-.6 1-.6a177.5 177.5 0 0028.8-31.1l.4-.3c1.2-1.6 2.2-2.9 3.1-4.5l.3-.3 1-1.6 4.4-6.3 1-1.6c.6-1.3 1.3-2.2 2.2-3.5l1.6-2.5c.6-1 1.3-2 1.6-2.9 1-1.6 1.9-3.5 2.9-5l.9-2 2-3.8.9-1.9.3-.6c.6-1.6 1.6-3.2 2.2-4.8v-.3c2.9-2.5 4.8-5 6.7-7.3.3-.3.6-.6.6-1 2.9-4 4.1-8.8 4.1-13.3m-513.4-80.9c-1 .3-1.9 1.6-3.1 3.2-.4.6-1 1.3-1.3 2.2-2.9 5.4-5.4 13-5.4 13 .3-2.5.6-5 .6-7.6v-1l1-7.9v-1c.3-3.1 1-6 1.6-8.8 0-.3 0-.6.3-1.3v-.3c0-.3 0-.6.3-1 0-.6.3-.9.3-1.5.3-2.3 1-4.5 1.3-6.7.3-1.9.6-3.8 1-5.4v-.6c0-.3 0-.7.3-.7v-.6l.3-1.3c0-.3 0-.6.3-1 0-.6.3-1.2.3-1.5l.3-1.3c0-.6.3-1.2.3-1.6 0-.3 0-.6.4-1 0-.2 0-.5.3-.5 0-.7.3-1 .3-1.3v-1l-.6.7c-.7.3-1 1-1.6 1.2l-.7.7c-.6.6-1.2 1.2-1.5 1.9l-.4.3-1.9 2.8-.3.4c0 .3-.3.3-.3.6l-1 1.9v.6c-.3 1-1 2-1.2 2.9-1 2.5-2 5-2.6 7.3-.3.6-.3 1.6-.6 1.9l-.6 2.8v.4-.4c0-.9 0-1.5.3-2.5l.3-5c0-1.3.3-3 .6-4.2 0-.3 0-1 .4-1.3 0-.6.3-1.2.3-1.9 0-.6.3-1.2.3-1.9v-1l.3-2.1v-2.3c0-.3 0-.6.3-1 .3-.9.7-2.1.7-3v-.4c.3-.6.3-1.6.6-2.2v-.3c.3-1.6 1-3.2 1.3-4.8v-.6c0-.4 0-.7.3-1 .6-2.5 1.6-5 2.2-7.3v-.3c.6-2 1.6-4.1 2.2-6v-.3l1-2.6 1.6-3.8c0-.3.3-1 1-2.2.2-.3.2-1 .6-1.3l1-2.2.2-.6c-.3-.4-1-.4-1.2-.7h-.4l-.6-.3c-2.9-1.3-6-2.5-9.2-3.5h-.6a45 45 0 00-6.4-1.3c-1.3 0-2.5-.3-3.8-.3h-3.2c-1.6 0-3.2.3-4.7.3-.7 0-1 0-1.6.4l-2.2.3c-.4 0-.7 0-1 .3-.6 0-1 .3-1.6.3l-3.2 1-1.2.3-4.2 1.6c-.6.3-1 .6-1.5.6l-2 1-.6.3c-.6.3-1.3.6-1.9 1.2-.6.4-1.3.7-1.9 1.3l-1.9 1.3c-.3.3-1 .6-1.3 1-1 .9-2.2 1.8-3.1 2.8l-1.6 1.6c-1 1-1.6 1.9-2.6 2.8l-.3.4c-.3.6-1 .9-1.3 1.5l-1 1a56 56 0 00-4.4 7.3c-.3.3-.3.6-.6 1l-1.6 3.7-.6 1.6c-.3 1.3-1 2.6-1.3 4.2v1.2c-.3 1-.3 2-.6 2.9 0 .6 0 1-.3 1.6 0 .6 0 1-.4 1.6v1.2c0 1.6-.3 3.2 0 4.8 0 1.3 0 2.5.4 3.8v.6c0 .7.3 1.3.3 2 .3 2.5 1 4.7 1.6 7.2a47.9 47.9 0 006.7 14 50.4 50.4 0 0037 22.2c1 0 2 .3 2.6.3h4.1l3.9-.3c.6 0 1.5 0 2.2-.3l5.4-1h.3c.6-.3 1.3-.3 2.2-.6 2.2-.6 4.5-1.6 6.4-2.5l.3-.4c.6-.3 1.3-.6 1.6-.6-1-5.4-2-11.1-2.2-16.8 1.5-.6 1.5-1 1.5-1.3" fill="#FCE9CD"/><path d="M539 150.2l1 .6-1-.6z" fill="#4D9ED7"/><path d="M817.7 667.4c0-.4 0-.7-.3-.7-.4-.6-.4-1-.4-1.3-1.5-5-3.4-8.9-5.3-11.7-2.3-3.5-4.2-5.4-4.2-5.4l1-3.9a46.1 46.1 0 00-4.4-32.4l-5.4 3.8a275.5 275.5 0 01-114 44.6 326.3 326.3 0 01-90 1l.6.2s-19 2.6-24 20.7l.3.3-1.6 12.1c.6 16.6 8 26.7 16.5 32.1 8.8 3.5 19.6 6 31.6 7.7 20.6 2.5 44.7 1.9 68.8-2 32.3-4.4 77.9-21.6 110.5-43.8 7.3-5.1 14.3-10.5 20-16l.3-.3.3-.3c0-2.2-.3-3.5-.3-4.7" fill="#FFF"/><g fill="#F2D2AC"><path d="M756.5 510.3C739 499.5 736.5 496 738 467l2.8-43c0-2.5.3-4.7.3-7V408c0-1.6-.3-3.2-.3-4.5 0-.6 0-1.3-.3-1.9l-.6-4.8c0-.6-.4-1.6-.4-2.2 0-1-.3-1.6-.6-2.5-.3-.7-.3-1.6-.6-2.3-2.6-3.8-5.4-7-9-9.8l-.5-.7-.7-.3h-.3l-1.6-1a46 46 0 00-18.7-7c-3.5-.6-7-.6-10.5-.6l-5 .3c-4.5.7-9 1.6-13.7 2.9l-4.8 3.2c-1.3 1-2.5 1.9-4.1 2.8l-.6.4a29 29 0 01-4.2 2.5l-.6.3c-1.3 1-2.9 1.6-4.1 2.6l-.7.3c-1.2 1-2.8 1.6-4.4 2.2l-.6.3-4.5 2-.6.3-4.8 1.6h-.3l-5 1a83.5 83.5 0 01-23.6-.4l-4.7-1c-.7 0-1.3-.3-1.6-.3l-12.7-2.8c-2-.4-3.5-1-5.4-1.3l-8.9-2-1.6-.2c-2.5 0-5 .3-7.3.6h-.6c-7.3 1-14.3 2.5-21.6 5-.3 0-.6.4-1.3.4-1.2.3-2.2 1-3.5 1.3l-4.4 1.9A120 120 0 00512 413a140.9 140.9 0 00-24.4 27.4c-.3.2-.3.6-.6.9a78.8 78.8 0 00-5.7 9.8c-.7 1.3-1.3 2.6-2 3.5v.4c-1.9 4-3.4 7.9-4.7 12 0 .4 0 .7-.3.7-.3.6-.3 1.2-.7 1.9-.6 1.9-1.2 3.8-1.5 5.7-.7 2-1 3.8-1.3 6l-.3 1.3c-.4 1.3-.4 2.6-.7 3.5-.6 4.5-1 9-1.2 13.4v3.2c1.9 7.3 4.7 14 8.2 19.7 13 22.6 34.6 36.3 50.5 43.6 6 2.5 12.4 5 19 7.3l.3.3.4-.3c1-.6 1.6-1.3 2.5-1.9.3-.3.6-.3 1-.6l2.8-2c.3-.3.6-.3 1-.6l2.8-1.9c.3-.3.7-.3 1-.6l3.1-2c.4-.3.7-.3 1-.6l3.2-1.9c.3-.3.6-.3 1-.6.9-.7 2.1-1.3 3.1-2 .3-.2 1-.2 1.3-.6 1-.6 2.2-1.2 3.1-1.9.4-.3 1-.6 1.3-.6l3.5-2c.6-.2 1-.6 1.6-.6 1.3-.6 2.2-1.2 3.5-1.5.6-.4 1-.7 1.6-.7l3.5-1.6 1.9-1 3.5-1.5c.6-.3 1.2-.7 2.2-1 1.3-.3 2.2-1 3.5-1.2.6-.4 1.6-.7 2.2-1 1.3-.3 2.2-1 3.5-1.3l2.5-1c1.3-.2 2.2-.9 3.5-1.2l2.9-1c1-.3 2.2-.6 3.1-1.2l3.2-1 3.2-1 3.5-.9 3.2-1c1.2-.3 2.5-.6 4-1.2.7-.3 1.4-.3 2-.7 5-13 20.6-45.4 47-49 2.8-.3 5.4-.6 8-.6h1.8c-.3-1.9-.6-3.8-.6-6-1-14 3.5-25.8 9.5-26.1 4.8-.3 8.6 6.7 9.2 8.9 2 4.1 3.2 9.5 3.5 15.6a56 56 0 01-1.3 15c.7.6 1 1.2 1.6 1.5 6 7.7 7 17.8 6.7 25.5 2.2-.3 4.7-.3 7.3-.7.6 0 1.3 0 1.9-.3h1.3c2.8-.3 6-.6 9.2-.6 7-.7 14-1 21.2-1.3l-6.6-3.5m66.3 196a196.5 196.5 0 01-53.3 33.7 236 236 0 01-36.5 12.4c-24.5 6-41.3 6-41.3 6 13.3 7.4 30.2 7.4 41.6 6.4 8-.6 13.3-2.2 13.3-2.2-.3 4.8-1 9.2-1.6 13.7-1 4.8-2.2 9-3.8 12.7v.3c-1.9 4.8-4.4 9-7 12.8-.3.3-.6 1-1 1.2l1-.6c4.2-2.2 8.3-4.8 12.4-7.3l9.2-6a238.2 238.2 0 0015.3-11.5c.3-.3.6-.6 1-.6a177.8 177.8 0 0028.8-31.2l.3-.3c1.3-1.6 2.2-3 3.2-4.5l.3-.3c.3-.7.7-1 1-1.6l4.4-6.4 1-1.6c.6-1.2 1.2-2.2 2.2-3.5l1.6-2.5 1.6-2.9 2.8-5 1-2 1.9-3.8 1-1.9.2-.6 2.3-4.8c-1.3.3-2 1-2.9 2M533.3 578c-3.2 1-7 2.5-10.8 4.1a126.2 126.2 0 00-31.7 18.5l-3.8 3.2a54.2 54.2 0 00-6 6l-.7.6-1 1c-.6 1-1.5 1.6-2.2 2.5l-1 1c-.9 1.3-1.8 2.5-2.5 3.8-1 1.3-1.5 2.6-2.5 3.8a67.3 67.3 0 00-8.6 38.5v-.6c0-.3 0-.6.3-1v-.3c0-.3.4-.6.4-1.3v-.3c0-.3.3-1 .3-1.6 0-.6.3-1 .6-1.6v-.3c.3-.6.3-1.2.6-1.9v-.3c.4-.6.4-1.3.7-2v-.2l1-2.3.3-.3c.3-.6.6-1.6 1.2-2.2l2-3.5.9-1.3.3-.3 1.9-2.9 2-2.2.5-.6c.7-.7 1-1.3 1.6-1.6l.7-.6c.6-.7 1.6-1.3 2.2-2.3 0 0-13.7 31.2-7.6 55.7v-4.8c0-.6 0-1.2.3-1.9 0-.6 0-1.3.3-1.9v-.3l.3-2.2v-.7c.3-1 .3-1.6.7-2.5v-.3c.3-1 .6-2 .6-2.6 0-.3.3-.6.3-1l.3-.6 1-2.2c.3-1 1-1.9 1.6-2.9 0-.3.3-.6.3-.6l1.9-2.9s-.6 7.7-.6 17c0 1.5 0 2.8.3 4.4 0 1 0 1.9.3 2.8.6-9.8 2.5-19 5-27.7.7-2.2 1.7-4.7 2.3-7 0-.3.3-.6.3-1 1-2.1 1.6-4 2.5-6.3.4-.3.4-.6.7-1.2l2.8-6c.4-.4.4-.7.4-1 2.2-4.2 4.4-8 6.6-11.5l.7-1c1-1.2 1.9-2.5 2.8-4 .3-.4.3-.7.6-1l.7-1c1.3-1.6 2.2-3.2 3.5-4.8.3-.3.3-.6.6-.6 1.3-1.6 2.5-3.2 3.8-4.5l4.8-5.4c1.2-1.2 2.2-2.5 3.5-3.5l1.2-1.2c2.6-2.6 5.1-5.1 7.7-7.4 7-6.3 12.7-10.5 14.6-11.7l-4.2 1c-1.9.9-4.4 1.8-7.6 2.8"/><path d="M716.2 509s0-.6-.4-1.9c-1.2-4.4-5.7-15.2-23.1-13.7a30.7 30.7 0 00-26.4 22c-.3 1-.3 1.6-.3 1.6l.6.3c2.3-1.9 6.7-1.9 10.8 1 2 1.2 3.2 2.5 4.5 4.1 1.6 2.5 1.9 5 1 7l-1 1s.6.3 1.9.6c5 1.6 19.3 4.4 27-5.4.3-.7.6-1 1-1.6-1.7-.6-2.3-2.9-2.3-5.7 0-1.3.3-2.6.6-4.2 1-3.8 3.8-6 6-5m-91.7 136.1c-12 2.6-22.5 4.5-30.5 5.7.4 0 1 0 1.3.4 13.7 1.6 35.2 3.8 61.3 2.2a267.7 267.7 0 00167-69.4v-.3c.3-4.4-.4-12-5.8-18.1-1-1-1.9-2-3.1-2.9-.4 0-.4-.3-.7-.3-1.6-1-2.8-1.6-4.1-2.6l-2.9-1.9v-.3c-3.5 5.1-7.6 9.9-12 14.3a216.7 216.7 0 01-62.9 40.4 557.8 557.8 0 01-107.6 32.8m-301-83c-.5.3-.9 1-1.5 1.2l-.6.7c-.7.6-1.3 1.3-1.6 1.9l-.3.3-2 2.9-.3.3c0 .3-.3.3-.3.6l-1 2v.6c-.2 1-.9 1.9-1.2 2.8-1 2.6-1.9 5.1-2.5 7.4-.4.6-.4 1.5-.7 1.9l-.6 2.8v.3-.3c0-1 0-1.6.3-2.5l.3-5.1c0-1.3.3-2.9.7-4.1 0-.4 0-1 .3-1.3 0-.7.3-1.3.3-2l.3-1.8v-1l.3-2.2v-2.2c0-.4 0-.7.4-1 .3-1 .6-2.2.6-3.2v-.3c.3-.6.3-1.6.6-2.2v-.3c.3-1.6 1-3.2 1.3-4.8v-.7c0-.3 0-.6.3-1 .6-2.5 1.6-5 2.2-7.2v-.3l2.3-6v-.4l1-2.6 1.5-3.8c0-.3.3-1 1-2.2.3-.3.3-1 .6-1.3l1-2.2.3-.6c-.4-.4-1-.4-1.3-.7h-.3l-.7-.3c-2.8-1.3-6-2.5-9.2-3.5h-.6c-2.2-.6-4.1-1-6.4-1.3-1.2 0-2.5-.3-3.8-.3H301l-4.8.3c-.6 0-1 0-1.6.4l-2.2.3c-.3 0-.6 0-1 .3-.6 0-1 .3-1.6.3-1 .3-2.2.6-3.1 1l-1.3.3c-1.3.6-2.9 1-4.1 1.6-.7.3-1 .6-1.6.6l-2 1-.6.3c-.6.3-1.2.6-1.9 1.3-.6.3-1.2.6-1.9 1.2-.6.3-1.2 1-1.9 1.3-.3.3-1 .6-1.2 1l-3.2 2.8-1.6 1.6c-1 1-1.6 2-2.5 2.9l-.4.3c-.3.6-.9 1-1.2 1.6l-1 1a56 56 0 00-4.4 7.3l-.7 1c-.6 1.2-.9 2.5-1.5 3.7l-.7 1.6.3 1 1 3.5v.6l1.3 3.2c1.2 3.2 2.5 6 4 8.6.4.3.4.6.7 1v.3l.3.3c1 1.9 2 3.5 2.9 4.7l3.8 5.1.6.7c0 .3.4.3.4.3l.6.6c0-.6-.3-1.2-.3-1.6-1-4.1-1.3-8-1.3-12v-.7c0-2.5 0-5 .3-7.3l1 2.9c.3 1.2 1 2.5 1.2 3.8v.6c2 5.4 4.2 9.9 6.4 13.4 2.5 4.4 4.8 7.3 6.3 9.2.4.3.7.6.7 1l.6.6c-1-4.5-1.6-8.6-1.6-12.7V577c0-1.9 0-3.5.3-5 .7 2.8 1.6 5.7 2.6 8.2v.3c3.5 9.3 7.6 16 10.5 20l.3.4c.6.6 1 1.3 1.2 1.9.4.3.7.6.7 1l.6.6.3.3v-.6c0-.7-.3-1.3-.3-2l-1-6.3-.3-4.1v-7c0-1.6.4-3.5.4-5.1l1 3.2.9 2.2v.3l.3.3c.3 1 .6 2 1 2.6.6 1.6 1.2 3.1 2.2 4.4 1 2 1.5 3.5 2.5 4.8l1.3 2.2 1.6 2.6c.6.6 1 1.2 1.2 1.9l.3.3c.4.6 1 1 1.3 1.6.3.3.6.6.6 1 .7.6 1 1.2 1.3 1.2l.3.3v-1l1-7.9v-1a74 74 0 011.9-10.1v-.3c0-.4 0-.7.3-1 0-.6.3-1 .3-1.6.3-2.2 1-4.4 1.3-6.7.3-1.9.6-3.8 1-5.4v-.6c0-.3 0-.6.3-.6v-.7l.3-1.3c0-.3 0-.6.3-1l.3-1.5.3-1.3c0-.6.4-1.2.4-1.6 0-.3 0-.6.3-1 0-.2 0-.6.3-.6 0-.6.3-1 .3-1.2v-1l1.6 1m384.7 133c4.5-1.6 8.3-2.9 11.4-4.2 6-2.5 9.2-4.4 9.2-5-.3-.7-3.8-.4-10.1 1.2-3.2.6-7 1.3-11.8 2.6-2.2.6-4.7 1-7.3 1.2-2.5.3-5.3 1-8.2 1.3-5.7 1-12 1.6-19 2.2l-10.5 1c-3.5.3-7.3.3-11.1.6-15.3.3-32.1-.3-49.2-3.5-9-1.6-21.3-5.7-29.9-10.5l-.3-.3c5-18.1 24.1-20.7 24.1-20.7l-.6-.3h-1l-7.3-1c-1.5-.3-2.8-.3-3.8-.6-1 0-1.9-.3-2.2-.3-11.4-.6-17.8 9-19.7 13l-1 2c-1.5 3.8-2.8 8-3.1 12.7a35.4 35.4 0 008.3 25.7c4.4 5.5 12 10.2 21.9 14a37.3 37.3 0 01-16.5-32c9.8 4 20.9 6.6 29.5 8.2 18 3.5 35.8 3.8 51.4 2.9l11.4-1c3.8-.6 7.3-1 10.8-1.3 7-1.2 13-2.2 19-3.5 3-.6 5.8-1.2 8.3-2.2 2.9-.6 5.1-1.3 7.3-2.2"/></g><path d="M693.3 482.1c9.5.3 15.9 3.2 20.3 7.6a53.4 53.4 0 001.3-14.9c-.3-6-1.6-11.4-3.5-15.6-.6-2.5-4.5-9.2-9.2-8.9-6 .3-10.5 12.1-9.6 26.1 0 1.9.4 3.8.7 5.7m15.9 36c0 2.5 1 4.7 2.2 5.7 2.2 1.2 5-1.3 6.4-5.4 0-.4.3-.7.3-1 1-3.8 0-7.6-2.2-8.6-2.3-1.2-5.1 1.3-6.4 5.4 0 1.3-.3 2.6-.3 3.8m-43.3 7c1 1.6 2.6 3.2 4.5 4.5 4.1 2.5 8.6 2.8 11.1.6l1-1c1-1.8.6-4.4-1-7-1-1.5-2.5-3.1-4.5-4-4-2.6-8.5-3-10.8-1-.3.3-.6.6-1 1.3-.9 1.5-.6 4 .7 6.6m153 146.3a151.9 151.9 0 01-20.4 16.2c-32.7 22.2-78.5 39.7-111 43.9a255 255 0 01-69 1.9c-12-1.6-22.6-4.2-31.8-7.7a53.4 53.4 0 01-22-14 37.2 37.2 0 01-5-38.4l1-2c2.2-4 8.2-14 19.7-13 .3 0 1.2 0 2.2.4a219.7 219.7 0 0011.1 1.6h1c31.5 3.8 61.7 3.4 90.3-1a277.5 277.5 0 00114.5-44.5c2-1.3 3.5-2.6 5.4-3.8l18.8-28a267.4 267.4 0 01-167.3 69.6c-26.1 1.6-47.7-.3-61.4-2.2-.6 0-1 0-1.3-.3-4.1-.7-7.3-1-9.8-1.3-1.3 0-2.3-.3-3-.3-3.4-.3-6.9.3-10 1.3-6.4 1.9-12.2 6.3-16.3 12-5 7-8.3 16.6-8.3 26.1a50.1 50.1 0 006 23.8l.7 1 1.6 2.5c.6 1 1.6 2.3 2.5 3.2 9.9 12.4 31.5 21.3 60.2 25.1 19.4 2.6 42 2.3 66.4-1.2 72.5-13 106.9-36.6 122.8-52.8 1.3-1.3 2.2-2.2 3.2-3.5 5.7-6.7 8.2-11.8 9.2-13.7v-.3c.3-.6.3-1 .3-1l-.3.4" fill="#664F44"/><path d="M588 420.1a29 29 0 00-7.3-2.8 151.2 151.2 0 00-5-1c-.7 0-1.3 0-2-.3a72 72 0 00-15.8.6c-1.6.4-3.2.7-4.5 1.3a50.4 50.4 0 00-34.2 34.4c-.3.6-.3 1-.3 1.6-.3 1.6-1 3.2-1.3 4.4a75.8 75.8 0 00-1.3 21.7c2-4.5 4.2-8.3 6.4-12.1 5.4-9.2 11-16.9 17.1-23a85.5 85.5 0 0132-21.3c9.6-3.1 16.2-3.5 16.2-3.5M725.3 404l-.3-.6a21.4 21.4 0 00-4.7-4.5 24.6 24.6 0 00-18.7-2.8s-9.9 2.2-15.6 8.9c0 0 17.1-7.4 35.5 5.7 1.6 1.3 3.5 2.5 5.1 4.1 1.6 1.6 3.5 3.2 5 5.4 0 0-.6-8-5.3-15-.3-.6-.6-.9-1-1.2" fill="#E9B784"/><path d="M590.7 531c6.5-2 13.4-3.8 21.1-5.7 1.3-6 1.6-13.4.7-21.4-2.2-18.5-10.3-32.8-18.4-31.9-8 1-12.7 17-10.6 35.4a63.5 63.5 0 007.2 23.6" fill="#664F44"/><path d="M554 115l-17.3 3.8 3.5 30.8-45.4-23-18.8 5.7.3.3 55.4 62.4.6-.3.6-.3 5.1-3.2c.7-.3 1.3-.6 2-1.2 2.5-1.6 5-3.2 7.6-4.4L524 158.8 562 177l3.5-1.8-3.5-26.8 17.2 19.8h.3c1.6-.6 2.8-1.5 4.4-2.2l.7-.3.6-.3c.3 0 .6-.3.6-.3l2-1s.3 0 .3-.3c1.9-1 4-1.9 6-2.8l-40-46" fill="#FFD250"/><path d="M536.1 119.7v-1 1m0-1l2.6-.6a59.5 59.5 0 00-14.9-4.1c-11.4-1.6-26 0-42.4 4a275.4 275.4 0 00-54.8 21.3 566.2 566.2 0 00-125.8 88.4 627.9 627.9 0 00-41.2 41L311 332A679.4 679.4 0 01422 233.7a519 519 0 0162.4-37.7l-8.8-40.5.3-22.8-.3-.4 18.6-5.7 36.5 18.7-1-12.6 6.3-14" fill="#4D9ED7"/><path d="M536.2 119.3l-6.4 14 1 13 9 4.5-3.6-31.5zM523 159.7l38.6 18.7-14.8 8.3-23.8-27zm38.6-10.5l3.5 27 13.9-7-17.4-20z" fill="#132134"/><path d="M704.4 139.4h7a83 83 0 0119 2.6h.3l.7.3h.6c-.6-.3-1.3-1-2-1.3a84 84 0 00-20-5c-34.2-4.5-73.6 8.2-95.8 17-1.3.7-2.5 1-3.8 1.7-2 1-3.8 1.5-5.7 2.5-3.2 1.3-6.4 2.9-9.9 4.5l-1.5.6-6 2.8s-.4 0-.4.4l-1.9 1-.6.2H583l-.3.4c-1.6.6-2.9 1.2-4.5 2.2h-.3c-.3.3-.6.3-1 .6h-.3c-.3 0-.6.3-.6.3-2.2 1.3-4.4 2.3-6.7 3.5-1.5 1-3.1 1.6-4.7 2.6h-.3l-3.5 1.9c-3.8 1.9-7.3 4.1-11.1 6.3l-1.3.7c-.3.3-.6.3-1 .6-.3.3-.6.3-1 .6l-.2.3-7.7 4.5c-.6.3-1.2.6-1.9 1.3l-5 3.1-.7.4-.6.3-14.3 9.5a612 612 0 00-23.2 16.5l-2.8 2.3a831 831 0 00-57.5 47.6 1126.9 1126.9 0 00-55.6 54.3 760.1 760.1 0 00-24 25.1 211.3 211.3 0 00-20.4 23.5s1.3-1 3.5-3.1l-5.1 6c29.2-31.1 61.3-62.9 95.9-92.8a936.4 936.4 0 0195.6-72.4c3.1-2.2 6.6-4.1 9.8-6.4a73 73 0 018-4.4c1.8-1 3.4-2.2 5.3-3.2 1.6-1 3.5-1.9 5.1-3.2l2.9-1.5 6.6-3.9c1.3-.6 2.6-1.5 3.8-2.2l12.7-6.7c.4-.3.7-.3 1-.6l1.9-1c1-.3 1.6-.9 2.5-1.2.4-.3.7-.3 1-.6l1.9-1s.3 0 .3-.3h.3c2-1 3.8-2 5.4-2.6.3 0 .7-.3 1-.6l1.9-1 6.3-2.8a7 7 0 001.6-1l1-.3c.6-.3 1.2-.6 1.9-.6 2.5-1 4.7-2.2 7.3-3.2l6.3-2.8c12.1-5.1 23.2-9.3 33.7-12.8 19.7-5.4 37.1-8.9 52.4-9.5" fill="#FFF"/></g></svg>