<svg xmlns="http://www.w3.org/2000/svg" viewBox="0 0 512 512" style="enable-background:new 0 0 512 512" xml:space="preserve"><path d="M425.2 99.7a5 5 0 0 0-4.5-4.2l-41.2-3.1-30.3-30.1c-3-3-8.9-2.1-11.1-1.4l-15.3 4.7c-9.1-26.3-25.2-50.4-53.6-50.4l-2.4.1C258.7 4.6 248.7 0 240.1 0c-66 0-97.6 82.5-107.5 124.5l-46.2 14.3c-14.3 4.5-14.8 4.9-16.7 18.4l-38.9 300 292 54.7L481 477.7l-55.8-378zM306.6 70.6l-24.7 7.6v-5.3c0-16.3-2.3-29.5-5.9-39.9 14.6 1.9 24.4 18.5 30.6 37.6zm-48.7-34.3c4.1 10.2 6.7 24.8 6.7 44.5v2.9l-51 15.8c9.8-38 28.2-56.3 44.3-63.2zm-19.6-18.6c2.9 0 5.7 1 8.5 2.9-21.2 10-43.8 35-53.4 85.1l-40.3 12.5C164.2 80 190.9 17.7 238.3 17.7z" style="fill:#95bf46"/><path d="m420.7 95.5-41.2-3.1-30.3-30.1a7 7 0 0 0-4.2-1.9L322.9 512l158.2-34.2-55.9-378.1c-.3-2.6-2.6-4-4.5-4.2" style="fill:#5e8e3e"/><path d="m269.2 183-19.5 58s-17.1-9.1-38-9.1c-30.7 0-32.3 19.3-32.3 24.1 0 26.5 69.1 36.7 69.1 98.7 0 48.8-31 80.3-72.8 80.3-50.1 0-75.8-31.2-75.8-31.2l13.4-44.3s26.3 22.6 48.6 22.6a19.6 19.6 0 0 0 20.4-19.8c0-34.6-56.7-36.1-56.7-92.9 0-47.8 34.3-94.1 103.6-94.1 26.8 0 40 7.7 40 7.7" style="fill:#fff"/></svg>