<svg viewBox="0 0 1000 1000" xmlns="http://www.w3.org/2000/svg"><g fill="none"><path d="M401.4 126c-41.23.03-74.59 33.51-74.56 74.77-.03 41.26 33.36 74.74 74.58 74.77H476V200.8a74.73 74.73 0 00-74.6-74.8c.02 0 .02 0 0 0zm0 199.43H202.57c-41.22.03-74.61 33.51-74.58 74.77a74.68 74.68 0 0074.55 74.8h198.84c41.22-.03 74.61-33.51 74.58-74.77.03-41.29-33.36-74.77-74.58-74.8z" fill="#36C5F0"/><path d="M873 400.2c.03-41.26-33.36-74.74-74.58-74.77-41.23.03-74.62 33.51-74.59 74.77V475h74.59c41.22-.03 74.61-33.51 74.58-74.8zm-198.86 0V200.77A74.7 74.7 0 00599.59 126c-41.23.03-74.62 33.51-74.59 74.77V400.2a74.68 74.68 0 0074.55 74.8c41.23-.03 74.62-33.51 74.59-74.8z" fill="#2EB67D"/><path d="M599.58 874c41.22-.03 74.6-33.51 74.58-74.76.03-41.26-33.36-74.74-74.58-74.77H525v74.77A74.71 74.71 0 00599.58 874zm0-199.44h198.84c41.22-.03 74.61-33.51 74.58-74.77A74.68 74.68 0 00798.45 525H599.61c-41.22.03-74.61 33.51-74.58 74.76-.03 41.29 33.33 74.77 74.55 74.8z" fill="#ECB22E"/><path d="M128 599.77c-.03 41.26 33.36 74.74 74.58 74.77 41.23-.03 74.62-33.51 74.59-74.77V525h-74.59c-41.22.03-74.61 33.51-74.58 74.77zm198.86 0V799.2a74.68 74.68 0 0074.55 74.8c41.23-.03 74.62-33.51 74.59-74.77v-199.4a74.68 74.68 0 00-74.55-74.8c-41.26 0-74.62 33.48-74.59 74.74 0 0 0 .03 0 0z" fill="#E01E5A"/></g></svg>