<svg width="477" height="206" fill="none" xmlns="http://www.w3.org/2000/svg"><g clip-path="url(#a)"><path d="M68.91 148.4V134H14.3A14.3 14.3 0 0 0 0 148.3v14.6a14.3 14.3 0 0 0 14.3 14.3h43.3v14.4H1V206h56.7A14.3 14.3 0 0 0 72 191.7v-14.6a14.3 14.3 0 0 0-14.3-14.3H14.4v-14.4h54.51ZM84.25 148.3v43.4A14.3 14.3 0 0 0 98.54 206H142a14.3 14.3 0 0 0 14.3-14.3v-43.4A14.3 14.3 0 0 0 142 134H98.54a14.29 14.29 0 0 0-14.29 14.3Zm57.6 43.3h-43.2v-43.2h43.2v43.2ZM237.42 148.3V206h14.4v-23.66H294V206h14.4v-57.7a14.3 14.3 0 0 0-14.3-14.3h-42.38a14.29 14.29 0 0 0-14.3 14.3ZM294 167.94h-42.18V148.4H294v19.54ZM406 148.3V206h14.4v-23.66h42.2V206H477v-57.7a14.3 14.3 0 0 0-14.3-14.3h-42.37A14.3 14.3 0 0 0 406 148.3Zm56.57 19.64h-42.14V148.4h42.17l-.03 19.54ZM378.81 134v57.6h-5.76L352.41 140a9.54 9.54 0 0 0-8.85-6h-12.82a9.53 9.53 0 0 0-9.53 9.53V206h14.4v-57.6h5.76L362 200a9.51 9.51 0 0 0 8.84 6h12.82a9.53 9.53 0 0 0 9.53-9.53V134h-14.38ZM183.46 191.6V134h-14.4v57.7a14.3 14.3 0 0 0 14.3 14.3h43.3v-14.4h-43.2Z" fill="#000"/><path d="m286.5 67.8-15.84 17.03a3.68 3.68 0 0 1-2.7 1.17h-75.12a1.84 1.84 0 0 1-1.34-3.1l15.85-17.02a3.68 3.68 0 0 1 2.69-1.18h75.12a1.84 1.84 0 0 1 1.34 3.1Zm-15.84-34.28a3.68 3.68 0 0 0-2.7-1.17h-75.12a1.84 1.84 0 0 0-1.34 3.1l15.85 17.03a3.68 3.68 0 0 0 2.69 1.17h75.12a1.84 1.84 0 0 0 1.34-3.1l-15.84-17.03ZM192.84 21.3h75.13a3.67 3.67 0 0 0 2.69-1.18L286.5 3.1a1.83 1.83 0 0 0-.33-2.8c-.3-.2-.65-.3-1.01-.3h-75.12a3.68 3.68 0 0 0-2.69 1.17L191.5 18.2a1.84 1.84 0 0 0 1.34 3.1Z" fill="url(#b)"/></g><defs><linearGradient id="b" x1="199.1" y1="88.05" x2="278.03" y2="-.78" gradientUnits="userSpaceOnUse"><stop offset=".08" stop-color="#9945FF"/><stop offset=".3" stop-color="#8752F3"/><stop offset=".5" stop-color="#5497D5"/><stop offset=".6" stop-color="#43B4CA"/><stop offset=".72" stop-color="#28E0B9"/><stop offset=".97" stop-color="#19FB9B"/></linearGradient><clipPath id="a"><path fill="#fff" d="M0 0h477v206H0z"/></clipPath></defs></svg>