<svg xmlns="http://www.w3.org/2000/svg" viewBox="0 0 512 512" style="enable-background:new 0 0 512 512" xml:space="preserve"><path d="M248.6 3.8v47h-42v12.3h42v47h14.9v-47h42V50.8h-42v-47h-14.9zM377.3 52v69.2h-63.1V141h63.1v68h22.3l.1-33.7.5-33.6 31.2-.5 31.1-.2v-19.7h-63V52h-22.2zm-264.7 1.3v68.1H48.8V141h63.7v68.1h21V141h64.2v-19.7h-64.2v-68h-20.9zm129.8 112.4v76.7h-70.5v25.3h70.5v76.7h27.3v-76.7h70.6v-25.3h-70.6v-76.7h-27.3zm207.4 33V246h-43v17.3h43v48.2h18.9v-48.2H512V246h-43.2v-47.3h-19zm-407.7 2.8v46.4H0v13.2h42.1V308h14.3v-46.9H99v-13.2H55.7v-46.4H42.1zm335.2 96.4v69.4h-64.4v19.8h64.4v68.6h22.8v-68.6h63.7v-19.8h-63.7v-69.4h-22.8zm-266 .2v69.2h-63v19.8h63.1v68.1h23.5v-68.1h63v-19.8h-63V298h-11.7l-11.9.1zm134.8 97.7v47h-42V460h42v48.3h19.8l.3-23.8.3-24.4h42.1v-17.2h-42.7v-47h-19.8z"/></svg>