<svg xmlns="http://www.w3.org/2000/svg" viewBox="0 0 512 512" style="enable-background:new 0 0 512 512" xml:space="preserve"><path d="M502.2 271.9c-12.9-29.4-37.5-52.8-65.9-67.2-50.2-25.4-112.7-25.3-162.7.7-34.8 17.8-63.8 49.8-72.1 88.7-6.8 28.7-.7 59.5 14.5 84.5 22.7 37.6 63.6 61.6 106.1 69.2 30.7 6.2 62.6 2.6 92.5-6 18 6.9 34 18.2 51.4 26.6-4.5-15.1-9.3-30-14.5-44.9 19.6-13.8 37.2-31.2 47.9-52.8 15.8-30.1 16.8-67.6 2.8-98.8zM290.5 70C237.3 40.1 171 35.6 113.8 56.2 76.1 69.8 42.1 95 21 129.3 1.9 160.2-5.2 198.8 4 234.1c9.2 39.2 36.5 72.2 69.6 94.2-6.4 18.2-12.5 36.2-18.2 54.5 20.7-10.8 41.6-22.3 62.4-33.2 24.9 8 51.5 11.9 78.1 11-7.1-20.1-8.7-41.9-5.4-62.9 4.7-29.2 20.7-56 42.5-75.8 36.8-34.5 89-49 138.6-45.5-9.3-45.5-41.3-84-81.6-106.3h.5zm37 213.1c-4.5 13.9-24.7 18.1-34.5 7.5-10.8-9.7-6.6-30.3 7.6-34.6 15.7-6.6 33.8 11.4 26.9 27.1zm102.3 2c-5.4 12.5-24.3 15.4-33.6 5.7-4.5-4.1-5.7-10.2-7.3-15.6 2.2-9.7 8.9-19.9 19.8-20.3 15-2.1 28.5 16.5 20.7 30.2h.4zM277.1 147.4c.2 20.5-27.2 33.2-42.5 19.3-16-11.4-11.4-39.2 7.2-44.9 16.7-6.7 36.6 7.3 35.2 25.3v.3zm-129.2 5.2c-3.7 17.8-27.5 26.4-41.5 14.5-16.2-11.4-11.7-39.7 7.3-45.5 18.7-7.2 39.8 11.7 34.2 31z"/></svg>