<svg viewBox="0 0 512 512" xml:space="preserve" xmlns="http://www.w3.org/2000/svg"><path d="M502.2 271.9a141 141 0 0 0-65.9-67.2 181.3 181.3 0 0 0-162.7.7c-34.8 17.8-63.8 49.8-72.1 88.7a114 114 0 0 0 14.5 84.5c22.7 37.6 63.6 61.6 106.1 69.2a196 196 0 0 0 92.5-6c18 6.9 34 18.2 51.4 26.6a1020 1020 0 0 0-14.5-44.9 145.4 145.4 0 0 0 47.9-52.8 114.8 114.8 0 0 0 2.8-98.8zM290.5 70a216.2 216.2 0 0 0-176.7-13.8A180.3 180.3 0 0 0 21 129.3 136.6 136.6 0 0 0 4 234.1c9.2 39.2 36.5 72.2 69.6 94.2-6.4 18.2-12.5 36.2-18.2 54.5 20.7-10.8 41.6-22.3 62.4-33.2 24.9 8 51.5 11.9 78.1 11a129.2 129.2 0 0 1-5.4-62.9c4.7-29.2 20.7-56 42.5-75.8 36.8-34.5 89-49 138.6-45.5-9.3-45.5-41.3-84-81.6-106.3h.5zm37 213.1c-4.5 13.9-24.7 18.1-34.5 7.5-10.8-9.7-6.6-30.3 7.6-34.6 15.7-6.6 33.8 11.4 26.9 27.1zm102.3 2c-5.4 12.5-24.3 15.4-33.6 5.7-4.5-4.1-5.7-10.2-7.3-15.6 2.2-9.7 8.9-19.9 19.8-20.3 15-2.1 28.5 16.5 20.7 30.2h.4zM277.1 147.4c.2 20.5-27.2 33.2-42.5 19.3-16-11.4-11.4-39.2 7.2-44.9 16.7-6.7 36.6 7.3 35.2 25.3v.3zm-129.2 5.2c-3.7 17.8-27.5 26.4-41.5 14.5-16.2-11.4-11.7-39.7 7.3-45.5 18.7-7.2 39.8 11.7 34.2 31z" fill="#7bb32e"/></svg>