<svg xml:space="preserve" width="512" height="413.2" xmlns="http://www.w3.org/2000/svg"><path d="M357.8 129.5c3.4 0 6.7.1 10.1.3C353.9 56.2 277.4 0 185 0 82.8 0 0 68.9 0 154c0 46.3 24.9 88.1 63.9 116.4 3.3 2.3 5.2 6.1 5.2 10.1 0 1.4-.3 2.6-.6 3.9l-8.3 31c-.4 1.5-1 3-1 4.5 0 3.4 2.7 6.2 6.2 6.2 1.3 0 2.4-.5 3.5-1.1l40.5-23.4a19 19 0 0 1 9.8-2.9c1.8 0 3.7.3 5.4.8a220.3 220.3 0 0 0 70.6 8.3 116 116 0 0 1-6.2-37.7c0-77.7 75.6-140.6 168.8-140.6zm-111-49.4a24.6 24.6 0 1 1 0 49.2c-13.6 0-24.7-11-24.7-24.6a24.7 24.7 0 0 1 24.7-24.6zm-123.4 49.2a24.6 24.6 0 1 1 0-49.2 24.6 24.6 0 1 1 0 49.2zm335.3 237.5c32.5-23.5 53.3-58.3 53.3-97 0-70.9-69-128.3-154.2-128.3-85.2 0-154.2 57.4-154.2 128.3s69 128.3 154.2 128.3a183 183 0 0 0 50.3-7c1.5-.5 3-.7 4.5-.7 3 0 5.7.9 8.2 2.3l33.8 19.4a5.1 5.1 0 0 0 8.2-4.2c0-1.3-.5-2.5-.8-3.8l-7-25.9c-.3-1.1-.5-2.2-.5-3.3 0-3.1 1.7-6.2 4.2-8.1zM306.4 249.4a20.6 20.6 0 1 1-.1-41.1 20.6 20.6 0 0 1 .1 41.1zm102.8 0a20.5 20.5 0 1 1 20.6-20.5c0 11.3-9.2 20.5-20.6 20.5z" style="fill:#7bb32e"/></svg>