<svg xmlns="http://www.w3.org/2000/svg" viewBox="0 0 512 512" style="enable-background:new 0 0 512 512" xml:space="preserve"><path d="M352.8 159.5c-8.4-.4-15.2.8-15.2.8l64 96-64 94.4s28.8 4.8 41.6-8c8-8 12.8-16 40-54.4 4.8-8 9.6 0 9.6 0 24 32 30.4 44.8 41.6 54.4 14.4 11.2 41.6 8 41.6 8l-64-94.4 62.4-96s-27.2-4.8-40 8c-9.6 9.6-19.2 22.4-41.6 56 0 0-4.8 8-9.6 0-22.4-32-32-46.4-41.6-56-6.4-6.4-16.4-8.4-24.8-8.8zm-346.1.7c-2.3-.1-4.5 0-6.7.2l51.2 192s16 0 24-3.2c11.2-4.8 16-9.6 22.4-35.2 6.4-22.4 22.4-91.2 24-96 3.2-11.2 8-11.2 11.2 0 1.6 4.8 17.6 72 24 96 6.4 25.6 11.2 30.4 22.4 35.2 9.6 4.8 25.6 3.2 25.6 3.2l51.2-192c-17.6-1.6-38.4 8-40 27.2L188.8 290l-22.4-83.2c-4.8-24-16-36.8-36.8-36.8s-30.4 11.2-36.8 36.8L70.4 290 43.2 187.5c-4.2-18.2-20.6-26.6-36.5-27.3zm306.9.1s-12.8 0-20.8 3.2c-9.6 4.8-12.8 14.4-12.8 38.4 0 0 4.8-4.8 12.8-8 22.4-8 20.8-24 20.8-33.6zm-1.6 32v1.2-1.2zm0 1.2c-.9 1.6-4 4.5-9.6 6.8-4.8 3.2-9.6 4.8-14.4 6.4-11.2 4.8-9.6 11.2-9.6 27.2v118.4s12.8 1.6 20.8-3.2c11.2-4.8 12.8-11.2 12.8-35.2V193.5z"/></svg>