<svg xmlns="http://www.w3.org/2000/svg" viewBox="0 0 512 512" style="enable-background:new 0 0 512 512" xml:space="preserve"><path d="M47.5 103.6h416.8a47.7 47.7 0 0 1 47.7 47.7v159.1a47.7 47.7 0 0 1-47.7 47.7H314.8l20.5 50.2-90.2-50.2H47.7A47.7 47.7 0 0 1 0 310.4V151.3a47.5 47.5 0 0 1 47.5-47.7z" style="fill:#9b5c8f"/><path d="M29.2 147.1c2.9-4 7.3-6 13.1-6.5 10.6-.8 16.7 4.2 18.1 15 6.5 43.5 13.5 80.3 21 110.5l45.6-86.8c4.2-7.9 9.4-12.1 15.6-12.5 9.2-.6 14.8 5.2 17.1 17.5a389.4 389.4 0 0 0 19.8 71.2c5.4-52.9 14.6-91 27.5-114.5 3.1-5.8 7.7-8.7 13.7-9.2 4.8-.4 9.2 1 13.1 4.2 4 3.1 6 7.1 6.5 11.9a18 18 0 0 1-2.1 10c-8.1 15-14.8 40.2-20.2 75.1a383.9 383.9 0 0 0-5.8 79.3c.4 5.2-.4 9.8-2.5 13.7a13.3 13.3 0 0 1-11 7.5c-5.4.4-11-2.1-16.4-7.7-19.4-19.8-34.8-49.3-46-88.7a4797.3 4797.3 0 0 0-30 59.9c-12.3 23.5-22.7 35.6-31.4 36.2-5.6.4-10.4-4.4-14.6-14.4-10.6-27.3-22.1-79.9-34.3-158-1-5.2.2-9.9 3.2-13.7zm447.2 32.7a47.8 47.8 0 0 0-33.3-24.1 57 57 0 0 0-11.2-1.2c-20 0-36.2 10.4-48.9 31.2a110.6 110.6 0 0 0-16.2 58.7c0 16 3.3 29.8 10 41.2a47.8 47.8 0 0 0 33.3 24.1 57 57 0 0 0 11.2 1.2c20.2 0 36.4-10.4 48.9-31.2a111.8 111.8 0 0 0 16.2-58.9 76.5 76.5 0 0 0-10-41zm-26.2 57.6a55.2 55.2 0 0 1-15.8 30.8c-6 5.4-11.7 7.7-16.9 6.7-5-1-9.2-5.4-12.3-13.5a52.8 52.8 0 0 1-3.7-18.9 68.8 68.8 0 0 1 12.5-40c6.9-10.2 14.2-14.4 21.6-12.9 5 1 9.2 5.4 12.3 13.5a52.8 52.8 0 0 1 3.7 18.9c.1 5.5-.4 10.7-1.4 15.4zm-104.1-57.6a48.2 48.2 0 0 0-33.3-24.1 57 57 0 0 0-11.2-1.2c-20 0-36.2 10.4-48.9 31.2a110.6 110.6 0 0 0-16.2 58.7c0 16 3.3 29.8 10 41.2a47.8 47.8 0 0 0 33.3 24.1 57 57 0 0 0 11.2 1.2c20.2 0 36.4-10.4 48.9-31.2a111.8 111.8 0 0 0 16.2-58.9c0-16.2-3.3-29.8-10-41zm-26.4 57.6a55.2 55.2 0 0 1-15.8 30.8c-6 5.4-11.7 7.7-16.9 6.7-5-1-9.2-5.4-12.3-13.5a52.8 52.8 0 0 1-3.7-18.9 68.8 68.8 0 0 1 12.5-40c6.9-10.2 14.2-14.4 21.6-12.9 5 1 9.2 5.4 12.3 13.5a52.8 52.8 0 0 1 3.7 18.9c.3 5.5-.4 10.7-1.4 15.4z" style="fill:#fff"/></svg>