<svg xmlns="http://www.w3.org/2000/svg" viewBox="0 0 512 512" style="enable-background:new 0 0 512 512" xml:space="preserve"><path d="M36.4 256c0 86.9 50.5 162.1 123.8 197.6l-104.8-287a218.7 218.7 0 0 0-19 89.4zm367.8-11.1c0-27.1-9.7-45.9-18.1-60.6-11.1-18.1-21.6-33.4-21.6-51.5 0-20.2 15.3-39 36.9-39l2.8.2a219.5 219.5 0 0 0-331.7 41.4l14.1.3c23 0 58.5-2.8 58.5-2.8 11.8-.7 13.2 16.7 1.4 18.1 0 0-11.9 1.4-25.1 2.1l80 237.9 48.1-144.1-34.2-93.9c-11.8-.7-23-2.1-23-2.1-11.8-.7-10.4-18.8 1.4-18.1 0 0 36.3 2.8 57.8 2.8 23 0 58.5-2.8 58.5-2.8 11.8-.7 13.2 16.7 1.4 18.1 0 0-11.9 1.4-25.1 2.1l79.4 236.1 21.9-73.2c9.4-30.4 16.6-52.2 16.6-71zm-144.4 30.3L194 466.7a219.2 219.2 0 0 0 134.9-3.5c-.6-.9-1.1-1.9-1.6-3l-67.5-185zm188.9-124.6c.9 7 1.5 14.5 1.5 22.6 0 22.3-4.2 47.3-16.7 78.7l-67.1 194a219.7 219.7 0 0 0 82.3-295.3zM256 0A256.2 256.2 0 0 0 0 256c0 141.2 114.8 256 256 256s256-114.8 256-256S397.1 0 256 0zm0 500.3A244.6 244.6 0 0 1 11.7 256 244.6 244.6 0 0 1 256 11.7 244.6 244.6 0 0 1 500.3 256 244.7 244.7 0 0 1 256 500.3z" style="fill:#464342"/></svg>