<?xml version="1.0" standalone="no"?>
<!DOCTYPE svg PUBLIC "-//W3C//DTD SVG 20010904//EN"
 "http://www.w3.org/TR/2001/REC-SVG-20010904/DTD/svg10.dtd">
<svg version="1.0" xmlns="http://www.w3.org/2000/svg"
 width="700.000000pt" height="700.000000pt" viewBox="0 0 700.000000 700.000000"
 preserveAspectRatio="xMidYMid meet">
<metadata>
Created by potrace 1.11, written by Peter Selinger 2001-2013
</metadata>
<g transform="translate(0.000000,700.000000) scale(0.100000,-0.100000)"
fill="#000000" stroke="none">
<path d="M344 5416 c-7 -18 22 -73 87 -166 51 -73 258 -289 349 -364 l45 -38
-60 37 c-138 85 -318 230 -443 355 -96 97 -124 110 -130 57 -9 -78 135 -242
383 -435 19 -15 5 -10 -40 14 -140 74 -225 128 -315 200 -50 41 -100 74 -111
74 -53 0 -24 -67 66 -156 74 -72 162 -137 305 -221 57 -35 102 -63 98 -63 -27
0 -181 66 -333 141 -99 49 -195 92 -212 95 -30 6 -33 4 -33 -20 0 -67 226
-218 474 -316 33 -13 54 -26 48 -28 -18 -6 -157 35 -236 70 -139 60 -186 67
-186 28 0 -41 232 -187 363 -230 21 -6 37 -13 35 -15 -2 -2 -34 0 -73 5 -79 8
-102 -2 -90 -39 12 -39 81 -79 166 -98 79 -16 79 -17 49 -29 -24 -11 -30 -19
-30 -44 0 -26 6 -33 43 -50 23 -11 75 -29 115 -40 l73 -21 -6 -43 c-9 -59 13
-101 69 -128 39 -18 44 -26 49 -60 7 -50 37 -83 96 -104 63 -24 68 -29 76 -77
6 -30 18 -51 45 -77 21 -19 43 -52 50 -73 10 -33 31 -51 163 -143 635 -443
1078 -693 1237 -696 75 -2 188 67 229 140 9 15 18 15 125 -5 177 -32 182 -36
233 -168 23 -60 42 -117 42 -125 1 -14 -177 -124 -438 -271 -98 -55 -131 -91
-131 -141 0 -30 31 -68 54 -68 10 0 12 -11 9 -44 -5 -39 -2 -46 21 -61 25 -17
61 -17 114 0 21 7 22 5 22 -56 0 -79 23 -122 73 -138 29 -10 42 -9 72 4 49 20
48 20 42 -17 -2 -18 1 -47 8 -64 25 -60 151 -95 215 -60 23 13 27 12 62 -19
48 -44 91 -55 216 -55 131 0 181 12 222 55 32 33 34 34 68 20 41 -18 105 -19
135 -4 12 6 34 23 50 37 22 21 27 34 27 75 0 43 2 48 18 42 62 -25 73 -27 103
-15 50 21 69 59 69 135 0 65 1 67 22 60 86 -27 138 -9 138 48 0 18 -5 38 -12
45 -9 9 -7 12 10 12 30 0 62 34 62 68 0 54 -33 86 -167 163 -128 73 -374 218
-382 225 -8 8 52 239 67 256 20 24 85 44 203 64 93 15 103 15 111 1 41 -74
151 -141 229 -139 160 3 635 273 1276 724 104 73 113 82 128 128 10 29 24 51
35 55 24 8 47 44 55 88 8 42 14 48 76 71 59 21 89 54 96 104 5 34 10 42 50 61
53 26 78 73 68 131 l-6 38 98 31 c55 17 107 39 116 49 28 30 21 61 -15 76
l-31 14 34 6 c100 20 132 30 168 56 70 51 64 104 -10 95 -131 -17 -130 -17
-42 19 150 62 324 173 331 210 5 23 -16 37 -43 30 -11 -3 -76 -27 -145 -54
-124 -47 -227 -77 -236 -67 -3 2 21 15 53 27 243 97 480 254 471 313 -5 37
-52 24 -218 -61 -131 -67 -330 -152 -357 -152 -4 0 40 28 97 63 146 86 224
143 303 221 71 71 102 118 93 142 -11 28 -44 13 -144 -65 -79 -62 -295 -196
-367 -228 -11 -5 -4 1 108 89 162 127 303 301 295 365 -6 54 -33 39 -165 -89
-129 -124 -289 -251 -405 -321 l-63 -38 50 43 c167 142 319 311 398 440 41 68
43 91 11 96 -17 2 -42 -22 -112 -105 -136 -163 -314 -324 -489 -444 l-48 -33
54 60 c164 180 245 270 268 300 27 35 25 64 -3 64 -22 0 -55 -25 -244 -185
-133 -113 -268 -224 -473 -389 l-48 -39 46 74 c55 90 73 145 53 166 -21 21
-43 7 -97 -61 -88 -111 -201 -203 -456 -373 -361 -240 -997 -603 -1154 -658
-63 -22 -165 -36 -191 -27 -13 5 -35 26 -49 48 -37 54 -82 81 -148 90 -113 14
-183 -17 -249 -111 -19 -27 -26 -30 -76 -29 -30 1 -81 9 -114 18 -150 43 -718
361 -1147 643 -294 193 -398 276 -493 395 -54 67 -87 89 -106 70 -18 -18 1
-77 52 -162 28 -46 42 -76 32 -68 -9 8 -84 69 -167 135 -82 67 -222 183 -310
258 -240 206 -276 230 -291 190 -8 -20 33 -72 203 -259 123 -135 132 -147 83
-112 -199 141 -343 272 -482 439 -87 104 -121 127 -134 93z"/>
</g>
</svg>
