<svg xmlns="http://www.w3.org/2000/svg" width="933.3" height="933.3" version="1.0" viewBox="0 0 700 700"><path d="M34.9 157.7c-1.1 7.3 21 35 40.6 50.8 6.8 5.5 9 7.5 8.2 7.5-.8 0-19.9-11.9-20.7-12.9l-8.2-6.4a241.7 241.7 0 0 1-20-17.6c-10.1-9.7-12.6-11.7-14-11-2.3 1.3-2.3 3.1.3 8.2 5.6 11 23.9 28.8 40.7 39.6 2.8 1.8 5.2 3.5 5.2 3.8a91 91 0 0 1-10.7-5.3l-13-6.8c-1.3-.6-2.3-1.4-2.3-1.9a91.7 91.7 0 0 1-21-14.5c-7.3-6.1-10.4-7.4-11.3-5-2.3 6.7 21.8 27.4 47.6 40.8 3.1 1.7 5.7 3.2 5.7 3.5 0 .4-4.3-.9-14-4.1-2.5-.9-13-5.8-23.5-11A193.7 193.7 0 0 0 3 205.7c-6.7-.6-.9 7.8 10.7 15.6 7.4 4.9 21.8 12.3 35.3 18.1 7.8 3.4 8.1 3.6 4 3.1-8-1.1-17.5-4-27.7-8.7-12-5.3-18.4-4.7-12.7 1.4 5.1 5.2 15.7 11.3 36.4 20.7 2 .9.7 1-6.2.5l-8.8-.6v2.6c0 4.9 5.7 8.5 17.4 11.1l7.9 1.8-3.2 1.3c-3.9 1.6-4.8 3.7-2.8 6.7 1 1.5 4.4 3.1 11.3 5.3l9.9 3 .1 5.3c.2 7 1.8 9.6 7 12.1 2.4 1.1 4.5 2.3 4.5 2.8l.4 3c.6 5.5 5.4 10.1 12.3 11.7 3 .6 4.3 2.6 5.8 8.8a9.5 9.5 0 0 0 3.3 4.8c1.4 1.1 3.7 4.4 5.1 7.2 2 4.1 4 6.2 10 10.4 4.1 2.8 8 5.6 8.5 6.1.6.4 12.7 8.6 27 18l28 18.6c4.3 2.8 28.4 16.6 36.5 20.7 14.1 7.3 24.3 10.9 30.8 10.9 6.8 0 19.9-8.6 21.8-14.3.3-1.1 1.3-1.6 2.7-1.3 3.5.7 9.9 1.8 13.2 2.2 4 .5 12.5 3.4 14.9 5 1.7 1.1 3.7 6.1 8.5 20.4l1.9 5.5-2.7 1.6-7.1 4.1-18 10.5c-7.4 4.4-15.5 9-18 10.3-8.1 4.3-12.4 9.5-11.7 14.1.4 2.7 4.5 6.2 6.4 5.5 1.6-.6 1.6-.4.2 2.8-3.3 7.1 3.3 11.2 12.4 7.7 3.1-1.2 3-1.6 3.1 7.1.1 5.9.4 7 3 9.7 2.3 2.4 3.8 3.1 6.7 3.1 2.1 0 4.1-.5 4.4-1 .9-1.4 4.5-1.2 4.6.2.1.7 0 2.9-.1 4.8-.1 4.1 2.4 7 8.2 9.5 4.8 1.9 7.7 1.9 12.9-.2 4.2-1.6 4.2-1.6 6.3.9 4.1 4.9 8.1 6.2 20.6 6.2 6.3.1 13.2-.2 15.3-.5 4-.7 8.7-3.3 8.7-4.9 0-1.9 3.8-3 6.7-1.9 7.5 2.9 12.8 2.1 17.8-2.8 3.3-3.2 3.6-3.9 3.2-7.9-.4-4.9-.1-5 5.7-3 4.8 1.7 6.6 1.2 10.2-2.6 2.6-2.7 2.9-3.6 2.9-10.1 0-7.6.2-7.8 4.8-5.9 3.5 1.5 8.6.7 10.4-1.6 1.2-1.5 1.2-3.3.1-8.3-.2-.8.4-1.3 1.4-1.1 2.6.4 5.9-4.5 5.3-8-.9-5-3.4-7.2-16-14.3-30.8-17.6-38.5-22.5-38.5-25 0-5.3 5.3-23 7.4-24.7a62 62 0 0 1 23.1-6.3c2.2-.3 4.8-.8 5.7-1.1 1-.3 1.9.2 2.3 1.5 1.7 5.5 15 14.1 21.8 14.1 1.9 0 6.6-.9 10.3-2.1a254.7 254.7 0 0 0 40.8-19.9c2.4 0 79.9-51.4 86.7-57.5 1-1 2.4-3.6 3.1-5.7a13 13 0 0 1 4.4-6.3 12 12 0 0 0 4.4-7.3c1.1-4.8 1.3-5 7.5-7.7 6.9-2.9 9.3-5.6 9.8-10.7.3-2.6 1.1-3.7 3.7-5 6-3.1 7.5-5.3 8-11.9l.5-6.1 9.9-3.2c9.7-3.2 13-5.5 12.4-8.6-.2-.8-1.4-2-2.6-2.6-3.6-1.8-2.4-2.8 4.7-4.2 7.9-1.6 13.2-4.4 15.4-8.2 2.5-4.2.7-5.1-9.4-4.5-6.8.4-7.8.3-5.4-.6 7-2.5 24.5-11.5 30.6-15.7 6.9-4.8 9.4-7.6 8.3-9.3-.9-1.5-7.4-.4-13.2 2.2a99.1 99.1 0 0 1-29.7 9.4c-2.2.3-1.4-.3 3-2.5a238.4 238.4 0 0 0 30-14.5c13.9-8.1 22.8-16.9 19.9-19.7-.9-.9-7.4 1.2-13.9 4.5a216 216 0 0 1-48.4 20.7c-.3 0 4.4-2.7 10.4-6.1a140.8 140.8 0 0 0 34-24.4c8.3-8.1 11.8-14.1 9-15.1-1.9-.8-5 1.1-11.5 6.6-3 2.6-8.2 6.4-11.5 8.5L659 206a289.5 289.5 0 0 1-24.6 12.8c21.5-14.7 38.8-31.2 44.5-42.5 2.6-5.1 2.6-6.9.3-8.2-1.5-.8-3.8 1-13.3 10.2a231 231 0 0 1-50.9 38.4c0-.3 4.9-4.5 10.8-9.5A187.5 187.5 0 0 0 655 177c1.4-1.2 8.2-12.3 9.6-15.5 1.3-3.1 1.3-3.6 0-4.1-2.2-.8-5.3 2-13.1 11.8a204.6 204.6 0 0 1-40.5 37.6l-10.5 8c-5.3 4.3-3.7 1.8 4.6-7.3l10.5-11.5 8.7-9.5c1.6-1.7 4.2-4.9 5.8-7.1 2.2-3.3 2.6-4.4 1.6-5.3-.9-.7-2.1-.6-3.9.3-2.1 1.1-21.4 17.1-44.8 37l-7 5.6a98.3 98.3 0 0 0-5 4l-7.5 6a347 347 0 0 0-9.9 8c-1.3 1.1-1.1.4.8-2.5l3.5-5.1c1.4-1.7 4.1-7.3 5.6-11.5 1.2-3.4 1.2-4-.3-5.5-1.5-1.6-2-1.3-6.7 4.1-13.1 15.2-21.3 22-49.6 40.7a1254.6 1254.6 0 0 1-76.9 46.3c-6 3.8-29.4 15.4-36.3 18-11.9 4.4-22.7 4.2-24.2-.5-.8-2.6-6.2-7.9-9.2-9.1-1.4-.5-5.8-1-9.8-1.1-9.2-.2-15.5 2.6-18.8 8.3-3.6 6.2-7.9 7.2-19.1 4.3-10.5-2.7-23.7-9.2-55.6-27.2a1245.2 1245.2 0 0 1-78.5-48.9 144 144 0 0 1-31.4-26.9c-6.1-7.8-9.2-10.1-11-8-1.8 2.2 2.4 12.1 9.7 22.6 1.2 1.8 1.3 2.2.2 1.4a652.6 652.6 0 0 1-22.5-17.8c-5.9-4.7-21.1-17.3-24-19.9-1.1-1.1-7-6.1-13.1-11.3C72 173.2 68 171.1 68 175.8c0 2.2 7.9 11.4 31 36.2 4.2 4.5 4.5 5.4 1 3l-4.5-3.2a81 81 0 0 0-5-3.8c-8.9-6.6-10.2-7.7-16.5-12.9A145.7 145.7 0 0 1 51.7 173c-10.7-13.3-16.3-18.4-16.8-15.3z"/></svg>