              <svg viewBox="0 0 3810 894" xmlns="http://www.w3.org/2000/svg" style="width: 100px;"><path d="M520.5 18.5c-5.5.8-13.4 2.2-17.5 3.1a231 231 0 00-41.1 14.5A126 126 0 00422 73a104.2 104.2 0 00-12.4 31c-2 9.9-3.1 120.2-1.8 174 .9 34.6 1.1 38 3.2 44.5a106.8 106.8 0 0052.7 61.2c28.5 14.7 43 17.7 91.3 18.9 44.1 1.1 71.3-3.3 98.8-16.2 29.6-13.8 50-37.1 57.7-66 2.7-10 3.4-37.6 3.5-125.7v-84.9l-3.6-11.6A85.1 85.1 0 00698.2 70 112.9 112.9 0 00645 29.6a241 241 0 00-41.1-10.2 554.3 554.3 0 00-83.4-.9zM573.4 79c9.3.6 19.9 1.7 23.5 2.6a55 55 0 0137.8 29l3.8 7.9.3 91.2.2 91.3-3.6 7.2c-7.3 14.5-18.4 23.1-37.4 29-7.1 2.2-9.1 2.3-34 2.3-28.2 0-34.9-.7-47.2-5a65 65 0 01-12.4-6.1 56 56 0 01-17.3-20.1c-2.3-7.2-2.9-29.1-3.2-110.8l-.3-82 3.4-6.5c10.5-19.9 30.4-29 67-30.8 1.4-.1 10.1.3 19.4.8zM1339.5 18.1c-47.8 7.7-67.9 16.1-87.6 36.6a79.1 79.1 0 00-21.6 38.9l-2.8 9.9-.3 107.3-.3 107.3 3.2 8.7c1.7 4.8 5.6 13.5 8.6 19.5 15.6 30.7 49.6 51 95.8 57.3 14.7 2 58 2.3 79 .5 27.4-2.4 60.5-7.6 83.9-13.2l12.8-3.1-.4-81.9c-.2-45-.7-82.1-1-82.5-.4-.3-16.2-.8-35.2-1.1l-34.6-.6v114.1l-5.7.6c-3.2.3-17.5 1.1-31.8 1.7-28.1 1.1-49.2.2-60-2.6a50.7 50.7 0 01-33.1-24.9c-5.8-12.7-5.7-11.6-6.1-105.1l-.4-86.1 4.7-9.3c7.3-14.6 14.7-20.7 31.9-26.1 17.4-5.4 94.3-3.7 136.4 3.1 8.9 1.4 12.6 1.6 13.1.8.4-.6 2.1-11.3 3.9-23.7 2.6-19.5 3.7-25.4 6.2-34.1.3-1-1.2-1.8-4.6-2.7a616 616 0 00-54.5-8.1c-18.5-1.7-90.5-2.7-99.5-1.2zM2313 19a228.1 228.1 0 00-39 8.2c-39.3 12.5-64.5 37.6-74 73.7-3.5 12.9-4 28.5-4 123.2v91.7l3.6 9.3a111.3 111.3 0 0026.8 42.5c21.5 21.6 51.4 33.5 94 37.5 16 1.5 61.5.6 73.1-1.5 35.5-6.2 61.4-17.6 79.4-35a109.5 109.5 0 0027.7-45.7l3.4-9.8V108.2l-3.6-10.4a104 104 0 00-54.9-62.7c-13.8-6.7-21-9.2-35-12.1-17.7-3.7-31.4-5-58-5.5-22.2-.4-27.9-.2-39.5 1.5zm74 63.9a59 59 0 0136.4 27l3.7 7-.3 94.3-.3 94.3-3.4 6.9a56 56 0 01-39.6 28.2 265.3 265.3 0 01-57 1.1c-25.3-3.9-41.1-13.6-50-30.7-2.6-4.9-3.3-30.2-3.4-121.4l-.1-74 4-6.7c4.2-7 11.6-14.4 18.4-18.4 6.5-3.7 21-8.4 29.4-9.4 4.2-.5 18.3-.8 31.2-.6 20.7.2 24.4.5 31 2.4zM3160 17.7l-16.7 2.3c-25.7 3.6-46.3 10-61.1 18.9-21.3 12.8-38.1 34.4-42.6 54.7-3.7 16.7-4.1 29.4-4.1 124.4 0 102.3 0 101.1 6.5 119.2a104.2 104.2 0 0041.5 49.5c17.3 10.3 38.4 17 61.7 19.7 15.7 1.9 59 2.2 78.5.5a586 586 0 0087.4-14.6l5.4-1.8v-20.8l-.3-83.2-.2-62.5H3249.3l-.8 11.2c-.4 6.2-1.1 32-1.4 57.3l-.6 46-6 .9c-3.3.4-22.6.9-43 1-35.6.1-37.4 0-46.1-2.2a50.8 50.8 0 01-39.5-39.9c-1.9-8.1-2-9.8-.8-12.1 1-2.1 1.4-19.5 2-82.2.5-48.1 1.2-81.4 1.8-84.3a43.3 43.3 0 0123.3-29.3c9.8-5 20.1-7.3 36.1-8.3 28.9-1.9 98.5 2.5 117.6 7.4 3 .8 5.8 1.2 6.2.9 1-.6 2.3-9.5 5.4-35.1 3-25.4 3.1-27 .8-27.7-8.5-2.6-60.3-8.3-87.3-9.6-20.7-1-51.8-1.1-57-.3zM1063.5 33.3c-.4 6.7-1.1 70-1.4 140.7-.4 92-.9 128.5-1.7 128.5-.6 0-4.7-7-9.1-15.5a778 778 0 00-13-24c-2.8-4.7-16.9-29.9-31.3-56C945 95 906.1 25.7 904.7 24.8c-2-1.2-14.7-1.7-58.4-2.4l-43.3-.6V400h76.1l-.7-143.7c-.5-107.1-.4-143.4.4-142.9 2.1 1.3 17.2 28.7 59 106.6 33.8 63.2 94.3 174.5 95.9 176.1 2.7 3.2 9.6 3.9 35.5 3.9 25.3-.1 69.7-1.4 70.1-2.1.6-1-.9-372.8-1.4-373.4-.6-.6-10.3-1-60-2.9l-13.6-.6-.8 12.3zM1822.2 209.2c.2 103.6.7 189.1 1.2 190 .8 1.7 3.6 1.8 38.7 1.8h37.9V21h-78.1l.3 188.2zM2602.6 29.2c-.3 4.6-.9 90.1-1.2 190.1l-.6 181.7 37.3-.2 37.4-.3.5-141.2c.3-77.6.8-141.4 1.1-141.8 1.1-1 4.6 5.4 62.2 111 65.6 120.5 89.4 163.2 94.6 169.6l1.9 2.4 25.9.4c14.2.1 36.7 0 50.1-.4l24.2-.7v-83.7c0-46-.3-131.2-.7-189.4l-.6-105.7h-71.5l-.6 2.2c-.3 1.3-.6 63.7-.6 138.8a7809 7809 0 01-.8 140.5l-.8 4-3.8-6.5c-12.4-21-88.8-161.3-149.4-274.3l-2.5-4.7h-101.5l-.6 8.2zM12 210.8V400h77V239l73.3.6c40.2.4 74 1.1 75 1.6 1.6.8 1.7 5.4 1.7 74.6 0 40.5.3 76.1.6 78.9l.7 5.3h78l-.6-141.8c-.4-77.9-1-162.5-1.4-187.8l-.6-46.1-9.1-.6c-5-.4-22-1-37.7-1.3l-28.6-.7-.6 4.8c-.4 2.6-.7 37.6-.7 77.6V177H89.2l-.4-76.4c-.2-42-.5-76.7-.8-77-.3-.3-17.6-.8-38.3-1.2L12 21.7v189.1zM2029.8 38.7L1990.5 97c-30.2 45-70.1 103.3-74.6 109.1l-2.8 3.6 4 5.4a2296 2296 0 0141.4 58.4A6853 6853 0 001986 313a4540 4540 0 0127.5 39.5c19 27.7 34.9 49.1 37.5 50.5 1.9 1 87 1.5 87 .5 0-.3-10.9-15.5-24.3-33.8a7291 7291 0 01-47.2-65.2A4091.9 4091.9 0 002011 228c-10-13.5-12-16.5-12-18.3 0-1.6 9.6-15.7 32.6-48.2 9.3-13.2 26.4-37.5 37.8-54 11.5-16.5 27.9-39.8 36.5-51.8 17.6-24.5 21.6-30.5 20.9-31.2-.8-.8-46.1-2.4-66.9-2.5h-18.7l-11.4 16.7zM1527 503.7c-1.4.2-7.1 1.5-12.8 2.9-33.4 7.9-57.4 24.7-69.2 48.7-8 16.2-9 21.7-10.2 54.2a3953 3953 0 001.1 184.2 90 90 0 0027.5 52.1c14.7 13.4 36.4 22.5 63.3 26.4 13.2 2 70 1.6 92.8-.6 15.5-1.4 44.5-5.3 45.2-6 .9-.9-5.5-58.7-6.7-60.6-.6-.9-3.1-.8-10.6.4a546.5 546.5 0 01-78.4 5.3c-22.5-.5-30.9-2-41.3-7.5-7.9-4.1-12.5-9-17.3-18.4l-3.4-6.8.1-72.2c0-39.8.4-81.5.8-92.8.7-18.6 1-20.9 3-24.9a51.2 51.2 0 0116.9-17.4c6.4-3.5 20.4-4.8 51.7-4.8 26.6 0 39.8.9 65.9 4.6 9 1.3 11.2 1.4 12.2.3 1.5-1.5 7.7-49.5 7.2-55.5-.3-3.7-.4-3.7-6.3-4.9a494.7 494.7 0 00-48-6.4c-13.2-.9-78.1-1.2-83.5-.3zM15 689v183h68.8l.7-17.8c.4-9.7.5-42.6.1-73l-.7-55.2h144l.8-3.8c1-4.7 1.1-48.5 0-53.2l-.7-3.5-71.8.3-71.8.4v-39.3c.1-21.7-.3-43.3-.7-48.1l-.8-8.8 77.8-.2 77.8-.3.9-21.3c.5-12.3.5-25.6 0-31.5l-.9-10.2-111.7-.3L15 506v183zM304 689.2V872h72.2l-.3-181.9c-.2-100.1-.6-182.2-.9-182.4-.3-.3-16.4-.7-35.8-.9l-35.2-.3v182.7zM691.3 506.9c-3.9.3-7.5 1-8 1.4-.4.5-1 61.5-1.3 135.7a8512 8512 0 01-1.1 135.5c-1 1-2.4-1.6-8.9-16.4-6.2-14.1-122.3-248.6-125.6-253.6l-1.6-2.5H500c-24.7 0-45.5.3-46.4.6-1.5.6-1.6 17.6-1.6 182.5V872h70.5l-.2-136.2-.3-136.3 6 12 35.3 71.5c16.1 32.7 37 74.1 46.4 92 9.4 17.9 24.3 47 33.2 64.8L659 872h92V506l-26.2.2c-14.5.1-29.5.4-33.5.7zM872.8 507c-47.1.4-60 .8-61 1.8s-1.4 8.4-1.6 31.2l-.3 30h101.8l.7 147.2c.4 81 .9 149 1.2 151l.6 3.8h71.9l-.3-151-.3-151 50-.2 50-.3.3-19.5c.1-10.7-.1-24.4-.5-30.5l-.8-10.9-4-.7c-5.7-.9-136.7-1.5-207.7-.9zM1146.4 663.2c.3 86.5.9 168.9 1.2 183.1l.7 25.7h222.5l.7-8.7c.3-4.9.1-17.6-.4-28.3l-1.1-21.3c0-1.6-4.4-1.7-77.5-1.7H1215v-94.2l72.5.7 72.5.8v-64.6l-72.5.5-72.5.6V570h155l.7-2.8c1-3.5.7-49.2-.4-55.7l-.8-5-111.9-.3-111.9-.2.7 157.2zM1730.4 507.7c-.5 1-1 83.4-1.2 183.1l-.3 181.2h69.1V718l65.9.2c36.3.2 66.3.7 66.8 1.1.4.5.9 35 1.1 76.8l.3 75.9h70.9l-.2-182.8-.3-182.7-34.1-.3-34.1-.2-.6 25.2c-.4 13.9-1 47.8-1.4 75.4l-.6 50.1-59.2.5c-32.6.3-62.4.3-66.2.1l-7-.5-.7-9.7c-.3-5.3-.6-39.2-.6-75.4V506h-33.4c-30.8 0-33.5.1-34.2 1.7zM2352.6 506.7l-4.9.4.6 6.2a641 641 0 009.6 41.7l44.3 175.7 35.2 140.1 2.9.6c4 .8 62.1.8 77.9-.1 10.3-.5 12.8-.9 13.3-2.2a9200.4 9200.4 0 0114-58.6c9.6-40.2 36-157.1 42.5-187.9 4.2-20.1 7-36 7-39.9 0-2.7 2 1.5 4.8 10.3 4.4 13.7 3.4 9.3 26.2 112 18.1 81 37.7 167 38.4 167.7.4.5 85.3-1.7 89.3-2.2 4.2-.6 4.3-.8 5.7-5.8.9-2.9 1.7-6.3 2-7.7l18.1-73.5a25946.6 25946.6 0 0050-204c9.4-38.6 15.5-66 15.5-69.9V507H2777.3l-4.2 17.7a40804.5 40804.5 0 01-52 212.2c-6.3 26.6-13.2 49.1-15 49.1-.5 0-1.3-4.2-1.9-9.3-1.7-15.4-32.1-152.1-57.2-257.4l-3.1-13.1-46.7.5c-25.7.3-46.9.7-47 .9a3040.3 3040.3 0 01-16.7 73.8 31428.9 31428.9 0 01-39.5 164.9 257 257 0 00-7 37.4c0 2.6-2.9 1.2-3.9-2-1.6-5.1-5.6-21.6-10-41.3-2.2-10-8.8-38.1-14.6-62.5-5.9-24.4-17.1-72-25.1-105.8l-15-63.8-.6-2.3-30.2.2c-16.5.1-32.3.3-35 .5zM2905 633.8c0 69.8.3 151.9.7 182.5l.6 55.7 112.6-.2 112.6-.3.3-24a484 484 0 00-.3-30.3l-.7-6.2H2977l-.1-45.5-.3-46.6c-.1-1.2 96.4-1.4 125.2-.2l16.2.6v-62.2l-3.7-.8c-2.1-.4-33.8-.7-70.5-.7l-66.6.2-.4-41.2c-.2-22.6-.6-41.8-.9-42.6-.3-1.3 8.9-1.5 78-1.8l78.3-.2-.4-30.3c-.2-16.6-.7-30.8-1.1-31.5-.7-.9-24.7-1.2-113.3-1.2H2905v126.8zM3211 507.7c-14.3.5-12.6-3.1-13.5 29.5-.4 15.6-.4 97.3 0 181.5l.8 153.3H3424v-60h-40.7c-22.5 0-58-.3-79-.7l-38.3-.6v-92.9l72 .3 72 .4V655h-142.9l-.3-41.8c-.2-22.9-.1-42.1.1-42.6s32.3-.6 78.8-.2l78.3.7v-28.3c0-15.6-.3-30-.6-32.1l-.7-3.7-101.6.2c-55.9.1-105.4.3-110.1.5zM3490.7 541.7c-.9 44.8-.9 302.3 0 318.1l.6 12.2h25.2c13.9 0 30-.3 35.8-.7l10.7-.6V507H3491.3l-.6 34.7zM3682.8 508.7a1077 1077 0 00-37.3 57.8 7608.6 7608.6 0 01-64.2 101.8c-4.6 7.1-9.2 14.6-10.3 16.7l-1.9 3.8 5.2 8.3c36.4 57.4 107.9 165.4 113.5 171.1l3.6 3.8 31.1-.1c29.9 0 44.7-.7 46.1-2.2.8-.7-9.8-16.8-32.1-48.7-8.7-12.4-28.8-41.6-44.8-65a2493.4 2493.4 0 00-43.6-62.7l-2.3-3 2.2-4.4c1.2-2.4 4.8-8.2 7.9-12.9a907 907 0 0014.8-23c12.7-20.4 44-69 67.3-104.5l21.8-33.6 2.2-3.6-6.8-.6c-3.7-.4-21.1-.7-38.8-.7-29.3 0-32.2.2-33.6 1.7z" fill="#869ab8" fill-rule="nonzero"/></svg>