<svg viewBox="0 0 4000 1000" xmlns="http://www.w3.org/2000/svg"><g fill="none" fill-rule="evenodd"><path d="M194 192.5l-61.5 297.1C98.7 652.8 71 786.7 71 787.2c0 .4 22.7.8 50.4.8h50.4l4-20.8 45.3-238C243.9 409.8 262.7 312 263 312c.4 0 69.4 436.6 74.3 469.8l.9 6.2 41.5-.2 41.6-.3 134.3-237.9a74515 74515 0 01134.8-238.3c.2-.2-.4 3.3-1.4 7.9-10 45.1-101 466-101 467.2 0 1.4 5 1.6 50.3 1.6h50.2l60.9-296.3 61.4-298c.4-1.6-3.6-1.7-73.9-1.7h-74.4l-129 226.5A31286.4 31286.4 0 01403.9 645c-.3 0-11.9-79.5-25.9-176.8L345.6 242l-7.1-49.5-72.2-.3c-39.8-.1-72.3 0-72.3.3zm1975 161.2l-33.5 161.7-.3-16.5-.2-16.6-23.8 23.7c-59.8 59.6-114.5 91.8-173.2 102.2a193.9 193.9 0 01-52.7-1.1c-39.5-8.4-66.1-29.7-85.7-68.8-4.1-8.4-6.6-11.9-6.6-9.5 0 2 7.9 22.1 11.5 29.2 17.3 34.4 47.2 55.4 89.5 62.7 14.6 2.6 41.9 2.3 58.5-.6 53.4-9.3 109.6-38.7 168.3-88a91.7 91.7 0 0113.2-10.2c0 1.6-10.9 53.2-11.5 54-.3.5-6.2 4.3-13.2 8.4-55.2 32.5-100.3 49.6-147.8 56.2a235.5 235.5 0 01-65.1-1.9 142.8 142.8 0 01-71.7-36.5 103.4 103.4 0 01-29.1-46.1c-2.9-9.2-6-25.7-7.2-38.5-1-11.5-2.2-6.9-2.3 8.9-.2 36 9.9 63.1 32.3 86.4 22.3 23.2 51.2 37.2 92.1 44.4 14.5 2.5 48.7 3.5 66.2 1.9 37.8-3.6 77.8-14.5 123.3-33.6a382 382 0 0113.4-5.5c.6 0-11.4 57.4-12.2 58.1-1.6 1.5-43.4 8.6-68.2 11.6a598.6 598.6 0 01-94.7.1c-47.1-7.2-83.9-22.8-113-47.7a149 149 0 01-43.6-64.7c-6.7-21.3-6.1-40.1 2.6-76.2.8-3.4 1.2-6.2.7-6.2-1.1 0-7.3 15.7-9.9 25.2a128.6 128.6 0 00-5.1 35.9c0 64.6 51.8 121.3 137.5 150.6 42.9 14.6 102.2 21.3 163.5 18.5 11.3-.6 20.6-.9 20.8-.7.3.2-10.8 54.8-12.4 61.1l-.6 2.4 52.8-.2 52.8-.3 35.8-175.5 44.9-220.8c8-39.1 9.4-45 10.5-43 .6 1.3 42 100.7 91.9 221l90.8 218.8h115.2l16-77.5c15.3-74 16-77.3 16.8-71.8 6.3 45 21.7 78.7 48.6 106.6 20.5 21.3 42.6 35 70.6 44a205.3 205.3 0 0071 10.1c53.7-.2 96.5-12.1 133-36.7a195.3 195.3 0 0042.8-43.7 267.4 267.4 0 0029.7-64.6c0-.2-21.6-.4-48-.4-44.9 0-48.1.1-48.7 1.7a93.6 93.6 0 01-30.3 45.8c-22 17-53.3 24.7-87.3 21.6-16.8-1.6-30-5-41.7-10.7-7.9-4-10.9-6.2-18-13.3a89.4 89.4 0 01-24.3-46.5c-1.7-7.7-2.1-12.5-2.1-30.6a205 205 0 01.6-23.3c.7-1.6 9.3-1.7 161.1-1.7h160.4l1.4-11.2 1.4-11.2 12.5 106.5 12.6 106.4 50 .3 50 .2 1.8-3.7 69.3-151.8 70.1-153.5c1.4-3 2.7-4.8 2.9-4 .3 1.3 18.3 308.1 18.3 311.7 0 1.1 8.9 1.3 50.7 1.1l50.7-.3 83-159.6 83.1-159.7.6 14.7a93.2 93.2 0 0032.4 70.4c20.1 17.4 43.5 28.6 90 43.2 65.1 20.3 80.9 27.3 94.4 42 6.3 6.8 8.4 12.3 8.9 23 .6 14.3-2.5 24-11.2 34.7-28.8 35.3-122.2 36.9-156.7 2.7-10.4-10.3-14.9-21.7-16.5-41.2l-.7-8.7h-90.2l.7 12.4c3.2 56.7 26.9 95.8 71.6 118.1 48.2 24.1 137.3 27 198.7 6.3 47-15.8 82.6-48.7 94.9-87.8a124 124 0 005.3-45c-.8-24.1-4.6-37.2-16-54.7-18.9-29.3-55.5-49.3-130.3-71.3-51.7-15.2-72.7-26.7-78.2-42.9-1.9-5.4-1.5-19 .8-26.3 5.2-17 20.4-29.4 42.5-34.5 11.6-2.6 46.5-2.6 58 .1 12.5 2.9 23.9 7.4 31.8 12.5 14.8 9.7 20.9 20.6 24.2 43.3l.6 3.8h91.2l-.7-12.3c-1.8-31.1-7.6-50.4-21.3-70.8-15.8-23.6-44.6-41.3-79.3-48.7-21.8-4.7-33.9-5.7-66-5.7-24.3 0-32.7.4-41.5 1.8a302.3 302.3 0 00-42.9 9.9 213.5 213.5 0 00-40.8 19.5l-8.7 5.7c-.8.5 1.6-4.9 5.2-11.9 3.7-7 6.7-13.1 6.7-13.6s-21.5-.9-50.3-.9h-50.2L3464 511.2c-41 85.4-75 155.2-75.5 155.2-.6-.1-4.7-62.7-10.2-155l-9.2-155.2c-.1-.1-22.5-.2-50-.2h-49.8L3198 510.7c-39.2 85.2-71.6 155.2-72 155.6-1 1.2-.7 4.9-14-157.3-6.6-80.6-12.3-148-12.6-149.8l-.5-3.2H3050c-43.3 0-49 .2-49 1.5 0 1.9 8.8 76.7 9.6 81.5.4 2.6-.7 1.1-3.9-5.5a155.3 155.3 0 00-96.9-80.9 200.6 200.6 0 00-57-7.3c-26.1-.6-38.6.3-58.6 4.3-59.2 11.8-113.9 51.7-147.8 107.9-4.2 7-6.4 9.9-6 8 1.2-6.3 55.6-269.1 56.1-271.3l.5-2.2-52.7.2-52.7.3-45.3 221-45.3 222c0 .6-.3.6-.9 0-.4-.6-41.7-100.6-91.7-222.3L2317.5 192h-115L2169 353.7zm701.5 70.2a81 81 0 0159.9 63.3 149 149 0 011.6 27.3V534h-110c-60.5 0-110-.1-110-.3 0-1.1 6.4-18.7 9.5-26.2a167.6 167.6 0 0138.1-56.5c16-15.2 34.8-24.5 57.8-28.5a187 187 0 0153.1 1.4z" fill="#869ab8" fill-rule="nonzero"/><path d="M1762.6 193.9c.5.5 5.2 3.9 10.4 7.6 41.4 29.6 80.8 67.5 104.3 100.4 44.9 62.7 56.4 125.7 32 174.6a137.8 137.8 0 01-41.4 47.2c-4.9 3.7-8.4 7-7.8 7.2 1.2.4 14.8-7.4 23.9-13.7 10-7 25.7-23.5 31.3-32.8 6.3-10.6 11-21.6 14.4-33.9 2.6-9.7 2.7-10.8 2.7-35 0-28.6-1-35.4-8.8-59a270.6 270.6 0 00-34.1-68 436.6 436.6 0 00-65.1-76.4l-19.5-19.1h-21.7c-12.3 0-21.2.4-20.6.9z" fill="#869ab8" fill-rule="nonzero"/><path d="M1853.6 194.2c.4.7 4.2 5.6 8.4 10.8 49.1 61 77.9 119.7 85.5 174.3a226 226 0 010 53.3c-9.2 54.1-40.1 88.1-93.3 102.9a48.6 48.6 0 00-9 3.1c-1.2 1.1 12.3-.6 23.1-3.1A103 103 0 001924 506c19.3-19.2 30.5-40.6 37.2-71.3 2-9.2 2.3-12.9 2.3-37.7 0-24.3-.3-29-2.4-40.5a359.3 359.3 0 00-34.2-100.5 707 707 0 00-33.9-59.2l-2.5-3.8h-18.8c-14.8 0-18.7.3-18.1 1.2z" fill="#869ab8" fill-rule="nonzero"/><path d="M1946.6 196.7c21.7 51.7 35.6 98.4 41 138.8a366 366 0 01.1 72.5c-5.2 33.7-17.6 66.4-33.2 87.1a130.4 130.4 0 01-45.9 38.4c-18.7 8.6-32.4 10.9-60.3 10.3-10.7-.2-19-.1-18.6.3a112.2 112.2 0 0041.8 5.3c17.1-.1 21.1-.4 27.7-2.2 38.9-10.7 68.8-37.5 89.2-80.3a226.7 226.7 0 0020-60.9c4.2-21.5 5.1-32.9 5-60.5-.1-42.8-5.6-80.2-20-134.7a683 683 0 01-4.4-17.3c0-.3-9.9-.5-22-.5h-22l1.6 3.7z" fill="#869ab8" fill-rule="nonzero"/><path d="M1707.2 212.6c-1.6 6-5.7 11.9-12.1 17.2a27 27 0 00-5.1 5.1c0 .4 1.9 1.3 4.3 2 19.2 5.7 57.6 22 78.2 33.3a294 294 0 0168.3 49.3c35.4 34.5 54.8 72.3 56.8 110.5 1.4 26.4-6 50.3-24.3 79.2a31 31 0 00-4.9 9.5c.3.3.7.4.9.2l6.7-7.9a123.8 123.8 0 0029-109.8c-11.5-56.8-59.4-114.6-132.3-159.9-21.5-13.4-59.2-33.3-63.1-33.3-.7 0-1.7 2.1-2.4 4.6z" fill="#869ab8" fill-rule="nonzero"/><path d="M1580.3 276a137 137 0 00-16.2 1.4c-.5.4-3.5 4.3-6.7 8.9-3.2 4.5-11.6 15.8-18.7 25-7.1 9.3-12.7 17-12.5 17.2.2.3 2 0 3.9-.5 6.6-2 46.6-9.9 62.4-12.4 33.5-5.3 42.9-6.1 78.5-6.1 35.1 0 41.7.5 64.3 5.1 61 12.3 108 44.9 130.9 90.9a97.3 97.3 0 0111.8 48.4c0 12.8-1.4 22.8-5.5 39.8a70.7 70.7 0 00-2.3 12.5c.3.7 2.4-3.6 4.7-9.7 15.2-38.7 14.3-71.9-2.6-106a142.7 142.7 0 00-25.4-36c-41.3-43.1-104.2-69.7-181.9-76.9a798.1 798.1 0 00-84.7-1.6z" fill="#869ab8" fill-rule="nonzero"/><path d="M2060 298.9c0 3.4-3.4 34.3-5.1 46.1-9.5 66.4-31.2 120-64.8 160.2a153.3 153.3 0 01-78.9 52.6 84 84 0 01-27.7 2.6 83 83 0 01-28.2-2.6 215.9 215.9 0 01-33.6-12.5 16.2 16.2 0 00-6-2c-3.1 1.1 27.3 17.4 40.3 21.6 17.4 5.6 40 6.9 58.6 3.3 48.4-9.5 92.9-46 129-105.7 12-19.9 28.9-58.5 37.9-86.5a417.5 417.5 0 0011.5-42.6c0-1.3-1.1-2.9-2.7-4-5-3.2-12.4-10.7-21-21.2-8.4-10.1-9.3-11-9.3-9.3z" fill="#869ab8" fill-rule="nonzero"/><path d="M1672.1 342.6c-23.3 2.8-46.2 8-71.1 16a584.9 584.9 0 00-73.2 29.5l-7.8 3.9v39.5l-4.5-8.2c-22.8-42.5-66.7-69.3-125.7-76.9a352.4 352.4 0 00-69.8 1 226 226 0 00-66.6 21 219 219 0 00-63.5 46.2A255.5 255.5 0 001135 502a65 65 0 01-4 9.5c0-.6 1.1-6.8 2.5-13.9 8.1-40.9 7.1-75.7-2.4-95.1a79.5 79.5 0 00-37-35.8c-23.1-12.1-45.9-17.9-80.6-20.8-18.5-1.5-68-.6-83.5 1.5-51 7.1-82.8 21.2-111 49.5-24.6 24.7-35.9 46.7-45.4 88.4l-.6 2.7 45.6-.2 45.7-.3 2.2-7c10.2-32.4 29.3-48.2 68.7-56.6 13.5-2.9 44.9-3.8 57.9-1.5 36 6.1 49.9 20 49.9 49.6-.1 28.3-12.7 47.5-35.4 53.6-6 1.6-34.3 4.3-82.6 7.9-50.3 3.7-69 6.2-93.4 12.5-51.7 13.3-87.5 41.7-104.7 82.8a160.7 160.7 0 00-8.7 66.6 99.5 99.5 0 0016.9 50.5c31.4 46.8 100.9 65.2 175.4 46.5a185 185 0 0077.5-38.9l8.5-7.2 1.6 8.2a54.2 54.2 0 0036.5 42.2c7.3 2.5 9 2.7 22.9 2.7 8.3 0 18.4-.6 22.5-1.2 13.1-2.1 47-9.5 48.4-10.6.7-.6 4.1-14.2 7.6-30.1 3.4-16 6.6-29.6 6.9-30.3.5-.8 1.9.5 4.1 4a150.4 150.4 0 0088.2 61.8c19.6 5.1 31.7 6.4 57.3 6.4 34.7-.1 61.2-4 88-12.9 58-19.3 95.7-56.3 119.8-117.5 4-10.2 9.7-27.4 9.7-29.3 0-.4-21.5-.7-47.9-.7h-47.8l-2.8 7.7c-10.9 30.9-29.3 53.6-53.5 65.8a119.8 119.8 0 01-96 2.4c-32.8-15.3-49-46.2-50.7-96.9-1.9-57.8 19.9-121.4 54.2-157.8a126.7 126.7 0 0152-34.5c12.4-3.9 22.7-5 40.3-4.4 18.3.6 28.2 2.7 40.6 8.6 24.7 11.6 36.3 29.7 38.2 59.6l.7 10.5h82.7v19.4l19.3-19.5c29.6-29.9 49.7-47 76.2-64.4 69.4-45.7 135.6-56.5 186.7-30.3a99.8 99.8 0 0129.8 22.5c9.1 9.6 15.5 19 23.4 34.3 3.3 6.3 6.2 10.8 6.4 9.9.4-2.3-6.9-21.3-12-31.1-16.1-31.1-44-51.2-81.8-59.2-12.8-2.7-36.8-4-49.4-2.7-55.9 5.7-115.9 34.2-176.2 83.7l-11.1 9.2-1.2-6.7c-1.2-7.9-5.1-21.7-7.9-28.1l-1.9-4.4 13.6-8.4c61.3-37.8 114-58.4 164.6-64.3a280 280 0 0155.8 1.6c32.1 5.9 57 18.3 78 39 20.6 20.3 30.8 43.3 33.8 76.5 1.7 19.2 2.8 18.7 2.8-1.6.1-20-1.3-30.7-5.6-43.9a120.9 120.9 0 00-43.8-58.8c-20.5-15.3-50.1-25.8-85.5-30.3a346.2 346.2 0 00-61.9.2zM1024 576.4c0 2.2-4.8 24.9-7.7 36.1-9.2 36.1-20.1 58-38.1 76.7a106.7 106.7 0 01-61.3 32.2c-36.7 6.1-70.5-.4-87.9-17a43 43 0 01-15.2-36.4 50 50 0 0116.3-39.4c14.5-13.7 35.4-22.8 63.5-27.6 6.2-1.1 24.2-2.8 40-4 51.6-3.6 71.3-7.9 85.3-18.4 3.3-2.4 5.1-3.2 5.1-2.2zm91.5 35.8a201.7 201.7 0 0018.6 95.7 40.6 40.6 0 014.2 11.1c-1.8 1.5-20.4 4.5-27.8 4.5-9.9 0-13.9-2-17.3-8.5-2.1-4-2.3-5.5-1.9-13 .3-4.9 2.2-15.3 4.4-24.5 2.2-8.8 7.5-33.2 11.9-54.3l7.9-38.2v27.2z" fill="#869ab8" fill-rule="nonzero"/><path d="M1732.1 407.2c-4.6.5-13.4 2.2-19.5 3.7-63.5 16.1-126.1 68-183.4 152l-9.2 13.4v15.2h24l3.2-6a508.8 508.8 0 0155.9-82 338.7 338.7 0 0167-59.2 197.8 197.8 0 0159.3-24.5c13.5-2.9 37-3.1 49.6-.4a125.7 125.7 0 0161.8 34c5.7 5.3 10.5 9.6 10.8 9.6 2.5 0-9.7-15.1-19.6-24.3a116 116 0 00-28-20.2 126.2 126.2 0 00-71.9-11.3zm372.5 14.8a533.8 533.8 0 01-49.9 73c-9 10.9-33 34.7-43.9 43.4-43.3 34.9-88.2 50.3-128.8 44.1-25.6-3.8-45.7-14.4-69.3-36.5-4.8-4.6-9-8-9.4-7.7-.9.9 10 14.1 18.9 22.9a110.6 110.6 0 0057.6 31.2c41 7.8 86-3.5 129.8-32.6a317 317 0 0053.4-44.7 489.3 489.3 0 0064.1-78.3l7.9-11.7V417c0-4.4-.3-8-.7-8l-6.4.9c-5.1.9-9.7.4-13.9-1.3-1.1-.4-3.5 3-9.4 13.4z" fill="#869ab8" fill-rule="nonzero"/><path d="M1739.8 433c-32.6 7-59 22.9-88.3 53.2-37.3 38.6-67.6 97.5-85.5 166.1l-4.1 15.6 12.3 12.3a205.5 205.5 0 0120.9 23.8c.3 0 .9-4.8 1.3-10.8a442 442 0 0126.7-125.5 238.4 238.4 0 0154.8-84.8c28.7-28.8 59.8-43 94-42.9 18.9.1 34.7 3.8 55.9 13.2a54.4 54.4 0 0011.9 4.5c.7-.8-11.6-8.6-21.2-13.4-10.3-5.2-20.9-9-31.5-11.4a146.6 146.6 0 00-47.2.1z" fill="#869ab8" fill-rule="nonzero"/><path d="M1760.5 453c-59.8 12.9-102.5 70.4-116.1 156-2.2 14.1-3 58.5-1.5 77.4a656.4 656.4 0 0022.9 118.1l.8 3 21.7.3c11.9.1 21.7 0 21.7-.2 0-.3-3.4-8.9-7.6-19.3a502.6 502.6 0 01-34.9-126.8c-2.2-17.9-1.7-59 .9-73 10.7-58.3 35.8-98.7 73.6-118.3 20.6-10.8 34.6-13.6 63.8-13 11.1.2 19.9.1 19.5-.3-.5-.4-5.3-1.7-10.8-2.9a167 167 0 00-54-1z" fill="#869ab8" fill-rule="nonzero"/><path d="M1794 464c-35.8 6.6-60.7 22.7-79.2 51a153 153 0 00-20.3 50.5c-5.3 26.1-4.1 62.7 3.1 95.4 9.4 42.3 31.5 91.6 62.7 139.9l4.7 7.2h18.5a130 130 0 0018.5-.6c0-.3-4.7-6.4-10.5-13.7a439.4 439.4 0 01-54.5-84.2 272.4 272.4 0 01-26.5-73c-8.4-41.6-4.8-79 10.4-108.8a109.6 109.6 0 0137.4-43.1c11-7.3 20.3-11.6 36.2-16.6l15-5c3.5-1.5-5.2-1-15.5 1z" fill="#869ab8" fill-rule="nonzero"/><path d="M1785 475.2c-29.6 17.7-46.6 37.5-56.1 65.5-5.4 16-6.4 23.1-6.4 44.8 0 21.3.8 27.8 5.5 46.1 13.6 52.9 53.2 112 110.7 165l12.4 11.4 21.2-.1c21.1 0 21.2 0 18.7-1.9l-16.5-12.3a511.4 511.4 0 01-82.8-76.8c-29.4-36.1-47.8-71.9-55.4-107.9-1.4-6.7-1.8-13-1.7-30 0-20 .2-22.1 2.6-31a124.3 124.3 0 0146.1-67.2c17.3-13.5 17.8-15.1 1.7-5.6z" fill="#869ab8" fill-rule="nonzero"/><path d="M1779.5 490.1c-19.5 23.4-29.2 45.3-31.4 71.1-2.2 25.2 3 50.7 15.5 76.8a223.6 223.6 0 0048.8 66.5 376.2 376.2 0 0078.1 60c16.2 9.8 52.2 28.5 54.8 28.5.8 0 2.1-2.4 3.1-5.8 1.5-4.8 3.1-7 9.7-13.5 4.6-4.5 7.4-7.9 6.6-8.2-97.1-32.8-159.9-77.8-190.1-136.5-14.6-28.5-19.7-55-15.6-81.5a147.6 147.6 0 0123-55.4c3.3-5.1 5.9-9.8 5.7-10.4-.2-.6-3.9 3.2-8.2 8.4z" fill="#869ab8" fill-rule="nonzero"/></g></svg>