<svg viewBox="0 0 3827 1602" xmlns="http://www.w3.org/2000/svg"><path d="M248.8 610.1c-31.5 2.4-67.6 15-93.4 32.4a199.7 199.7 0 00-89.4 167c.1 75.2 42.5 144 109.3 177.5a240 240 0 0028 11.9c63 20.4 131.3 8.7 184.2-31.8a266 266 0 0032-31.1c14.5-17.4 28-42.1 35.4-64.7a189.4 189.4 0 009.8-69.3 197.7 197.7 0 00-60.9-136.6A198 198 0 00279.4 610c-15.2-1.1-15.2-1.1-30.6.1zm47.2 48.4a153.9 153.9 0 01119.2 120.2c3.1 14.3 3.1 45.3 0 59.6-7 31.7-20.2 55.8-42.6 78.2a119.8 119.8 0 01-35.9 26.4 157 157 0 01-27.5 9.6 106.5 106.5 0 01-43-1.1c-31.9-9.2-58.1-37.9-68.4-74.9a125 125 0 01-1.5-42.7 88.2 88.2 0 0191.5-71l3.2.2v12c0 6.6.3 12 .6 12 .9 0 70.4-51.4 70.4-52-.1-1.9-17.6-15.7-24.6-19.3-2.7-1.4-14.1-9.3-25.4-17.6L291.5 683l-.3 10.4-.3 10.3-12.2.1c-49.1.3-94.9 28.3-120.6 73.7a173.8 173.8 0 00-15.9 42c-2.5 10.2-2.7 12.6-2.6 33.5 0 23.2.9 30.5 5.8 46.5a31 31 0 011.3 5.2c-.6.5-8.3-10.5-13.4-19.2-9.7-16.4-17-38.5-19.4-58.6-1.6-13.7-.6-36.4 2.1-49.1a152 152 0 0181.6-106.1c14.9-7.5 27-11.2 48.4-15.1 6.2-1.1 42.7.3 50 1.9zM578.4 676.5c-.2.5-.3 61.1-.2 134.5l.3 133.5 26.3.3 26.3.2-.3-111.4c-.2-61.3 0-110.9.3-110.3a267 267 0 016.3 26.7A123435.8 123435.8 0 00678 931.2l3.2 13.8h54.3l3.8-16.8a10961.2 10961.2 0 0021.2-93.7 7386 7386 0 0014-62l7-31 3.8-17c.3-1.1.5 48.1.6 109.2L786 945h52V675.5l-40.5.3c-37.6.2-40.5.4-40.5 2 0 .9-1.6 8.2-3.5 16.2l-7.5 32.5-7.1 31-12.4 54-7 30.5-6.6 28.7c-1.8 7.9-3.6 14-4 13.5a406 406 0 01-6.9-27.7c-7.5-33-13.1-56.9-17-73.5-2.5-10.6-19.9-85.8-23.4-101.5l-1.1-5-40.9-.5c-26.8-.3-41-.2-41.2.5zM2564 810.4V945h60.3c33.1 0 64.4-.5 69.4-1a95.2 95.2 0 0074.5-45.6c14.7-22.7 23.8-58.5 23.8-93.1 0-13.6-1.2-25.3-4.1-40.8-7.8-40.7-32.3-71.9-65.1-82.6-16-5.3-14.5-5.2-89-5.6l-69.8-.4v134.5zm129.3-85.5c18.1 4.7 27.9 13.9 34.3 32.3 3.8 10.8 5.2 18.5 6.5 36.3 3 39.8-6.1 73.3-24.4 90.1a46 46 0 01-23.2 12.4c-7 1.8-11.1 2-37.7 2H2619V723h33.3c29.8 0 34.2.2 41 1.9zM2834 810.5v134.7l72.3-.5c77.9-.5 78.9-.6 97.2-6.2a77.6 77.6 0 0050.1-54c2.7-10.2 2.6-33.3-.3-43.2a59.2 59.2 0 00-30.4-37.1l-7.8-3.8 8-5.3c16.5-10.9 23.9-26.2 23.9-49.6a64.3 64.3 0 00-43.3-63.6c-18.8-5.7-11.4-5.3-93.9-5.6l-75.8-.4v134.6zm136.8-85.9c10.7 2.1 15.9 5.5 19.6 12.7 2.5 4.9 3 7 3 13.5 0 14.5-4.4 21.9-16.2 26.7-9.4 3.8-17.2 4.4-54.9 4.5H2888v-59h37.5c30.1 0 39.1.3 45.3 1.6zm3.7 103.9c11.5 3.3 17.9 8.1 21.9 16.5 1.7 3.7 2.1 6.4 2.1 15 0 11.8-1.1 16.6-5.5 23.2a31 31 0 01-17.2 12.1c-5.9 2-8.6 2.2-47 2.5l-40.8.3V825.8l40.3.5c33.8.4 41.1.7 46.2 2.2zM1885 720v28h-27v37h27v63.2c0 67.1.3 71.7 4.8 80.4 4.1 7.9 13.5 14.2 25.4 16.8 6.8 1.6 19.9 2.1 40.6 1.8l13.2-.2v-38.7l-12.2-.6c-6.8-.3-13.2-.9-14.3-1.2-5-1.5-5-.9-5.3-63.3l-.3-58.2h32.1v-37h-32v-56h-52v28zM962 740.1c-26.3 2.2-48.3 12.5-62 29a118.3 118.3 0 00-26.7 82.9c1.5 29.4 12.8 57 30.9 74.8 7.6 7.4 9.8 9 20.1 14.3 27.3 14 73.5 14.1 100.9.3 25.1-12.7 42.4-37.7 49.4-71.7a173 173 0 00-.1-48.2c-5.9-28.7-20.3-52.4-40.2-66.3-4.4-3.1-15.8-8.6-21.8-10.5a146 146 0 00-50.5-4.6zm33.2 47.7c11.6 5.7 19.6 16.6 24.1 32.7 3 11.1 3.5 33.3.9 45.8-5.1 24.5-17.2 37.9-36.9 40.8a54.5 54.5 0 01-29.1-3.3 55.8 55.8 0 01-19.4-19.8 99.7 99.7 0 01-.3-75.5 38 38 0 0114.7-17.7c8.8-5.8 12.7-6.8 26.8-6.5 11.9.2 12.9.4 19.2 3.5zM3649 740.1c-37.4 3.1-61.5 19.6-77.5 53.2a118.5 118.5 0 00-11.2 59.2c1.2 24.1 7.1 42.4 19.7 61.1 15.3 22.5 36.4 34.1 68.5 37.5 18.8 2 43.3-1.1 58.4-7.3 25.5-10.6 44.3-34.3 52.9-66.8 2.3-8.7 2.5-11.4 2.6-30.5.1-19.9 0-21.6-2.7-32-8.8-34.3-31.9-61.1-60.2-69.8a147 147 0 00-50.5-4.6zm27.4 45.5a38.9 38.9 0 0124.9 22.5c10.8 22.8 9.7 61.2-2.2 79.8a51 51 0 01-17.5 16.2 56.9 56.9 0 01-41.4-.7c-11-5.4-19.9-18.1-23.9-33.9-2.5-10.1-2.4-38.3.2-48 4.9-18.8 15.5-31.6 30-36.1 6-1.9 24.1-1.8 29.9.2zM1214.5 741.7c-17.8 1.4-29.7 6.5-39.5 16.9-3.4 3.7-7.5 8.7-9 11.1-1.5 2.3-3 4-3.4 3.6a93 93 0 01-.6-14V746h-50v199h51.9l.3-66.3c.4-64.3.4-66.4 2.5-72.5 2.7-8.1 5.9-12.1 12.1-15.5 9.1-5 26.6-5.7 34.9-1.4 3.6 1.9 8.1 6.4 10 10 3.9 7.7 4.3 13.8 4.3 80.9V945h52v-60.3c0-33.3.5-63.2 1-66.9a37.3 37.3 0 0110.4-23.3c6.2-6.1 12.7-8.5 23-8.5 9.6 0 15.9 2.3 21.2 7.5 8 8 7.8 5.8 8.1 83.2l.4 68.3h52.9v-72.3c0-83.5-.2-85.4-7.1-98.9a59 59 0 00-56-31.9c-24 0-43 9.2-55.5 26.7l-4.6 6.4-3-6.1a48.7 48.7 0 00-21.3-21.5c-9-4.2-23.6-6.5-35-5.7zM1501.5 742.5a86.1 86.1 0 00-60.5 44.8c-4.2 7.9-9 23-11.1 34.7-.7 4.5-1.2 15.2-1.2 26.5.1 20.2 1.4 29.1 6.6 45.1 8.4 25.6 32.1 46.3 62.7 54.6a87 87 0 0027.5 2.3c17.6 0 19.7-.2 28.7-2.7a82.7 82.7 0 0036.7-20.3 80.5 80.5 0 0021.5-32.4c2.9-9.9 5.2-9.1-24.6-9.1h-26.3l-2.3 4a35.7 35.7 0 01-33.7 19 43.2 43.2 0 01-31.5-12 56.5 56.5 0 01-13-33.3V860h136v-11.4c0-24.6-3.2-41.8-10.6-57.5a81.5 81.5 0 00-62.9-48.7c-9.8-1.7-32.3-1.7-42 .1zm39.9 45.5c11.5 5.8 18.6 16.8 21.1 32.7l.7 4.3h-40.7c-38.2 0-40.6-.1-40.2-1.8a59 59 0 0112.2-28c7.9-8.9 14.4-11.3 29.1-10.9 10.4.2 11.4.4 17.8 3.7zM1746.2 742.4a62.7 62.7 0 00-40.9 27.2 16.8 16.8 0 01-3.5 4.4c-.5 0-.8-6.3-.8-14v-14h-50v199h51.9l.4-61.8c.3-59.1.4-62 2.4-68.9 3.7-12.9 9.8-21 19.5-25.7a41.8 41.8 0 0125.5-3.7c9.3 1.4 15.7 4.7 20.1 10.5 6.7 9 6.6 6.8 6.9 81.8l.4 67.8h53l-.4-76.8c-.3-84.5 0-80.1-6.8-95-6.1-13.4-23.3-26-40.5-29.7a122.7 122.7 0 00-37.2-1.1zM2331 741.8c-15.3.8-29.2 6-37.3 14-2.7 2.6-7.2 7.8-10 11.7l-5.2 6.9-.3-14.2-.3-14.2H2228v199h53v-65.8c0-72.1.1-73.5 5.9-81.7 7.9-11.2 32-14.8 45-6.7 5.3 3.2 9.5 10.5 11.1 19.1.6 3.2 1 31.3 1 70.3V945l26.3-.2 26.2-.3.5-66c.6-72.7.5-71.3 6.9-80.2 6.1-8.5 14.4-12.3 26.5-12.3 16.2 0 25.2 7.2 28.5 22.8.7 3.6 1.1 26.1 1.1 70.7V945h53l.2-64.8c.3-69.3-.1-84.1-2.7-94.8a59.7 59.7 0 00-43.9-42.1c-9.1-1.9-24.2-1.8-33.7.1a65 65 0 00-38.4 25 29.2 29.2 0 01-4.4 5.6c-.3 0-1.9-2.6-3.6-5.7a48.4 48.4 0 00-21.4-21.1 74.5 74.5 0 00-34.1-5.4zM3303.5 741.7a66 66 0 00-26 6.8 46.6 46.6 0 00-16.5 12.2c-4.2 4.3-8.6 9.1-9.8 10.8l-2.1 3-.1-14.3V746h-50v277h52l.1-51.3c0-48.2.1-51.1 1.7-48.7 4 6 15.7 17 21.2 19.9 9 4.8 19.6 7.2 32.6 7.2 6.1 0 12.1-.2 13.5-.5a74.1 74.1 0 0036.5-16c23.5-18.8 34.4-47.2 34.4-90.1 0-32.7-5.9-53.7-20.3-72a77.6 77.6 0 00-60.2-29.9c-1.6-.1-4.8-.1-7 .1zm6.9 48.4c11.3 4.4 21.1 18.2 25.2 35.4 2.4 10.3 2.2 33.5-.5 43.6-4.2 16.3-13 28.9-23.6 33.8a47.7 47.7 0 01-38.1-.7 41.6 41.6 0 01-21-26.2c-2.7-8.1-2.9-9.4-2.9-27 0-16.3.3-19.5 2.3-27a52.9 52.9 0 0112.6-24c4.7-4.7 7.8-6.6 15.6-9.2a55.5 55.5 0 0130.4 1.3zM3522 742.5c-15.5 2.6-27.1 11.2-39 28.8l-6 8.8V746h-50v199l26.3-.2 26.2-.3.5-58c.5-56.4.6-58.2 2.8-64.5a37 37 0 0124.5-25.3c5.1-1.7 8.8-2.1 21-2.1l14.7-.1-.2-26.5-.3-26.5-6.5-.2c-3.6-.1-9.9.4-14 1.2zM2000.3 818.2c.4 76.2.4 76 5.1 91.1a54.7 54.7 0 0032.6 35.1 94.8 94.8 0 0061.6-1.3 76.1 76.1 0 0027.6-23.1c1.6-2.4 1.7-2 1.7 11.2l.1 13.8h51V746h-53v58.2c0 34.5-.4 61-1 64.8-2.6 16.8-9.2 27.2-20.5 33-6.5 3.3-7.6 3.5-18.4 3.8-11.5.4-11.7.4-18.1-3-7.3-3.8-10.7-8-13.6-16.8-1.6-5-1.8-11.6-2.2-72.8l-.4-67.2h-52.9l.4 72.2zM3097 917.5V945h55v-55h-55v27.5z" fill="#869ab8" fill-rule="nonzero"/></svg>