<svg viewBox="0 0 1051 190" xmlns="http://www.w3.org/2000/svg" style="height: 100px;"><path d="M60.1 4.5c-18.7 5.3-32.3 22-41.9 51.6C8 87.5 3 113.6 3 135.3c0 20.6 3.1 31.3 11.7 40.8 6 6.7 12.2 9.2 23.4 9.7 17.1.8 24.3-2.8 45-22.4 17.7-16.8 25.8-20.4 45.9-20.4 19.9 0 28.5 4 47.5 22.1 18.2 17.4 25 20.9 40.5 20.9 11.4 0 18.2-2.4 24.4-8.6 17-17 17.7-52.5 2.1-107-9.9-34.5-18.3-49.8-32.6-59.3A48.4 48.4 0 00180.1 3a73.2 73.2 0 00-32.9 6.6 46.5 46.5 0 01-16.2 4.1c-7.9.6-7.7.6-29-7.2a54.3 54.3 0 00-22-3.1c-10.8-.3-15.9 0-19.9 1.1zM99.5 15c5 1.7 11.3 4 14 5.1 8 2.9 23 2.6 32-.7 18.5-6.9 21.1-7.6 30.5-8.1 32.2-1.8 47 15.1 61.5 70 9.9 37.2 11.1 66.8 3.6 81.6-3 5.7-6.8 9.9-11.5 12.4-3.3 1.7-5.8 2.2-12.6 2.2-12.5 0-18.1-3-34.3-18.5-17.4-16.5-24.4-20.7-39.5-23.6a79.4 79.4 0 00-38.8 2.5c-8.8 3-16.2 8.2-29.5 20.8-15 14.1-21.8 18.2-32.2 19-16 1.3-26.3-7.8-30.3-26.8C6.2 122 25.2 45.7 43.8 25c9.3-10.4 19.1-14.1 35.7-13.6 9.4.3 12.3.8 20 3.6z" fill="#869ab8" fill-rule="nonzero"/><path d="M67.1 18C51.4 21.3 41 34.3 32 61.9c-14.2 43.4-18.1 83.5-9.7 99.7 5.2 10.1 18.5 13 31.2 6.9 3-1.5 10.1-7.3 17.8-14.5 12-11.3 23.4-20 26.3-20 2.7 0 2.2-1.9-1.9-6.3-21.3-22.8-20.2-80.9 1.9-100.6l5.6-4.9-6.6-2.1c-7.7-2.4-23-3.5-29.5-2.1zM169.2 18.1c-2.8.5-7.6 1.8-10.5 2.8-11.9 4.5-14.7 5.6-14.7 6.2 0 .3 2.5 1.6 5.5 2.8 3 1.3 9.1 4.5 13.5 7.1 28.4 17.1 39.8 36.6 31.5 53.6-5.6 11.4-21.5 25.3-38.3 33.5-5 2.4-9.1 4.7-9.2 5.1 0 .3 1.5 1 3.3 1.3 4.6 1 14.8 5.8 20.1 9.4 2.5 1.8 10 8.3 16.6 14.6 6.6 6.3 14.2 12.6 16.9 13.9 14.7 7.5 28.8 2.1 33.6-13 2.6-7.9 2.7-28.6.1-43.9a406 406 0 00-13.2-52.4c-11.8-34.7-26.6-45.7-55.2-41z" fill="#869ab8" fill-rule="nonzero"/><path d="M106.2 34.3c-.9 1.1-1.2 11.7-1 42.8l.3 41.4 3.5.3c2.9.2 9.1-2.9 38-19.2 18.9-10.6 35-20.3 35.8-21.4 1.1-1.7 1-2.3-1-4.5-2.8-3-67.5-39.5-71.6-40.3-1.8-.4-3.2-.1-4 .9zM904.1 4.7c-11.5 5.7-11.4 25.1.2 30.6a23.8 23.8 0 0017.4 0c11.7-5.5 11.7-25.1 0-30.6a24.8 24.8 0 00-17.6 0zM405.2 69.2c.3 55.7.4 57.4 2.4 61.8 1.1 2.5 3.3 5.9 4.8 7.7a28 28 0 0016.8 8.3h3.8V12h-28.1l.3 57.2zM327.3 40.5a54 54 0 00-36.2 28.6c-5.8 11.9-6.3 16.5-5.9 60l.3 37.4 3 5.4c1.6 2.9 4.5 6.6 6.4 8.2a28.9 28.9 0 0015.3 5.9h2.8v-23.1c0-21.6.1-23.1 1.8-22.4a46.8 46.8 0 0022.2 5.2c17.4.8 30.2-3.9 41.5-15.2A50.8 50.8 0 00394 93.1a49 49 0 00-5.2-24.1 65.2 65.2 0 00-22.5-23.3c-11.3-6-26.1-8-39-5.2zm24.4 29.1c9 4.3 14.7 13.4 14.6 23.4-.1 7-2.1 11.7-7.3 17.4a28 28 0 01-18.8 8.6c-13 0-25.1-10.5-26.8-23.2a27.3 27.3 0 0113.8-25.9 26 26 0 0124.5-.3zM488 40.6a50 50 0 00-26.5 14.8A50.5 50.5 0 00446 93c0 17.9 8.1 33.4 22.8 43.4a49 49 0 0028.3 9.4 51 51 0 0027.9-5.4l7.3-3.5 3.1 3c4 3.9 11.1 7.1 15.9 7.1h3.7v-29.8c0-33.5-.9-40-7.2-51.1A55.8 55.8 0 00488 40.6zm21.9 28.1A26.3 26.3 0 01526.7 90c2.1 18.1-16.9 33.4-34.4 27.6-18.6-6.2-24.5-29.4-10.9-42.9 8.1-8.1 17.2-10 28.5-6zM728 40.6a56.4 56.4 0 00-35.8 27A55 55 0 00694 121a54 54 0 0045.8 25c10.2 0 17.8-1.7 26.3-6.1l6.1-3.1 3.2 3.1c4 3.9 11.1 7.1 15.9 7.1h3.7v-30.3c0-33.6-.6-38.5-6.3-49.1a60 60 0 00-22.9-22.4 56.8 56.8 0 00-37.8-4.6zm23.2 28.2c4.7 1.9 11.5 9 13.8 14.4a20 20 0 011.7 11.5c-2.1 26.7-38.1 33.2-50.1 9.1-10.6-21.3 12-44.1 34.6-35zM981.5 40.1A60.1 60.1 0 00954.4 55a50.8 50.8 0 00-15.6 38.5 52 52 0 0027.9 46.3 58.2 58.2 0 0052.4.1l5.6-3 3.1 2.9c4.1 3.8 9.5 6.4 14.9 7l4.3.5v-32c0-34.5-.3-37-5.8-47.8a65 65 0 00-20.2-20.9 62.7 62.7 0 00-39.5-6.5zm22 28.9a27.2 27.2 0 0116 20.7c1 6.4-1.7 14.5-6.8 20-6.2 6.7-10.7 8.8-19.7 8.8s-13.5-2.1-19.7-8.8a25 25 0 016.2-39.3 25.8 25.8 0 0124-1.4zM836.4 41a45.7 45.7 0 00-17.8 9.1 31 31 0 00-8.7 28.1c2.4 10.9 7.5 15.4 28.6 24.8 13.9 6.2 19.5 10.8 19.5 15.9 0 6.5-4.4 10.1-12.5 10.1-6.5 0-10.9-2.4-15.1-8.1-2-2.7-3.9-4.9-4.2-4.9-.4 0-5.8 2.1-12 4.7-7.9 3.3-11.1 5.1-10.7 6.1.3.7 2.2 3.8 4.2 6.9a40.2 40.2 0 0033.3 18c19.2 1.2 34.7-6.5 42.1-20.9a42.5 42.5 0 002-23.6c-2.4-8.8-11.5-15.8-30.7-23.8C843 78.7 835 73.2 835 70.1c0-.7 1.4-2.6 3-4.3 4.4-4.3 9-3.5 14.5 2.5l4 4.4 11.3-5.3a72 72 0 0011.2-5.9 43.3 43.3 0 00-19.8-19c-5.7-2-17.1-2.7-22.8-1.5zM899 85.8c0 48 0 48.3 8 56.2 4.7 4.8 11.7 8 17.2 8h2.8V44h-28v41.8zM565 73c0 28.8.6 33.2 5.7 43.7a54.8 54.8 0 0029.8 26.5c5.1 2 7.9 2.3 19 2.3 13.2-.1 12.9 0 24.8-5 1.6-.7 1.7.2 1.7 10.7 0 7.2.5 13.3 1.5 16.4a26.4 26.4 0 0021.4 18.1l5.1.6V47h-28v24.8c0 27.3-.6 30.8-5.9 37.3-3.9 4.7-12 8.9-18.5 9.6a26.8 26.8 0 01-26.2-15.1c-2.3-4.9-2.4-5.9-2.4-30.9V47h-28v26z" fill="#869ab8" fill-rule="nonzero"/></svg>