<svg xmlns="http://www.w3.org/2000/svg" viewBox="0 0 210 100"><defs><clipPath id="a" clipPathUnits="userSpaceOnUse"><path d="M128.7 807.8h334.4v-65H128.7z"/></clipPath><clipPath id="b" clipPathUnits="userSpaceOnUse"><path d="M128.7 742.9h334.4v64.9H128.7z"/></clipPath><clipPath id="c" clipPathUnits="userSpaceOnUse"><path d="M175 747h241v56H175z"/></clipPath><clipPath id="d" clipPathUnits="userSpaceOnUse"><path d="M128.7 882.6h334.4v-215H128.7z"/></clipPath><clipPath id="e" clipPathUnits="userSpaceOnUse"><path d="M128 742h336v66H128z"/></clipPath></defs><g clip-path="url(#a)" transform="matrix(.81922 0 0 -.81922 -137.4 691.5)"><g clip-path="url(#b)"><g clip-path="url(#c)"><g clip-path="url(#d)"><g clip-path="url(#e)"><path fill="#869ab8" d="M248.3 782.5c-.4.2-.5.3-.5.9l.2 3.4c0 .4 0 .6.3.6s.3-.2.3-.4c0-.3 0-.9.2-1.3.6-2 2.6-2.6 4.2-2.6 2.3 0 3.7 1.5 3.7 3.3 0 1.1-.2 2.2-2.6 3.6l-1.5 1c-3.2 1.8-4.2 3.5-4.2 5.7 0 3.2 3 5.2 6.7 5.2 1.7 0 3-.2 3.8-.4.2 0 .3-.2.3-.3V798c0-.6-.2-.8-.4-.8s-.3.1-.3.4a2.9 2.9 0 01-.7 1.7c-.4.5-1.2 1.2-3 1.2s-3.5-1-3.5-2.7c0-1.2.4-2 2.8-3.4l1-.6c3.6-2 4.6-4 4.6-6.2 0-2-.7-3.5-2.6-4.8-1.3-1-3-1-4.4-1-1.6 0-3.2 0-4.4.6m21.5 17.5l-4-.1c-1.5 0-2.1-.2-2.5-.8a3 3 0 01-.5-.9c0-.2 0-.3-.3-.3s-.2.2-.2.4l.6 3.1c0 .4.1.5.3.5l1.1-.3 2.7-.1h10.7l1.9.1.7.1c.2 0 .2-.1.2-.5V798l-.3-.4c-.2 0-.3 0-.3.5v.2c-.1.7-.8 1.5-3.2 1.5h-3.3v-10.3l.1-5.5c.1-.7.3-1.2 1-1.3l1.4-.1c.3 0 .4-.1.4-.3 0-.1-.2-.2-.5-.2H268.1c-.4 0-.6 0-.6.2s.1.3.5.3l1 .1c.5.1.6.6.7 1.4l.1 5.4zm22.6-10c.1 0 .2 0 .1.2l-2.5 6.5-.1.2-.1-.2-2.6-6.5v-.2zm-5.7-1.4l-.2-.2-1.4-3.4a4.7 4.7 0 01-.4-1.6c0-.4.2-.7 1-.7h.4c.4 0 .4-.1.4-.3 0-.2-.1-.2-.4-.2h-6c-.4 0-.5 0-.5.2s0 .3.3.3h.8c1.2.2 1.6 1 2.2 2.3l7 16.1c.2.8.4 1 .7 1 .4 0 .5-.2.8-.8l6.7-15.8c1-2.3 1.8-2.6 2.3-2.7l1-.1c.2 0 .4 0 .4-.3 0-.2-.2-.2-1.2-.2h-5.1c-.5 0-.8 0-.8.2s0 .3.4.3c.1 0 .3.3.2.6l-2 5.1c-.1.2-.2.2-.3.2zm21.6 12.9c0 .4.3.6.5.6.3 0 .4-.1.8-.8l7.1-14.3 7.1 14.5c.2.4.5.6.7.6.2 0 .5-.2.6-.8l2.4-15.8c.3-1.6.5-2.3 1.3-2.6a5.3 5.3 0 011.5-.2c.3 0 .5 0 .5-.2s-.3-.3-.7-.3a214 214 0 00-5.5.1c-.6 0-.8.2-.8.3 0 .2.1.3.3.3.2 0 .2.4.1 1.1l-1.5 11.1-5.7-11.5c-.6-1.2-.8-1.4-1.1-1.4-.3 0-.6.5-1 1.3a170.1 170.1 0 00-3.1 5.8l-2.7 5.5-1.3-10a8.5 8.5 0 01-.1-1.2c0-.5.4-.7.8-.8l1-.1.4-.2c0-.3-.3-.3-.7-.3h-5.4c-.3 0-.5 0-.5.3l.4.2h.9c.7.2 1 1.2 1 2zm30.6-12l.1-5.3c.1-.8.3-1.3 1-1.4l1.4-.1c.3 0 .4-.1.4-.3 0-.1-.1-.2-.5-.2H333.6c-.3 0-.5 0-.5.2s0 .3.4.3l1 .1c.5.1.6.6.7 1.4l.1 5.4v10c0 .8-.3 1.1-1.1 1.4a5 5 0 01-1.1 0c-.2 0-.5.1-.5.3 0 .2.2.3.7.3l3.8-.1h7.5l1.1.1.4.2.2-.3-.2-1.1-.1-2.1c0-.2-.1-.5-.3-.5-.2 0-.3.1-.3.4 0 .2 0 .6-.2 1-.2.3-.7.7-1.7.8h-4.4c-.1 0-.2 0-.2-.3v-6.2c0-.2 0-.3.2-.3h4.9c.5.1.9.2 1 .5.2.2.3.3.5.3l.1-.2-.2-1.7-.1-1.9c0-.2 0-.5-.3-.5-.1 0-.2.1-.2.3l-.2.8c-.1.4-.5.9-1.3 1a108.3 108.3 0 01-4.4-.2zm27.7 1.9c0 5.7-3.4 9.2-7.7 9.2-3 0-6.4-1.6-6.4-8 0-5.2 3-9.4 8-9.4 1.9 0 6 .9 6 8.2m-18 .5c0 4.3 3.1 10 11.2 10 6.7 0 10.8-3.7 10.8-9.6 0-5.9-4.3-10.5-11.1-10.5-7.7 0-10.9 5.5-10.9 10m29.4.3c0-.2 0-.3.2-.4a7.3 7.3 0 012-.3c1 0 1.4.1 1.9.5.8.5 1.7 1.7 1.7 3.8 0 3.6-2.5 4.5-4 4.5a9.7 9.7 0 01-1.6 0c-.2-.1-.2-.2-.2-.4zm-3.4 2v5.5c-.1.8-.4 1.1-1.2 1.3a4.9 4.9 0 01-1 .1c-.3 0-.5.1-.5.3 0 .2.2.2.6.2H380c1.7 0 3.7-.1 5-1a4.5 4.5 0 002-3.6c0-1.9-1.1-3.6-3.7-5.6 2.3-3 4.2-5.3 5.8-6.9 1.5-1.4 2.4-1.6 2.8-1.6l.7-.1c.2 0 .3-.2.3-.3 0-.2-.2-.2-.5-.2h-2.6c-1.4 0-2.2.1-2.9.5a12 12 0 00-3.6 3.7L381 790a.6.6 0 01-.5.2h-2.3l-.2-.1v-.4l.1-5.5c.1-.7.2-1.2 1-1.3l1.3-.1c.2 0 .4-.2.4-.3 0-.2-.3-.2-.6-.2H372.7c-.3 0-.5 0-.5.2 0 .1.1.3.4.3l1 .1c.5.1.7.6.8 1.3v5.5zm25.6-2.8a146.4 146.4 0 01.4-7c.3-.5 1.4-1 3.5-1 2.4 0 4.2.4 5.8 1.7 1.7 1.4 2.2 3.7 2.2 6.4 0 3.2-1.3 5.3-2.4 6.4a10.7 10.7 0 01-7.5 2.4c-.5 0-1.4 0-1.6-.2-.2 0-.3-.2-.3-.5v-5zm-3.5 2.8v5.5c-.1.8-.3 1.1-1.2 1.3a4.9 4.9 0 01-1 .1c-.3 0-.5.1-.5.3 0 .2.2.2.6.2h8.1c3.4 0 7.8 0 10.7-2.9a9 9 0 002.5-6.5 10 10 0 00-2.9-7.1c-1.2-1.2-4-3-8.9-3l-3.1.1-2.7.1h-3.4c-.3 0-.5 0-.5.2 0 .1.1.3.4.3l1 .1c.5.1.7.6.8 1.4v5.4z"/><path fill="#869ab8" d="M254.7 767s.1.1 0 .2l-1.3 3.5v.1l-.1-.1-1.4-3.5v-.1zm-3-.7h-.2l-.7-2a2.5 2.5 0 01-.2-.8c0-.2.1-.4.5-.4h.2l.3-.1c0-.1-.1-.2-.3-.2h-3.2c-.2 0-.3 0-.3.2l.2.1h.4c.7.1.9.6 1.2 1.3l3.7 8.7c.2.3.3.5.5.5s.2-.1.4-.4l3.6-8.5c.6-1.3 1-1.5 1.2-1.5h.6l.2-.2c0-.1-.1-.2-.6-.2h-2.8c-.3 0-.4 0-.4.2l.2.1s.2.2 0 .3l-1 2.8-.2.1zm11.3 7c0 .2.1.3.3.3.1 0 .2 0 .4-.4l3.8-7.8 3.9 7.8c0 .3.2.4.3.4.1 0 .3-.2.4-.5l1.3-8.5c.1-.8.2-1.2.7-1.3l.8-.2.2-.1-.4-.2a88.7 88.7 0 00-3.4.3l.2.1v.6l-.7 6-3.1-6.2c-.4-.6-.4-.8-.6-.8-.2 0-.4.3-.6.8a87.6 87.6 0 00-3 6l-.8-5.4a4.6 4.6 0 010-.6c0-.3.2-.4.4-.4h.5l.2-.2c0-.1 0-.2-.3-.2h-2.9c-.2 0-.3 0-.3.2l.2.1h.5c.4.1.5.7.6 1.1zm15-4l-.1 3c0 .4-.2.5-.6.7a3 3 0 01-.6 0l-.2.1c0 .1 0 .2.3.2h6.8v-1l-.1-.8c0-.1 0-.3-.2-.3v.2l-.2.5c-.1.3-.2.4-1 .5a53.5 53.5 0 01-2.3 0v-3.5l.1-.1a69.2 69.2 0 013.2.2l.2.2.1-.1v-1l-.1-1s0-.3-.2-.3l-.1.1v.5c-.1.3-.3.5-.8.6a51.6 51.6 0 01-2.4-.1v-1.1-2c0-1 .5-1.2 2-1.2.3 0 1 0 1.3.2.4.1.5.4.6 1l.2.2.1-.3c0-.3 0-1.3-.2-1.5 0-.4-.2-.4-.7-.4H277c-.2 0-.3 0-.3.2l.2.1h.5c.3.1.4.4.5.8v3zm11.2-1c0-.2 0-.3.2-.3l1-.2c.6 0 .8 0 1 .3.5.3 1 .9 1 2 0 2-1.3 2.5-2.2 2.5h-.8l-.2-.3zm-1.8 1v3c0 .4-.2.5-.6.7a2.9 2.9 0 01-.6 0l-.2.1c0 .1 0 .2.3.2h4.2a5 5 0 002.7-.6 2.4 2.4 0 001-1.9c0-1-.6-2-2-3l3.1-3.7c.8-.8 1.3-.9 1.6-1h.3l.2-.1c0-.1-.1-.2-.3-.2h-1.3c-.8 0-1.2.1-1.6.3-.6.3-1.2 1-2 2l-1.3 2a.3.3 0 01-.3 0h-1.4v-.3l.1-2.9c0-.4.1-.7.6-.7h.7l.2-.2-.3-.2h-4c-.2 0-.3 0-.3.2l.2.1h.5c.3.1.4.4.5.8v3zm12.3 0v3c0 .4-.2.5-.5.6l-.5.1c-.2 0-.3 0-.3.2H302.8c0-.2 0-.2-.2-.2h-.4c-.4-.1-.5-.3-.6-.8v-5.4-3c.1-.3.2-.6.6-.6h.8l.2-.2c0-.1-.1-.2-.3-.2H298.7c-.1 0-.2 0-.2.2l.2.1h.5c.3.1.4.3.4.7l.1 3zm6.5-5.1a5.1 5.1 0 00-1.8 4 5 5 0 001.7 3.8c1 1 2.4 1.5 4.5 1.5 1 0 1.4 0 2.1-.2l1.4-.2c.2 0 .2 0 .2-.2v-.7-1.5c0-.2-.1-.4-.3-.4l-.1.3c0 .5-.2 1-.6 1.3-.5.5-1.4.8-2.7.8-1.3 0-2-.2-2.7-.8-1-.9-1.4-2.2-1.4-3.6a4.6 4.6 0 014.5-4.8c1.3 0 2 .1 2.5.7.3.3.5.7.5 1 0 .2 0 .2.2.2.1 0 .2 0 .2-.2l-.3-1.8c-.1-.3-.2-.3-.4-.4a8.4 8.4 0 00-2.6-.3c-2 0-3.6.4-4.9 1.5m15.4 2.9l-1.3 3.6v.1l-.2-.1-1.3-3.5v-.1zm-3-.8h-.2l-.8-2a2.5 2.5 0 01-.2-.8c0-.2.1-.4.6-.4h.2l.2-.1c0-.1 0-.2-.2-.2h-3.3c-.2 0-.2 0-.2.2l.1.1h.4c.7.1 1 .6 1.2 1.3l3.8 8.7c.1.3.3.5.4.5.2 0 .3-.1.4-.4l3.7-8.5c.5-1.3 1-1.5 1.2-1.5h.5l.2-.2c0-.1 0-.2-.6-.2h-2.8c-.2 0-.4 0-.4.2l.2.1c.1 0 .2.2.1.3l-1 2.8-.2.1zm11-1.6c0-1 .1-1.4.4-1.5h.8l.2-.2c0-.1-.1-.2-.3-.2h-1.9-1.5c-.2 0-.3 0-.3.2l.2.1h.6c.4.2.5.6.5 1.8l.1 8.1c0 .3.1.5.3.5l.6-.4 4.4-4.4 3-3.1h.1l-.1 6.1c0 .8-.2 1.1-.5 1.2l-.8.1-.2.1c0 .2.2.2.4.2h3.2c.2 0 .3 0 .3-.2l-.2-.1h-.5c-.4-.2-.5-.4-.5-1.2l-.2-8.7c0-.3 0-.4-.2-.4l-.6.3-4.1 4c-1.6 1.4-3.1 3.1-3.4 3.3zm17.7-1.7c-.2.1-.2.2-.2.5v1.8l.2.4c.2 0 .2-.2.2-.3l.1-.7c.3-1 1.4-1.3 2.3-1.3 1.2 0 2 .7 2 1.7 0 .6-.2 1.2-1.5 2l-.8.5c-1.7 1-2.2 1.9-2.2 3.1 0 1.7 1.6 2.8 3.6 2.8a8.5 8.5 0 002-.3l.2-.1v-1.7c0-.3-.1-.4-.2-.4s-.2 0-.2.2c0 .1 0 .6-.3 1-.2.2-.7.6-1.6.6-1 0-2-.6-2-1.5 0-.6.3-1.1 1.5-1.8l.6-.4c1.9-1 2.5-2 2.5-3.3 0-1-.4-1.8-1.4-2.6a4.2 4.2 0 00-2.4-.5c-.9 0-1.7 0-2.3.3m9.9 1.1a5.1 5.1 0 00-1.8 4.1c0 1 .3 2.6 1.7 3.8 1 1 2.4 1.5 4.5 1.5.9 0 1.4 0 2-.2l1.5-.2c.2 0 .2 0 .2-.2v-.7l-.1-1.5c0-.2 0-.4-.2-.4l-.1.3c0 .5-.2 1-.6 1.3-.5.5-1.4.8-2.7.8-1.3 0-2.1-.2-2.7-.8-1.1-.9-1.4-2.2-1.4-3.6a4.6 4.6 0 014.5-4.8c1.3 0 2 .1 2.5.7.3.3.5.7.5 1 0 .2 0 .2.2.2 0 0 .2 0 .2-.2s-.2-1.4-.4-1.8c0-.3 0-.3-.3-.4a8.4 8.4 0 00-2.6-.3c-2 0-3.6.4-5 1.5m18.9 4.6v3.4c0 .5-.1.6-.6.8h-.6l-.2.1c0 .1.1.2.3.2h4c.2 0 .3 0 .3-.2s-.1-.1-.3-.1a2.4 2.4 0 01-.4 0c-.4-.1-.5-.3-.5-.8v-5.4-3c0-.3.2-.6.6-.6h.7c.2 0 .3-.2.3-.2l-.3-.2H375.2c-.2 0-.3 0-.3.2l.2.1h.6c.3.1.3.4.4.8v4h-5.4-.1v-1-3c.1-.4.2-.7.6-.7h.7c.2 0 .3-.2.3-.2 0-.1-.1-.2-.3-.2H367.7c-.2 0-.3 0-.3.2l.3.1h.5c.3.1.3.4.4.8v8.4c0 .4-.1.5-.6.7a3 3 0 01-.5 0l-.3.1c0 .1.1.2.3.2h4.1c.1 0 .2 0 .2-.2s0-.1-.3-.1h-.4c-.4-.1-.5-.3-.5-.8V769v-.1zm14.8-1c0 3-1.8 5-4.2 5-1.6 0-3.4-.9-3.4-4.3 0-2.9 1.6-5.1 4.3-5.1 1 0 3.3.5 3.3 4.4m-9.7.3c0 2.3 1.6 5.4 6 5.4 3.6 0 5.8-2 5.8-5.2s-2.3-5.6-6-5.6c-4.1 0-5.8 3-5.8 5.4m23.3-.3c0 3-1.9 5-4.2 5-1.6 0-3.4-.9-3.4-4.3 0-2.9 1.6-5.1 4.3-5.1 1 0 3.3.5 3.3 4.4m-9.7.3c0 2.3 1.6 5.4 6 5.4 3.6 0 5.8-2 5.8-5.2s-2.3-5.6-6-5.6c-4.2 0-5.8 3-5.8 5.4m16.5-1.3c0-1.7 0-2.6.3-2.9.3-.2.8-.3 2-.3.7 0 1.3 0 1.6.4.2.2.3.6.4.9l.1.2.2-.3-.2-1.6c-.1-.3-.2-.4-1-.4a61 61 0 00-2.5 0h-3.7c-.2 0-.3 0-.3.2l.2.1h.5c.3.1.4.4.5.8v8.4c0 .4-.2.5-.6.7h-.5l-.2.1c0 .1 0 .2.3.2h4c.2 0 .3 0 .3-.2s0-.1-.2-.1a3.4 3.4 0 01-.6 0c-.4-.1-.5-.3-.5-.8v-3z"/><path fill="#869ab8" d="M252.8 751.6v2c0 .3 0 .4-.3.5h-.5l.2.1H254.6l-.2-.1h-.2c-.2 0-.3-.2-.3-.5v-3.2-1.7c0-.2 0-.4.3-.4h.4l.2-.1-.2-.1h-2.3-.1v.1h.4l.2.5v2.5h-3.1v-.8-1.7c0-.2 0-.4.3-.4h.4l.2-.1-.2-.1h-2.5l.2.1h.3l.2.5v4.9c0 .3 0 .4-.3.5h-.5l.2.1H250.4l-.2-.1h-.2c-.3 0-.3-.2-.3-.5v-1.9zm9-.6c0 1.8-1 3-2.3 3-1 0-2-.6-2-2.6 0-1.7 1-3 2.5-3 .5 0 1.9.3 1.9 2.6m-5.5.2c0 1.4.9 3.2 3.3 3.2 2 0 3.3-1.2 3.3-3a3.2 3.2 0 00-3.4-3.4 3.1 3.1 0 00-3.2 3.2m9.5-2c0-.6.2-.8.3-.9h.4l.2-.1-.2-.1h-1-.9-.2l.2.1h.3c.2.2.3.4.3 1v4.9l.1.3c.2 0 .2-.1.4-.3l2.5-2.6 1.8-1.8v3.6c0 .5-.2.7-.4.7h-.4l-.1.2h2.2l-.2-.1h-.2c-.2-.1-.3-.3-.3-.7l-.1-5.2-.1-.2c-.1 0-.2 0-.3.2l-2.4 2.4-2 2zm13-.6c0-.2 0-.2-.2-.3a4.6 4.6 0 00-2-.3c-2 0-3.7 1-3.7 3.2a3 3 0 001.4 2.6 4 4 0 002.2.6 10 10 0 002-.3h.2v-1.4c0-.1 0-.2-.2-.2v.1c0 .2-.1.5-.3.7-.3.3-1 .6-1.8.6-.5 0-1 0-1.6-.5-.5-.4-.8-1-.8-2 0-1.7 1.1-3 2.9-3h.6c.2.1.2.3.2.4v1.7c0 .3-.1.4-.4.5h-.3-.1l.2.1H279.5l-.1-.1h-.3c-.2 0-.3-.2-.3-.5v-1.9zm7.2 3l1.7 1.7.4.6v.2h-.2l.1.1h1.9v-.1a1.6 1.6 0 01-.5-.1 2.6 2.6 0 01-.9-.6 121.8 121.8 0 01-1.8-1.8 46.4 46.4 0 012.2-2.4c.4-.3.8-.7 1.2-.8l.5-.2h.1l-.2-.1h-1.2c-.5 0-.7.2-1 .5-.4.3-2 2.2-2.2 2.5h-.1v-.7-1.7c0-.2.1-.4.3-.4h.4l.1-.1-.1-.1H284.4l.1.1h.3c.2.1.2.3.3.5v4.9c0 .3-.1.4-.4.5h-.3-.1l.2.1H286.8l-.2-.1h-.2c-.2 0-.3-.2-.3-.5v-1.7zm10.7-.6c0 1.8-1 3-2.4 3-1 0-2-.6-2-2.6 0-1.7 1-3 2.5-3 .6 0 1.9.3 1.9 2.6m-5.5.2c0 1.4.9 3.2 3.3 3.2 2 0 3.3-1.2 3.3-3a3.2 3.2 0 00-3.4-3.4 3.1 3.1 0 00-3.2 3.2m9.6-2c0-.6 0-.8.2-.9h.4l.2-.1-.2-.1h-1-.9-.2l.2.1h.3c.2.2.3.4.3 1v4.9c0 .2 0 .3.2.3l.3-.3 2.5-2.6 1.8-1.8v3.6c0 .5-.1.7-.3.7h-.5l-.1.2h2.2l-.2-.1h-.2c-.2-.1-.3-.3-.3-.7l-.1-5.1-.1-.3c-.1 0-.2 0-.3.2l-2.4 2.4-2 2zm12.8-.6v-.3a4.6 4.6 0 00-2-.3c-2 0-3.8 1-3.8 3.2a3 3 0 001.4 2.6 4 4 0 002.2.6 10 10 0 002.2-.4v-1.3l-.1-.2-.1.1c0 .2 0 .5-.3.7-.2.3-.9.6-1.8.6-.5 0-1 0-1.6-.5-.5-.3-.8-1-.8-2 0-1.7 1.1-3 2.9-3h.7l.1.4v1.7c0 .3 0 .4-.4.5h-.3-.1l.2.1H314.4l-.1-.1h-.3c-.2 0-.3-.2-.3-.5v-1.9z"/><path fill="#869ab8" d="M228 786.8c0-.1-.1-.2-.3-.2l-1.2.2-1.2.2c-1.1 0-2.1.2-2.7.3l-.7.2c-.7.2-1 .3-1 .6 0 0 1.6 1.6 2.3 1.6.6 0 4.5-2.4 4.7-2.5.2 0 .2-.2.2-.4m-12 4.8a.3.3 0 00-.5.2c0 .1-1.1 3-3.7 3a3.9 3.9 0 01-.8-.2.3.3 0 00-.4.2c0 .2 0 .4.2.5 0 0 .8.3 1.7.4 1.1 0 3-.4 3.7-3.7a.3.3 0 00-.3-.4m-1-27.6c-1.4-2-4-2-4.1-2a.3.3 0 00-.2 0 .3.3 0 00.1.6c1.6.4 2.7 1.2 3.2 2.3 1 2.5-.4 6.9-4 12.6-.7 1.1-.9 2-.5 2.8 1.1 2 5.6 1.9 5.8 1.9a.3.3 0 000-.7c-2-.4-3.1-.9-3.5-1.7-.6-1 .2-2.7 1.3-5 .7-1.4 1.5-3 2.1-5 .9-2.5.8-4.4-.2-5.8m-11 19.8c-3.4-2.5-2.5-10.8-2-14.8.8-7.4-3.2-8.3-3.4-8.3a.3.3 0 00-.2.6c3 1.1 2.4 4.9 1.8 9.2-.6 3.9-1.2 8.3.6 11.6 1.1 2 2.6 3.2 4.5 3.6 3.4.7 6.7-1.7 6.7-1.7.1-.1.1-.3 0-.4a.3.3 0 00-.3-.2c-3.4 1.5-6 1.6-7.6.4m5.7 5.9c.3.6.8 1.4 2.2 1.4a10.6 10.6 0 003.8-1.3.3.3 0 000-.4.3.3 0 00-.5-.1h-.2c-.5.2-1.7.3-2.7.3a3 3 0 01-1.2-.2l-.2-.2c0-.2 0-.6.4-1 .2-.4.7-.8 2.3-1 1-.2 1.5-.4 1.6-.8a.6.6 0 000-.6.3.3 0 00-.3-.1.3.3 0 00-.2 0c-.2.2-.7.2-1.4.3H212c-1 .2-1.7 1.4-2 1.9-.3.6-.5 1.4-.3 1.8m27.4-4.7c-.2 1.2-3.9 2.8-6.4 3.3-2.5.5-4.2 3.3-5 4l-3.6 1-.4.6c-1 1.3-3.8 3.7-10.4 3.7-8.2 0-9.5 1.8-9.6 2a.4.4 0 01-.4.2h-.1c-.3 0-.4-.3-.4-.5.3-1.5.8-2.6 1.3-3.2a18.8 18.8 0 01-11.8-9.9c-1.9-3.9-4-4.7-5.6-4.8-.7 0-1.2.2-1.2.2a.4.4 0 01-.1 0 .4.4 0 01-.2 0 .4.4 0 01-.2-.3c-.3-1.5.8-2.7 1.3-3.2-2.8-8.6-5.6-9.6-5.6-9.6a.4.4 0 01-.3-.3.4.4 0 010-.3c.2-.3.5-.6 1.1-.5 1.2 0 3.2 1 4.7 1.8a22.7 22.7 0 01-3-10.3v-2.2a.5.5 0 01.5-.2c.4 0 1.7 1.8 1.7 1.8v-.2c2.4-6.5-2.4-7.1-2.4-7.1s5.5-2.5 12.4 2.6c6.8 5.1 13.3 5.5 16.2 4 3-1.7 1.1-4.6 1.1-4.6 10.2.5 8.7 10.9 8.7 10.9l.7-1.3.2-.3.1-.3.2-.3v-.1l.1-.2v-.1h.1l.1-.3a5.3 5.3 0 00.2-.4v-.2l.1-.1v-.1l.2-.4a.4.4 0 01.4-.3c.2 0 .3.1.4.3v.2h.1V760.4l.2.1v.1l.1.3.1.2v.2l.5 1.1.2.5v.2l.8 4 .2 1.4c3-.3 5.2.2 6.3-.2 1.9-.7 2.5 3 2.2 4 0 .3-.5.5-1 .6l-.4 1.9c-.2.1-.8-.6-1.3-1.7-2.6.2-6 .2-6.2 1.6-.2 2.2-.1 2.9 1.4 4 1.4 1 3.6 1 5.6-.2l.4-.2a6.4 6.4 0 010-1.8c.2-.1 1 .7 1.8 2 1.4.4 2.8 1.6 3 2.5.1 1.4 1.3 1.8 1 4"/><path fill="#869ab8" d="M238.2 781.4a2 2 0 01-.4-.8c-.2-1.5-1.8-3-3.4-3.7a7.6 7.6 0 00-1.3-1.5l.3-1.3c.5-.3 1-.7 1.2-1.3a7 7 0 00-1-5.1 3 3 0 00-2.4-1.3 3 3 0 00-1.1.2h-4.2c-.2-1-.4-2.4-.8-3.8a2.2 2.2 0 000-.6h-.1a9 9 0 00-.1-.4l-.5-1.2-.3-.8-.2-.4-.1-.3a2.2 2.2 0 00-2-1.3h-.1c-.5 0-.8.1-1.2.3a10 10 0 00-1.7-3.2 10.4 10.4 0 00-8-3.6 1.7 1.7 0 00-1.5 2.7c0 .2.3.8.2 1.2 0 .3-.3.6-.7.8-.7.4-1.8.6-3 .6a20 20 0 01-11.4-4.4c-4-3-7.5-3.6-9.8-3.6-2.5 0-4.1.7-4.3.8a1.7 1.7 0 00.5 3.3s.8.2 1.3.9c.2.3.3.8.3 1.3a1.9 1.9 0 00-.7-.1 2.3 2.3 0 00-1.7.7c-.8.9-.6 2-.6 2.3l.1 1.2c.2 1.7.4 4.2 1.2 6.8a4.6 4.6 0 00-1.1-.2h-.1c-1.2 0-2.1.6-2.6 1.5a2.2 2.2 0 001.1 3c.2.1 2.2 1.5 4.3 7.6a4.8 4.8 0 00-1 4 2.2 2.2 0 002.8 1.5h.5c1.6 0 3 1.3 4.1 3.8a20.8 20.8 0 0011 10.2c-.3.5-.4 1-.6 1.7a2.2 2.2 0 002.1 2.7c.8 0 1.5-.4 1.9-1 .4-.3 2.3-1.2 8.2-1.3 7.4 0 10.5-2.8 11.7-4.4l.1-.1c2.5-.6 3.1-.9 3.5-1.1l1.3-1.3c.8-1 2-2.2 3.1-2.4.1 0 7.3-1.6 7.8-4.7a5.4 5.4 0 00-.7-4m1.4 4c-.6 3.7-8.3 5.3-8.3 5.3-1 .2-2 1.4-2.9 2.2a8.7 8.7 0 01-1.3 1.4c-.5.3-1 .6-3.5 1.1-1.3 1.8-4.6 4.7-12.2 4.7-5.4 0-7.3.8-7.8 1a2.8 2.8 0 01-5-2.2c0-.5.2-.9.3-1.3a21.5 21.5 0 01-10.7-10.2c-1-2.2-2.2-3.4-3.4-3.5h-.4a2.8 2.8 0 01-2.3-.1 2.8 2.8 0 01-1.4-2c-.3-1.3 0-2.8 1-4-2-5.5-3.6-6.8-3.9-7a2.8 2.8 0 01-1.4-4 3.4 3.4 0 013.2-1.7H179.8a36 36 0 01-1-7c-.1-.5-.3-1.8.7-2.9a2.9 2.9 0 012.1-1 1.2 1.2 0 00-.9-.7 2.3 2.3 0 01-2-2 2.4 2.4 0 011.3-2.6c.2 0 2-.8 4.6-.8 2.4 0 6.1.6 10.2 3.7 3.7 2.7 7.6 4.3 11 4.3a6 6 0 002.7-.6l.4-.3c0-.2 0-.6-.2-.7a2.3 2.3 0 01-.1-2.5 2.4 2.4 0 012.2-1.2 11 11 0 018.5 3.7 10.3 10.3 0 011.6 2.8h.7l.2-.1c1.2 0 2.1.7 2.6 1.7l.1.3v.2h.1v.2h.1l.1.4.2.5.4 1v.1l.2.5.2.7.6 3.2h3.5a3.6 3.6 0 014.2 1.4 7.4 7.4 0 011.1 5.6c-.2.7-.6 1.2-1.2 1.6 0 .2 0 .5-.2.7l1 1.2c1.7.8 3.4 2.3 3.7 4.1l.2.6c.5.8 1.2 2 .8 4.3"/></g></g></g></g></g></svg>