<svg viewBox="0 0 3090 1364" xmlns="http://www.w3.org/2000/svg" style="width:80px;"><path d="M1536.4 22.6c-5.9 6.8-14.3 17-18.7 22.6-71.2 91.5-122.1 217.5-137.6 340.8a567 567 0 00-4.6 88.5c0 44.9.9 59.2 5.6 92a667.6 667.6 0 00129.2 308 544 544 0 0033.2 41.3c.2-.2-.7-7.5-2-16.3-6.4-42.8-9-85.7-8.2-132a655.3 655.3 0 01165.9-433l3.5-3.9-2.4-11.1A781.3 781.3 0 001640 141a581.2 581.2 0 00-86.4-123.8l-6.5-7.1-10.7 12.5z" fill="#869ab8" fill-rule="nonzero"/><path d="M1088.6 196.7a771.2 771.2 0 00-11.2 116.8c-2.8 118.2 23.3 237.2 73.6 336a485.3 485.3 0 0030.7 53.4 509.2 509.2 0 0065.7 81.9 440 440 0 00223.6 125c7.8 1.7 41 7.2 43.3 7.2.4 0-3.9-5.5-9.4-12.2a614.8 614.8 0 01-88.5-140.6c-31.8-70.8-48.7-138-57-227.2-2.2-23.6-3-98.7-1.5-131.8 1.2-24.3 4.6-70.5 5.6-75 .4-1.8-.7-3.6-5.2-8.4a713 713 0 00-47.1-43c-59.1-49.3-119.9-76-189.6-83.3-8-.8-18.6-1.5-23.5-1.5h-8.9l-.6 2.7zM1980.5 202.1a527 527 0 00-158.7 62.2c-118.3 70.7-200.6 189.8-239.7 347.2-23.8 95.6-29.5 206.3-15 292 1.1 6.6 2.2 12.7 2.5 13.6.4 1.5 1.4 1.4 10.7-.7 100.6-23.6 184.5-66.7 253-129.9a519 519 0 00107.3-143 656.7 656.7 0 0052-144.7 783.4 783.4 0 0011.8-282.1l-2.4-17.8c0-1.5-3.7-.9-21.5 3.2zM1349 1101.5c-47 7.7-80.2 38.5-92 85-12.9 51.1.5 112.9 31.2 143.6 19.8 19.8 45.2 29 80.6 29a108 108 0 0041.3-6.5 97.3 97.3 0 0054.9-51.9c4.7-10.1 9.3-23.8 8.3-24.8-.5-.4-7.9-2.5-16.5-4.7l-15.8-4-1 4.2c-2 7.8-8.2 22.5-11.9 28.3a72.3 72.3 0 01-39.8 28.8c-8.5 2.3-24.7 3-34 1.5-31.4-5-52.7-24.2-61.7-55.6-8-27.8-8.6-56.4-1.6-84.3 6.5-25.9 19.7-43.6 39.5-53.2a76 76 0 0137.5-8.2 64.1 64.1 0 0134.6 6.8 43.6 43.6 0 0115.6 11.3 80.4 80.4 0 0116.4 27.1c1.1 2.9 2.4 5.5 3.1 5.8.7.3 8.2-1.2 16.7-3.2l15.5-3.7-2.6-7.1a94.5 94.5 0 00-70.8-63.3 188 188 0 00-47.5-.9zM2687.9 1101.1a115.2 115.2 0 00-69.4 37.8c-15.2 18.2-23 36.2-28.1 65.1-2.6 14.4-2.4 42.4.4 55.6 7.8 36.6 25 63.6 51.7 81a112.3 112.3 0 0065.2 18.5c17 0 28.4-1.8 42.5-6.7 12.3-4.3 15.7-6 26.8-13.2 35.2-22.7 54.9-69.8 50.9-121.9-3.3-43.4-20.5-76.5-50.8-97.2a114 114 0 00-46.5-18.6c-9.5-1.6-33-1.9-42.7-.4zm42.7 29.9c31.1 8 52.3 31.4 60.6 66.9 2.9 12.8 3.6 42.4 1.3 56.2a94.7 94.7 0 01-16.7 43.4 80.5 80.5 0 01-45.3 31.1 128 128 0 01-44.5 0 85.6 85.6 0 01-57-53.6 169.5 169.5 0 010-90.5c8.9-28.8 32.4-49 64.1-55.1a106 106 0 0137.5 1.6zM12.1 1115.2l44.7 125.3 40.7 114h53.8L192 1241l44.8-125.3 4.2-11.7h-52.9l-30.7 93a2741 2741 0 01-31.5 92.3c-.4-.5-14.9-42.2-32.2-92.8l-31.4-92-27.1-.3-27.1-.2 4 11.2zM326 1106.2c-.6 1.3-22.6 57.6-48.9 125.3l-47.9 123 26.1.3c18.8.2 26.3-.1 26.8-.9.4-.6 5.1-13.5 10.5-28.5l9.9-27.4H403.8l3.6 9.3 10.8 28.2 7.4 19 27.2.3 27.2.2-1.3-3.2-50.3-125.5-48.9-122.3H327l-1 2.2zm44.5 103.6a877.8 877.8 0 0116.3 45.7c-.3.3-15.8.4-34.5.3l-34-.3 17-46.8a472.6 472.6 0 0117.7-45.5c.4.7 8.3 21.7 17.5 46.6zM747 1176.7c0 107.5 1.5 124.1 12.9 143.3a68.7 68.7 0 0018.4 20.6c18.2 13.6 35 17.9 70.7 17.9 19.9 0 23.7-.3 33-2.3 26.1-5.9 44.5-19.2 54.6-39.7 8.9-18.2 9.5-25.2 10.1-127.3l.5-85.2h-50.1l-.4 86.2c-.3 57.4-.9 88.5-1.6 92.7-3.9 22.5-19 33.4-46.1 33.5a57.7 57.7 0 01-28.9-5.9 44.4 44.4 0 01-21.3-28.2c-.7-3.3-1.2-32.7-1.5-91.6l-.4-86.7H747v72.7zM1014 1229.5V1355h190v-42h-140v-69h126v-41h-126v-57h135v-42h-185v125.5zM1528 1229.5V1355h33v-111.1l29.3.3 29.2.3 7.5 3.6c16.2 7.9 26.1 20.5 68.1 87.1l12.4 19.7 20.8.1c19.5 0 20.7-.1 19.8-1.8-4.2-7.9-49.2-76.7-53.9-82.4a112.8 112.8 0 00-28.7-26c-6.8-3.5-6.9-3.7-4-4.3 24.7-5.1 38.3-11.2 49-22 4.4-4.4 8.4-9.8 10.8-14.2 17-32.5 4.3-76.6-26.4-91.3-17-8.1-27.7-9-105-9H1528v125.5zm131.3-96.1a44 44 0 0125.4 12.9 39.8 39.8 0 01-12.4 62.2c-11.2 5.4-15.1 5.7-65 6.2l-46.3.5V1132h45.4c35.1 0 47.1.3 52.9 1.4zM1794.2 1229.2l.3 125.3 93.8.3 93.7.2v-29h-154v-86h139v-29h-139v-77h148v-30h-182l.2 125.2zM2062.6 1226.2l-48.3 125.6-1.3 3.2 17.7-.2 17.8-.3 13.6-37.5 13.5-37.5 52.6-.3 52.6-.2 4.6 11.7a18521.2 18521.2 0 0024.9 63.9c.2.2 8.7.3 18.9.2l18.5-.3-51.2-125-51.1-125-18-.3-17.9-.2-46.9 122.2zm69.4-78.7c2.9 8.8 12.6 35.5 21.6 59.4 9 23.9 16.4 43.8 16.4 44.2 0 .5-18.9.9-42 .9s-42-.4-42-.9c0-.4 6.3-17.6 14-38.2 15.6-41.4 20.7-56.7 24.1-71.7 1.3-5.6 2.4-10 2.5-9.9.1.1 2.6 7.4 5.4 16.2zM2242.2 1118.7l.3 14.8 41.3.3 41.2.2v221h33v-221h83v-30h-199.1l.3 14.7zM2494 1229.5V1355h33v-251h-33v125.5zM2884 1229.5V1355h32l.2-98 .3-98 65.5 98 65.4 98h34.6v-251h-32l-.2 98.5-.3 98.5-65.9-98.5-65.8-98.5H2884v125.5zM522 1231v124h176v-42H572v-206h-50v124z" fill="#869ab8" fill-rule="nonzero"/></svg>