<svg version="1.0" xmlns="http://www.w3.org/2000/svg" viewBox="0 0 1400 980"><path d="M0 0h1400v980H0z" fill="#636466" stroke="#231F20" stroke-miterlimit="10"/><path d="m0 629 303-110L0 980z" fill="#808285"/><path d="m0 418 303 101L0 629z" fill="#77787B"/><path d="m303 519 99 199L0 980z" fill="#8A8C8E"/><path d="M402 718 257 980H0z" fill="#808285"/><path d="m303 519 99 199 224-2z" fill="#939598"/><path d="m303 519-12-305L0 418z" fill="#9D9FA2"/><path d="m0 215 291-1L0 418z" fill="#8A8C8E"/><path d="m303 519 204-227-216-78z" fill="#939598"/><path d="m0 0 291 214-291 1z" fill="#77787B"/><path d="m291 214 332-87-116 165z" fill="#808285"/><path d="m347 0-56 214L0 0z" fill="#6D6E71"/><path d="m347 0-56 214 332-87L515 0z" fill="#77787B"/><path d="m515 0 108 127L899 0z" fill="#808285"/><path d="M623 127 507 292l243 159z" fill="#6D6E71"/><path d="m507 292 119 424-323-197z" fill="#8A8C8E"/><path d="m626 716 124-265-243-159z" fill="#9D9FA2"/><path d="M750 451 626 716l379-50z" fill="#808285"/><path d="m626 716 117 264H257l145-262z" fill="#9D9FA2"/><path d="M1005 666 743 980 626 716z" fill="#8A8C8E"/><path d="m623 127 127 324 313-95z" fill="#77787B"/><path d="M1005 666 743 980h502z" fill="#939598"/><path d="m1063 356-58 310-255-215z" fill="#636466"/><path d="m1063 356-58 310 395-304z" fill="#77787B"/><path d="m1400 362-395 304 395 68z" fill="#808285"/><path d="m899 0 164 356-440-229z" fill="#8A8C8E"/><path d="m1400 0-337 356 337 6z" fill="#636466"/><path d="m1104 0-41 356L1400 0z" fill="#939598"/><path d="m1005 666 395 68v246h-155z" fill="#8A8C8E"/><path d="m899 0 164 356 41-356z" fill="#9D9FA2"/></svg>