<svg xmlns="http://www.w3.org/2000/svg" width="1920" height="873" preserveAspectRatio="xMidYMid" style="background-color:#000"><g transform="matrix(1 0 0 1 0 0)"><linearGradient id="A" x1="0" x2=".5" y1="0" y2="0"><stop stop-color="#111" offset="0"/><stop stop-color="#333" offset="1"/></linearGradient><g fill="url(#A)"><path d="M-914.382 873q157.208-196.666 138.725-398.248-18.483-201.582 402.594-359.265Q48.014-42.196 253.992-169.627q205.978-127.432 790.136-183.055 584.158-55.623 875.872-63.076 291.714-7.453 875.872 63.076 584.158 70.53 790.136 183.055 205.978 112.525 627.055 285.114 421.078 172.589 402.594 359.265Q4597.174 661.427 4754.382 873" opacity=".9"/><path d="M-630.944 873q137.607-193.303 153.841-396.703 16.234-203.4 442.967-348.855 426.733-145.455 678.665-258.93 251.931-113.475 832.505-137.774 580.574-24.299 885.934 0 305.36 24.299 832.505 137.774 527.146 113.475 678.664 258.93 151.519 145.455 442.967 348.855 291.448 203.4 153.841 396.703" opacity=".9"/><path d="M-347.506 873q128.676-191.147 172.604-394.549 43.927-203.402 491.533-334.483Q764.237 12.888 1052.263-79.526q288.026-92.413 867.737-78.481 579.711 13.933 867.737 78.481 288.026 64.548 735.632 223.494 447.606 158.946 491.533 334.483Q4058.83 653.987 4187.506 873" opacity=".9"/><path d="M-64.068 873q166.542-191.988 196.484-391.42 29.942-199.432 550.537-313.894Q1203.549 53.223 1478.503-6.512q274.954-59.736 882.993 0 608.039 59.736 795.549 174.198 187.511 114.462 550.537 313.894Q4070.61 681.012 3904.068 873" opacity=".9"/><path d="M219.371 873q116.328-190.871 227.841-386.627 111.514-195.756 622.474-283.031Q1580.645 116.067 1920 99.745q339.355-16.322 850.315 103.597 510.96 119.918 622.474 283.031Q3504.302 649.485 3620.629 873" opacity=".9"/><path d="M502.809 873q165.523-197.462 270.659-378.757 105.137-181.295 708.596-234.084 603.459-52.79 875.872 0 272.414 52.79 708.595 234.084Q3502.714 675.538 3337.191 873" opacity=".9"/><path d="M786.247 873q141.941-189.911 332.068-364.516Q1308.443 333.879 1920 357.497q611.557 23.617 801.684 150.987Q2911.812 635.854 3053.753 873" opacity=".9"/><path d="M1069.685 873q141.031-183.52 425.157-334.829 284.127-151.309 850.315 0Q2911.345 689.48 2770.315 873" opacity=".9"/><path d="M1353.124 873Q1606.382 718.287 1920 615.248 2233.618 512.21 2486.876 873" opacity=".9"/><path d="M1636.562 873q283.438-84.453 566.876 0" opacity=".9"/></g></g></svg>